<?xml version="1.0" encoding="UTF-8"?>
<svg id="Layer_2" data-name="Layer 2" xmlns="http://www.w3.org/2000/svg" viewBox="0 0 189.44 148.28">
  <defs>
    <style>
      .cls-1 {
        fill: none;
        stroke: #ff694e;
        stroke-linecap: round;
        stroke-linejoin: round;
        stroke-width: 10px;
      }
    </style>
  </defs>
  <g id="Layer_1-2" data-name="Layer 1">
    <g id="book_theory">
      <path class="cls-1" d="M21.97,5h43.98c15.88,0,28.77,12.89,28.77,28.77v99.29c0,5.64-4.58,10.22-10.22,10.22H15.22c-5.64,0-10.22-4.58-10.22-10.22V21.97c0-9.37,7.61-16.97,16.97-16.97Z"/>
      <path class="cls-1" d="M123.49,5h43.98c9.37,0,16.97,7.61,16.97,16.97v111.08c0,5.64-4.58,10.22-10.22,10.22h-69.28c-5.64,0-10.22-4.58-10.22-10.22V33.77c0-15.88,12.89-28.77,28.77-28.77Z"/>
      <path class="cls-1" d="M5,110.31h67.03c12.52,0,22.68,10.16,22.68,22.68h0c0,5.67-4.61,10.28-10.28,10.28H15.28c-5.67,0-10.28-4.61-10.28-10.28v-22.68h0Z"/>
      <path class="cls-1" d="M117.4,110.31h67.03v22.68c0,5.67-4.61,10.28-10.28,10.28h-69.16c-5.67,0-10.28-4.61-10.28-10.28h0c0-12.52,10.16-22.68,22.68-22.68Z"/>
    </g>
  </g>
</svg>