<?xml version="1.0" encoding="UTF-8"?>
<svg id="Layer_2" data-name="Layer 2" xmlns="http://www.w3.org/2000/svg" viewBox="0 0 276.34 380.99">
  <defs>
    <style>
      .cls-1 {
        fill: #f7ffab;
      }

      .cls-2 {
        fill: #b9bf43;
      }

      .cls-3 {
        fill: #777f2b;
      }

      .cls-4 {
        fill: #e6ff55;
      }

      .cls-5 {
        fill: #bfcc46;
      }
    </style>
  </defs>
  <g id="Layer_1-2" data-name="Layer 1">
    <g id="emerald">
      <path class="cls-5" d="M276.34,119.29v142.41c0,9.94-2.32,19.59-6.6,28.25-4.39,8.87-10.84,16.72-18.99,22.8l-74.47,55.59c-11.31,8.43-24.71,12.65-38.11,12.65s-26.8-4.22-38.1-12.65l-74.48-55.59c-8.14-6.09-14.6-13.93-18.98-22.81-4.3-8.66-6.61-18.31-6.61-28.24V119.29c0-9.59,2.16-18.9,6.17-27.33,4.38-9.25,11-17.42,19.42-23.71L100.1,12.63C111.39,4.2,124.78,0,138.17,0s26.44,4.1,37.65,12.32l74.93,55.93c8.42,6.29,15.04,14.46,19.43,23.7,4,8.43,6.16,17.75,6.16,27.34Z"/>
      <path class="cls-4" d="M270.18,91.95l-66.67,49.77-65.34,48.78V0c13.22,0,26.44,4.1,37.65,12.32l74.93,55.93c8.42,6.29,15.04,14.46,19.43,23.7Z"/>
      <path class="cls-1" d="M138.17,0v190.5l-65.34-48.78L6.17,91.96c4.38-9.25,11-17.42,19.42-23.71L100.1,12.63C111.39,4.2,124.78,0,138.17,0Z"/>
      <path class="cls-2" d="M138.17,191.73v189.26c-13.4,0-26.8-4.22-38.1-12.65l-74.48-55.59c-8.14-6.09-14.6-13.93-18.98-22.81l66.67-49.76,64.89-48.45Z"/>
      <path class="cls-3" d="M269.74,289.95c-4.39,8.87-10.84,16.72-18.99,22.8l-74.47,55.59c-11.31,8.43-24.71,12.65-38.11,12.65v-189.26l64.9,48.45,66.67,49.77Z"/>
      <path class="cls-4" d="M207.26,222.7v-64.41c0-12.19-5.75-23.66-15.52-30.96l-30.46-22.74c-13.71-10.23-32.51-10.23-46.22,0l-30.46,22.74c-9.77,7.29-15.52,18.77-15.52,30.96v64.41c0,12.19,5.75,23.66,15.52,30.96l30.46,22.74c13.71,10.23,32.51,10.23,46.22,0l30.46-22.74c9.77-7.29,15.52-18.77,15.52-30.96Z"/>
    </g>
  </g>
</svg>