<svg version="1.1" id="Layer_1" xmlns="http://www.w3.org/2000/svg" xmlns:xlink="http://www.w3.org/1999/xlink" x="0px" y="0px"
	 width="100%" viewBox="0 0 322 402" enable-background="new 0 0 322 402" xml:space="preserve">
<path fill="#939393" opacity="1.000000" stroke="none" 
	d="
M0.999999,258.000000 
	C1.000000,246.645767 1.000000,235.291550 1.344886,223.246613 
	C2.921421,215.441879 3.622156,208.185455 5.484806,201.240662 
	C10.953577,180.850677 18.707741,161.360519 29.902685,143.349686 
	C39.361275,128.132385 49.959377,113.907478 64.903954,103.541260 
	C72.265602,98.434898 78.979782,100.367813 83.120827,108.407173 
	C87.256332,116.435791 91.253441,124.555054 95.808182,132.343979 
	C103.297035,145.150391 111.161636,157.715881 123.330559,166.859451 
	C130.786209,172.461517 139.544067,174.198105 144.686508,169.413467 
	C149.158798,165.252319 153.216766,160.069550 155.797211,154.560394 
	C163.273132,138.599670 164.040863,121.172531 164.887360,103.929214 
	C165.234558,96.856323 164.462738,89.713089 163.965591,82.618271 
	C163.412659,74.727661 163.343246,66.698509 161.732132,59.008568 
	C158.409332,43.148682 154.203979,27.473623 150.356689,11.723754 
	C149.526276,8.324202 150.114594,5.501023 153.506836,3.783079 
	C155.338043,2.855701 157.168961,1.927716 159.000000,1.000000 
	C160.066666,1.000000 161.133347,1.000000 162.770020,1.318655 
	C166.439880,3.134122 169.697937,4.373971 172.614105,6.169204 
	C192.405167,18.352890 211.356567,31.682592 228.754974,47.171772 
	C245.250839,61.857445 260.760590,77.459023 274.014648,95.165359 
	C285.678925,110.747940 295.919983,127.211205 303.599091,145.167343 
	C312.165680,165.198669 318.520691,185.845856 321.039062,207.575546 
	C321.521362,211.736893 322.337738,215.859512 323.000000,220.000000 
	C323.000000,232.354233 323.000000,244.708450 322.652679,257.758362 
	C320.526245,268.125275 319.408783,277.976257 316.839844,287.432983 
	C310.042084,312.456512 297.523010,334.489288 279.920197,353.525848 
	C263.745636,371.017853 244.270782,383.827545 222.096298,392.324921 
	C208.590683,397.500336 194.591690,401.089905 180.174652,401.593872 
	C181.916870,400.466431 183.441895,399.447083 185.117722,398.853607 
	C200.034302,393.571350 212.287323,384.531677 221.141571,371.548920 
	C240.621277,342.986298 244.010849,312.978638 228.250443,281.424500 
	C216.032730,256.963196 199.933502,235.193634 182.644562,214.210953 
	C179.903244,210.883942 177.214584,207.303024 173.805984,204.778793 
	C165.939102,198.953064 153.589096,197.795532 143.711792,210.994156 
	C130.060242,229.236145 115.973450,247.255997 103.775162,266.452576 
	C91.773537,285.339691 82.190094,305.562225 85.944695,329.371735 
	C90.679550,359.397461 104.730904,382.733246 132.703888,396.435638 
	C136.722015,398.403870 140.881104,400.084381 144.536011,401.935059 
	C125.654335,400.678650 108.295044,395.338257 91.797104,387.295471 
	C70.745186,377.032562 52.827877,362.675629 37.994862,344.514069 
	C22.594675,325.658112 11.308412,304.721649 5.895999,280.839905 
	C4.175133,273.246735 2.627111,265.614410 0.999999,258.000000 
z"/>
<path fill="#FFFFFF" opacity="1.000000" stroke="none" 
	d="
M158.531342,1.000000 
	C157.168961,1.927716 155.338043,2.855701 153.506836,3.783079 
	C150.114594,5.501023 149.526276,8.324202 150.356689,11.723754 
	C154.203979,27.473623 158.409332,43.148682 161.732132,59.008568 
	C163.343246,66.698509 163.412659,74.727661 163.965591,82.618271 
	C164.462738,89.713089 165.234558,96.856323 164.887360,103.929214 
	C164.040863,121.172531 163.273132,138.599670 155.797211,154.560394 
	C153.216766,160.069550 149.158798,165.252319 144.686508,169.413467 
	C139.544067,174.198105 130.786209,172.461517 123.330559,166.859451 
	C111.161636,157.715881 103.297035,145.150391 95.808182,132.343979 
	C91.253441,124.555054 87.256332,116.435791 83.120827,108.407173 
	C78.979782,100.367813 72.265602,98.434898 64.903954,103.541260 
	C49.959377,113.907478 39.361275,128.132385 29.902685,143.349686 
	C18.707741,161.360519 10.953577,180.850677 5.484806,201.240662 
	C3.622156,208.185455 2.921421,215.441879 1.344886,222.777954 
	C1.000000,149.085266 1.000000,75.170525 1.000000,1.000000 
	C53.353951,1.000000 105.708313,1.000000 158.531342,1.000000 
z"/>
<path fill="#A9A9A9" opacity="1.000000" stroke="none" 
	d="
M144.974945,401.898041 
	C140.881104,400.084381 136.722015,398.403870 132.703888,396.435638 
	C104.730904,382.733246 90.679550,359.397461 85.944695,329.371735 
	C82.190094,305.562225 91.773537,285.339691 103.775162,266.452576 
	C115.973450,247.255997 130.060242,229.236145 143.711792,210.994156 
	C153.589096,197.795532 165.939102,198.953064 173.805984,204.778793 
	C177.214584,207.303024 179.903244,210.883942 182.644562,214.210953 
	C199.933502,235.193634 216.032730,256.963196 228.250443,281.424500 
	C244.010849,312.978638 240.621277,342.986298 221.141571,371.548920 
	C212.287323,384.531677 200.034302,393.571350 185.117722,398.853607 
	C183.441895,399.447083 181.916870,400.466431 179.860138,401.666748 
	C178.969345,402.080200 178.540314,402.115204 177.906281,402.025696 
	C177.134186,402.267456 176.567093,402.633728 176.000000,403.000000 
	C166.312439,403.000000 156.624878,403.000000 146.362549,402.764038 
	C145.516830,402.318054 145.245880,402.108063 144.974945,401.898041 
z"/>
<path fill="#FFFFFF" opacity="1.000000" stroke="none" 
	d="
M323.000000,219.531342 
	C322.337738,215.859512 321.521362,211.736893 321.039062,207.575546 
	C318.520691,185.845856 312.165680,165.198669 303.599091,145.167343 
	C295.919983,127.211205 285.678925,110.747940 274.014648,95.165359 
	C260.760590,77.459023 245.250839,61.857445 228.754974,47.171772 
	C211.356567,31.682592 192.405167,18.352890 172.614105,6.169204 
	C169.697937,4.373971 166.439880,3.134122 163.170013,1.318655 
	C216.271713,1.000000 269.543427,1.000000 323.000000,1.000000 
	C323.000000,73.687454 323.000000,146.375076 323.000000,219.531342 
z"/>
<path fill="#FFFFFF" opacity="1.000000" stroke="none" 
	d="
M144.536011,401.935059 
	C145.245880,402.108063 145.516830,402.318054 145.893890,402.764038 
	C97.739677,403.000000 49.479359,403.000000 1.000000,403.000000 
	C1.000000,354.979340 1.000000,306.958313 0.999999,258.468658 
	C2.627111,265.614410 4.175133,273.246735 5.895999,280.839905 
	C11.308412,304.721649 22.594675,325.658112 37.994862,344.514069 
	C52.827877,362.675629 70.745186,377.032562 91.797104,387.295471 
	C108.295044,395.338257 125.654335,400.678650 144.536011,401.935059 
z"/>
<path fill="#FFFFFF" opacity="1.000000" stroke="none" 
	d="
M178.111298,402.150208 
	C178.540314,402.115204 178.969345,402.080200 179.712860,401.972321 
	C194.591690,401.089905 208.590683,397.500336 222.096298,392.324921 
	C244.270782,383.827545 263.745636,371.017853 279.920197,353.525848 
	C297.523010,334.489288 310.042084,312.456512 316.839844,287.432983 
	C319.408783,277.976257 320.526245,268.125275 322.652679,258.226990 
	C323.000000,306.260345 323.000000,354.520660 323.000000,403.000000 
	C274.979340,403.000000 226.958328,403.000000 178.481354,402.785583 
	C178.025391,402.571167 178.111298,402.150238 178.111298,402.150208 
z"/>
<path fill="#939393" opacity="1.000000" stroke="none" 
	d="
M177.906281,402.025696 
	C178.111298,402.150238 178.025391,402.571167 178.012695,402.785583 
	C177.555557,403.000000 177.111099,403.000000 176.333328,403.000000 
	C176.567093,402.633728 177.134186,402.267456 177.906281,402.025696 
z"/>
</svg>