<?xml version="1.0" encoding="UTF-8"?>
<svg id="Layer_2" data-name="Layer 2" xmlns="http://www.w3.org/2000/svg" viewBox="0 0 321.75 400.92">
  <defs>
    <style>
      .cls-1 {
        fill: #ff981c;
      }

      .cls-2 {
        fill: #ff694e;
      }
    </style>
  </defs>
  <g id="Layer_1-2" data-name="Layer 1">
    <g id="fire">
      <path class="cls-2" d="M321.63,245.12C326.11,102.28,205.85,25.52,165.4,1.38c-6.62-3.95-17.81,1.09-15.33,8.49,35.34,105.6,2.11,244.9-69.19,95.93-2.83-5.91-9.77-8.35-15.13-4.68C29.67,125.82,0,189.26,0,237.46c0,108.15,103.37,191.77,215.2,154.41,62.42-20.86,104.34-80.02,106.43-146.76Z"/>
      <path class="cls-1" d="M237.27,315.77c0,47.03-34.21,85.15-76.41,85.15s-76.41-38.12-76.41-85.15c0-33.42,38.59-83.36,60.93-109.45,8.43-9.85,22.54-9.85,30.97,0,22.33,26.09,60.93,76.03,60.93,109.45Z"/>
    </g>
  </g>
</svg>