<?xml version="1.0" encoding="UTF-8"?>
<svg id="Layer_2" data-name="Layer 2" xmlns="http://www.w3.org/2000/svg" viewBox="0 0 333.14 303.19">
  <defs>
    <style>
      .cls-1 {
        fill: #ff694e;
      }

      .cls-2 {
        fill: #ffeee9;
      }
    </style>
  </defs>
  <g id="Layer_1-2" data-name="Layer 1">
    <g id="heart">
      <path class="cls-1" d="M307.12,162.81l-17.63,19.25-102.64,112.06c-11.08,12.1-29.06,12.1-40.14,0L25.42,161.72C-8.47,124.72-8.47,64.74,25.42,27.74,42.36,9.25,64.57,0,86.78,0s44.4,9.25,61.36,27.74l18.58,20.28s.08.03.12,0l18.58-20.28C202.35,9.25,224.56,0,246.76,0s42.84,8.61,59.54,25.82c35.73,36.83,35.56,99.06.82,136.99Z"/>
      <circle class="cls-2" cx="255.06" cy="51.21" r="27.68"/>
      <circle class="cls-2" cx="291.91" cy="84.51" r="13.9"/>
    </g>
  </g>
</svg>