<?xml version="1.0" encoding="UTF-8"?>
<svg id="Layer_2" data-name="Layer 2" xmlns="http://www.w3.org/2000/svg" viewBox="0 0 264.74 285.08">
  <defs>
    <style>
      .cls-1 {
        fill: #f2eae1;
      }
    </style>
  </defs>
  <g id="Layer_1-2" data-name="Layer 1">
    <g id="home_off">
      <path class="cls-1" d="M264.74,103.73v150.3c0,17.15-13.9,31.05-31.05,31.05h-24.13c-17.15,0-31.05-13.9-31.05-31.05v-81.4c0-17.15-13.9-31.05-31.05-31.05h-30.2c-17.15,0-31.05,13.9-31.05,31.05v81.4c0,17.15-13.9,31.05-31.05,31.05h-24.13c-17.15,0-31.05-13.9-31.05-31.05V103.73c0-10,4.82-19.4,12.95-25.23L114.27,5.82c10.82-7.76,25.38-7.76,36.19,0l101.32,72.69c8.13,5.83,12.95,15.22,12.95,25.23Z"/>
    </g>
  </g>
</svg>