<?xml version="1.0" encoding="UTF-8"?>
<svg id="Layer_2" data-name="Layer 2" xmlns="http://www.w3.org/2000/svg" viewBox="0 0 225.32 285.08">
  <defs>
    <style>
      .cls-1 {
        fill: #ff694e;
      }
    </style>
  </defs>
  <g id="Layer_1-2" data-name="Layer 1">
    <g id="learn_matrices">
      <path class="cls-1" d="M29.88,210.13c-11.45,0-21.93,4.3-29.88,11.36V29.59C0,16.6,8.47,5.59,20.19,1.79c2.84-.93,5.88-1.42,9.02-1.42h30.55v209.75h-29.88Z"/>
      <path class="cls-1" d="M225.32,30.51v179.62c-.05,0-.1,0-.15,0H74.95V0h52.12v105.07l23.06-25.95,23.06,25.95V0h21.61c16.85,0,30.51,13.66,30.51,30.51Z"/>
      <path class="cls-1" d="M29.21.37h30.55v209.75h-29.88c-11.45,0-21.93,4.3-29.88,11.36V30.51C0,17.28,8.41,6.02,20.19,1.79c2.84-.93,5.88-1.42,9.02-1.42Z"/>
      <path class="cls-1" d="M29.88,210.13c-9.16,0-17.7,2.75-24.82,7.47-2.17,1.44-5.06-.18-5.06-2.78V29.59C0,16.6,8.47,5.59,20.19,1.79c2.84-.93,5.88-1.42,9.02-1.42h27.26c1.81,0,3.29,1.47,3.29,3.29v203.18c0,1.81-1.47,3.29-3.29,3.29h-26.6Z"/>
      <path class="cls-1" d="M225.32,225.31v49.7c0,5.56-4.5,10.06-10.06,10.06H29.88c-8.25,0-15.72-3.34-21.13-8.76-1.77-1.77-3.33-3.77-4.6-5.94-2.64-4.45-4.15-9.64-4.15-15.19s1.4-10.36,3.87-14.69c5.13-9.07,14.85-15.19,26.02-15.19h195.44Z"/>
    </g>
  </g>
</svg>