<?xml version="1.0" encoding="UTF-8"?>
<svg id="Layer_2" data-name="Layer 2" xmlns="http://www.w3.org/2000/svg" viewBox="0 0 206.64 318.4">
  <defs>
    <style>
      .cls-1 {
        fill: #45b4ce;
      }

      .cls-2 {
        fill: #542d02;
        font-family: Rubik-Bold, Rubik;
        font-size: 77px;
        font-variation-settings: 'wght' 700;
        font-weight: 700;
      }

      .cls-3 {
        fill: #9b5304;
      }

      .cls-4 {
        fill: #995204;
      }

      .cls-5 {
        fill: #a77044;
      }
    </style>
  </defs>
  <g id="Layer_1-2" data-name="Layer 1">
    <g id="medal_bronze">
      <polygon class="cls-1" points="164.29 318.4 103.32 281.79 42.35 318.4 42.35 142.26 164.29 142.26 164.29 318.4"/>
      <path class="cls-4" d="M190.68,141.85l-48.82,48.82c-9.01,9.01-20.39,14.21-32.14,15.58-16,1.88-32.66-3.31-44.94-15.58l-48.82-48.82C6.94,132.83,1.74,121.42.37,109.66c-1.86-15.98,3.33-32.63,15.59-44.89l17.37-17.37,31.45-31.44C78.08,2.66,96.55-2.33,113.72.99h.01c10.31,1.99,20.15,6.98,28.13,14.97l7.61,7.61,38.13,38.12,3.08,3.08c21.28,21.29,21.28,55.8,0,77.08Z"/>
      <path class="cls-5" d="M190.68,141.85l-41.78,41.78-39.18,22.62c-16,1.88-32.66-3.31-44.94-15.58l-36.81-36.81L187.6,61.69l3.08,3.08c21.28,21.29,21.28,55.8,0,77.08Z"/>
      <path class="cls-5" d="M149.47,23.57L.37,109.66c-1.86-15.98,3.33-32.63,15.59-44.89l17.37-17.37L113.72.99h.01c10.31,1.99,20.15,6.98,28.13,14.97l7.61,7.61Z"/>
      <path class="cls-3" d="M103.32,20c2.21,0,4.43.21,6.6.63l.35.07c6.61,1.34,12.63,4.59,17.44,9.41l7.61,7.61,38.13,38.12,3.08,3.08c13.45,13.46,13.45,35.35,0,48.8l-48.82,48.82c-5.55,5.55-12.57,8.95-20.33,9.86-1.35.16-2.72.24-4.07.24-9.21,0-17.88-3.59-24.39-10.1l-48.82-48.82c-5.55-5.55-8.96-12.59-9.87-20.36-1.23-10.57,2.37-20.94,9.87-28.44l17.37-17.37,31.45-31.44c6.52-6.52,15.18-10.11,24.4-10.11M103.32,0C89.38,0,75.42,5.32,64.78,15.96l-31.45,31.44-17.37,17.37C3.7,77.03-1.49,93.68.37,109.66c1.37,11.76,6.57,23.17,15.59,32.19l48.82,48.82c10.65,10.64,24.59,15.95,38.54,15.95,2.14,0,4.28-.12,6.4-.37,11.75-1.37,23.13-6.57,32.14-15.58l48.82-48.82c21.28-21.28,21.28-55.79,0-77.08l-3.08-3.08-38.13-38.12-7.61-7.61c-7.98-7.99-17.82-12.98-28.13-14.97h-.01C110.29.33,106.81,0,103.32,0h0Z"/>
      <text class="cls-2" transform="translate(74.73 127.84)"><tspan x="0" y="0">3</tspan></text>
    </g>
  </g>
</svg>