<?xml version="1.0" encoding="UTF-8"?>
<svg id="Layer_2" data-name="Layer 2" xmlns="http://www.w3.org/2000/svg" viewBox="0 0 241.68 327.87">
  <defs>
    <style>
      .cls-1 {
        fill: #d6af36;
      }

      .cls-2 {
        fill: #ff694e;
      }

      .cls-3 {
        fill: #7c6421;
        font-family: Rubik-Bold, Rubik;
        font-size: 85.79px;
        font-variation-settings: 'wght' 700;
        font-weight: 700;
      }

      .cls-4 {
        fill: #fee101;
      }
    </style>
  </defs>
  <g id="Layer_1-2" data-name="Layer 1">
    <g id="medal_gold">
      <polygon class="cls-2" points="178.68 327.87 117.71 291.26 56.75 327.87 56.75 151.73 178.68 151.73 178.68 327.87"/>
      <path class="cls-1" d="M233.54,143.14l-15.26,26.44-14.8,25.64c-10.84,18.78-30.89,30.36-52.59,30.36h-60.12c-21.69,0-41.75-11.58-52.59-30.36l-14.13-24.47-15.93-27.61c-4.6-7.97-7.26-16.73-7.95-25.6-.95-12.04,1.7-24.3,7.95-35.12l15.26-26.44,14.8-25.62C49.04,11.58,69.09,0,90.78,0h60.12C163.39,0,175.33,3.83,185.28,10.67c7.34,5.05,13.6,11.72,18.2,19.69l15.93,27.6,14.13,24.47c10.85,18.78,10.85,41.93,0,60.72Z"/>
      <path class="cls-4" d="M233.54,143.14l-15.26,26.44-96.98,55.99h-30.51c-21.69,0-41.75-11.58-52.59-30.36l-14.13-24.47L219.42,57.95l14.13,24.47c10.85,18.78,10.85,41.93,0,60.72Z"/>
      <path class="cls-4" d="M185.28,10.67L.19,117.54c-.95-12.04,1.7-24.3,7.95-35.12l15.26-26.44L120.37,0h30.53C163.39,0,175.33,3.83,185.28,10.67Z"/>
      <path class="cls-1" d="M150.9,20c8.27,0,16.24,2.47,23.05,7.15,5.05,3.47,9.16,7.91,12.21,13.2l15.93,27.6,14.13,24.47c7.25,12.56,7.25,28.15,0,40.71l-15.26,26.44-14.8,25.64c-7.25,12.56-20.76,20.36-35.26,20.36h-60.12c-14.51,0-28.02-7.8-35.27-20.36l-14.12-24.46-15.94-27.61c-3.02-5.23-4.87-11.16-5.33-17.17-.65-8.24,1.2-16.38,5.34-23.55l15.26-26.44,14.8-25.63c7.25-12.56,20.76-20.36,35.26-20.36h60.12M150.9,0h-60.12c-21.69,0-41.75,11.58-52.59,30.36l-14.8,25.62-15.26,26.44C1.89,93.24-.76,105.49.19,117.54c.69,8.87,3.35,17.64,7.95,25.6l15.93,27.61,14.13,24.47c10.84,18.78,30.89,30.36,52.59,30.36h60.12c21.69,0,41.74-11.58,52.58-30.36l14.8-25.64,15.26-26.44c10.85-18.78,10.85-41.93,0-60.72l-14.13-24.47-15.93-27.6c-4.6-7.97-10.86-14.64-18.2-19.69-9.95-6.84-21.89-10.67-34.38-10.67h0Z"/>
      <text class="cls-3" transform="translate(92.64 140.1)"><tspan x="0" y="0">1</tspan></text>
    </g>
  </g>
</svg>