<?xml version="1.0" encoding="UTF-8"?>
<svg id="Layer_2" data-name="Layer 2" xmlns="http://www.w3.org/2000/svg" viewBox="0 0 226.8 331.51">
  <defs>
    <style>
      .cls-1 {
        fill: #d7d7d7;
      }

      .cls-2 {
        fill: #a7a7ad;
      }

      .cls-3 {
        fill: #6a6a6d;
        font-family: Rubik-Bold, Rubik;
        font-size: 77px;
        font-variation-settings: 'wght' 700;
        font-weight: 700;
      }

      .cls-4 {
        fill: #bae639;
      }
    </style>
  </defs>
  <g id="Layer_1-2" data-name="Layer 1">
    <g id="medal_silver">
      <polygon class="cls-4" points="174.37 331.51 113.4 294.9 52.43 331.51 52.43 155.37 174.37 155.37 174.37 331.51"/>
      <path class="cls-2" d="M224.12,114.13l-15.93,49.04-6.56,20.19c-7.3,22.46-28.23,37.66-51.84,37.66h-72.79c-23.62,0-44.54-15.2-51.84-37.66l-3.86-11.89L4.85,120.83l-2.18-6.7c-3.88-11.92-3.44-24.45.69-35.65,3.63-9.91,10.14-18.78,19.11-25.29L81.36,10.41C96.55-.63,116.03-2.89,132.98,3.64c4.35,1.67,8.54,3.93,12.45,6.77l22.44,16.3,36.45,26.48c3.15,2.29,6,4.87,8.53,7.68,12.79,14.26,17.37,34.5,11.27,53.26Z"/>
      <path class="cls-1" d="M224.12,114.13l-15.93,49.04-100.2,57.85h-30.99c-23.62,0-44.54-15.2-51.84-37.66l-3.86-11.89L212.85,60.87c12.79,14.26,17.37,34.5,11.27,53.26Z"/>
      <path class="cls-1" d="M167.87,26.71L4.85,120.83l-2.18-6.7c-3.88-11.92-3.44-24.45.69-35.65L132.98,3.64c4.35,1.67,8.54,3.93,12.45,6.77l22.44,16.3Z"/>
      <path class="cls-2" d="M113.4,20c4.26,0,8.43.77,12.42,2.31,2.77,1.07,5.42,2.51,7.86,4.28l22.44,16.3,36.44,26.48c1.98,1.44,3.8,3.08,5.4,4.86,8.2,9.14,10.93,22.06,7.14,33.73l-15.93,49.04-6.56,20.19c-4.64,14.26-17.82,23.84-32.82,23.84h-72.79c-15,0-28.18-9.58-32.82-23.84l-3.86-11.89-16.45-50.65-2.18-6.7c-2.38-7.31-2.23-15.32.45-22.58,2.36-6.43,6.53-11.96,12.08-15.99l58.89-42.78c5.93-4.31,12.94-6.59,20.27-6.59h0M113.39,0c-11.24,0-22.48,3.47-32.03,10.41L22.47,53.19c-8.97,6.51-15.48,15.38-19.11,25.29-4.13,11.2-4.57,23.73-.69,35.65l2.18,6.7,16.45,50.64,3.86,11.89c7.3,22.46,28.22,37.66,51.84,37.66h72.79c23.61,0,44.54-15.2,51.84-37.66l6.56-20.19,15.93-49.04c6.1-18.76,1.52-39-11.27-53.26-2.53-2.81-5.38-5.39-8.53-7.68l-36.45-26.48-22.44-16.3c-3.91-2.84-8.1-5.1-12.45-6.77C126.69,1.21,120.04,0,113.39,0h0Z"/>
      <text class="cls-3" transform="translate(86.88 140.94)"><tspan x="0" y="0">2</tspan></text>
    </g>
  </g>
</svg>