<?xml version="1.0" encoding="UTF-8"?>
<svg id="Layer_2" data-name="Layer 2" xmlns="http://www.w3.org/2000/svg" viewBox="0 0 165.35 238.91">
  <defs>
    <style>
      .cls-1 {
        fill: none;
        stroke: #5f2641;
        stroke-miterlimit: 10;
        stroke-width: 10px;
      }
    </style>
  </defs>
  <g id="Layer_1-2" data-name="Layer 1">
    <g id="password">
      <rect class="cls-1" x="5" y="78.57" width="155.35" height="155.35" rx="30.59" ry="30.59"/>
      <path class="cls-1" d="M34.8,81.45v-35.05c0-22.86,21.43-41.39,47.87-41.39h0c26.44,0,47.87,18.53,47.87,41.39v35.05"/>
      <path class="cls-1" d="M105.82,146.46c.46,9.03-4.25,17.02-11.44,21.22v26.76c0,3.72-3.02,6.74-6.74,6.74h-9.93c-3.72,0-6.74-3.02-6.74-6.74v-26.76c-6.86-4.02-11.47-11.47-11.47-20,0-13.28,11.17-23.94,24.63-23.13,11.65.71,21.09,10.25,21.69,21.91Z"/>
    </g>
  </g>
</svg>