<?xml version="1.0" encoding="UTF-8"?>
<svg id="Layer_2" data-name="Layer 2" xmlns="http://www.w3.org/2000/svg" viewBox="0 0 235.52 161.89">
  <defs>
    <style>
      .cls-1 {
        fill: none;
        stroke: #5f2641;
        stroke-linecap: round;
        stroke-miterlimit: 10;
        stroke-width: 10px;
      }
    </style>
  </defs>
  <g id="Layer_1-2" data-name="Layer 1">
    <g id="password_hide">
      <g>
        <path class="cls-1" d="M80.95,15.85c11.59-4.45,23.96-7.22,36.81-7.22,47.52,0,88.53,37.89,107.55,58.81,6.95,7.65,6.95,19.35,0,27-7.99,8.79-19.87,20.58-34.48,31.29"/>
        <path class="cls-1" d="M44.68,36.15c-14.61,10.72-26.48,22.5-34.47,31.29-6.95,7.65-6.95,19.35,0,27,19.02,20.92,60.03,58.81,107.55,58.81,12.85,0,25.21-2.77,36.8-7.22"/>
        <path class="cls-1" d="M132.17,123.64c-4.53,1.52-9.37,2.35-14.41,2.35-24.88,0-45.05-20.17-45.05-45.05,0-5.04.83-9.88,2.36-14.4"/>
        <path class="cls-1" d="M103.35,38.25c4.53-1.53,9.37-2.36,14.41-2.36,24.88,0,45.05,20.17,45.05,45.05,0,5.04-.83,9.88-2.36,14.41"/>
      </g>
      <line class="cls-1" x1="41.82" y1="5" x2="193.7" y2="156.89"/>
    </g>
  </g>
</svg>