<?xml version="1.0" encoding="UTF-8"?>
<svg id="Layer_2" data-name="Layer 2" xmlns="http://www.w3.org/2000/svg" viewBox="0 0 285.08 258.67">
  <defs>
    <style>
      .cls-1 {
        fill: #ffb580;
      }
    </style>
  </defs>
  <g id="Layer_1-2" data-name="Layer 1">
    <path id="profile_on" class="cls-1" d="M142.54,0C63.82,0,0,63.81,0,142.54c0,47.91,23.64,90.29,59.88,116.13,11.24-36.14,44.95-62.39,84.8-62.39s71.97,25.02,83.97,59.85c34.29-26.03,56.43-67.22,56.43-113.59C285.08,63.81,221.26,0,142.54,0ZM144.68,177.21c-28.65,0-51.75-23.75-50.67-52.65.98-26.29,22.38-47.72,48.67-48.74,28.92-1.12,52.73,21.99,52.73,50.67s-22.71,50.72-50.72,50.72Z"/>
  </g>
</svg>