<?xml version="1.0" encoding="UTF-8"?>
<svg id="Layer_2" data-name="Layer 2" xmlns="http://www.w3.org/2000/svg" viewBox="0 0 186.3 178.7">
  <defs>
    <style>
      .cls-1 {
        fill: #ffd00d;
      }
    </style>
  </defs>
  <g id="Layer_1-2" data-name="Layer 1">
    <path id="star" class="cls-1" d="M106.59,7.77l17.67,30.67c3.25,5.64,8.75,9.63,15.11,10.98l34.63,7.33c11.69,2.47,16.31,16.68,8.3,25.56l-23.71,26.28c-4.36,4.83-6.46,11.29-5.77,17.77l3.73,35.19c1.26,11.88-10.83,20.66-21.74,15.79l-32.32-14.43c-5.94-2.65-12.74-2.65-18.68,0l-32.32,14.43c-10.91,4.87-23-3.91-21.74-15.79l3.73-35.19c.69-6.47-1.41-12.93-5.77-17.77l-23.71-26.28c-8-8.87-3.39-23.08,8.3-25.56l34.63-7.33c6.37-1.35,11.86-5.34,15.11-10.98l17.67-30.67c5.96-10.35,20.91-10.35,26.87,0Z"/>
  </g>
</svg>