<?xml version="1.0" encoding="UTF-8"?>
<svg id="Layer_2" data-name="Layer 2" xmlns="http://www.w3.org/2000/svg" viewBox="0 0 337.19 337.19">
  <defs>
    <style>
      .cls-1 {
        fill: none;
        stroke: #5f2641;
        stroke-miterlimit: 10;
        stroke-width: 20px;
      }
    </style>
  </defs>
  <g id="Layer_1-2" data-name="Layer 1">
    <g id="user">
      <g id="user-2" data-name="user">
        <path class="cls-1" d="M266.63,293.27c-26.98,21.25-61.04,33.92-98.04,33.92s-71.05-12.67-98.03-33.91c14.54-40.06,52.94-68.69,98.03-68.69s83.49,28.62,98.04,68.68Z"/>
        <path class="cls-1" d="M228.15,142.65c0,32.89-26.67,59.55-59.56,59.55s-59.55-26.66-59.55-59.55,26.66-59.56,59.55-59.56,59.56,26.66,59.56,59.56Z"/>
      </g>
      <path class="cls-1" d="M168.59,10C81,10,10,81.01,10,168.59c0,50.58,23.68,95.64,60.56,124.69,14.54-40.06,52.94-68.69,98.03-68.69s83.49,28.62,98.04,68.68c36.88-29.04,60.56-74.1,60.56-124.68,0-87.58-71.01-158.59-158.6-158.59ZM168.59,202.2c-32.89,0-59.55-26.66-59.55-59.55s26.66-59.56,59.55-59.56,59.56,26.66,59.56,59.56-26.67,59.55-59.56,59.55Z"/>
      <path class="cls-1" d="M109.04,142.65c0-32.9,26.66-59.56,59.55-59.56s59.56,26.66,59.56,59.56-26.67,59.55-59.56,59.55-59.55-26.66-59.55-59.55Z"/>
      <path class="cls-1" d="M266.63,293.27c-26.98,21.25-61.04,33.92-98.04,33.92s-71.05-12.67-98.03-33.91c14.54-40.06,52.94-68.69,98.03-68.69s83.49,28.62,98.04,68.68Z"/>
    </g>
  </g>
</svg>