<?xml version="1.0" encoding="UTF-8"?>
<svg id="Layer_2" data-name="Layer 2" xmlns="http://www.w3.org/2000/svg" xmlns:xlink="http://www.w3.org/1999/xlink" viewBox="0 0 1158.45 1303.61">
  <defs>
    <style>
      .cls-1 {
        fill: #ff981c;
      }

      .cls-2 {
        fill: #544954;
      }

      .cls-3 {
        fill: #fff;
      }

      .cls-4 {
        fill: #5f2641;
      }

      .cls-5 {
        stroke: #bae639;
      }

      .cls-5, .cls-6, .cls-7 {
        stroke-miterlimit: 10;
      }

      .cls-5, .cls-6, .cls-7, .cls-8 {
        fill: none;
        stroke-linecap: round;
        stroke-width: 20px;
      }

      .cls-6, .cls-8 {
        stroke: #5f2641;
      }

      .cls-7 {
        stroke: #2f222e;
      }

      .cls-9 {
        fill: #ffeee9;
      }

      .cls-8 {
        stroke-linejoin: round;
      }

      .cls-10 {
        fill: #a6c632;
        font-family: Rubik-Medium, Rubik;
        font-size: 60px;
        font-variation-settings: 'wght' 500;
        font-weight: 500;
        glyph-orientation-vertical: 0deg;
        text-orientation: upright;
        writing-mode: tb;
      }

      .cls-11 {
        fill: url(#linear-gradient);
      }

      .cls-12 {
        fill: #d2ff4f;
      }

      .cls-13 {
        fill: #fff3e5;
      }

      .cls-14 {
        fill: #2f222e;
      }
    </style>
    <linearGradient id="linear-gradient" x1="732.86" y1="1084.93" x2="954.34" y2="738.05" gradientUnits="userSpaceOnUse">
      <stop offset="0" stop-color="#ef7d00"/>
      <stop offset=".63" stop-color="#ff981c"/>
    </linearGradient>
  </defs>
  <g id="deri_matrix_matrices">
    <text id="_0101011101010001001_10111001010_1000101001010_0110101010_010101010001_01011010100100101_01010010100" data-name="0101011101010001001 10111001010 1000101001010 0110101010 010101010001 01011010100100101 01010010100" class="cls-10" transform="translate(1064.85 50.14)"><tspan x="0" y="0">0101011101010001</tspan><tspan x="-72" y="-40.04">10111001010</tspan><tspan x="-144" y="-50.14">100010010</tspan><tspan x="-216" y="-50.14">0110101010</tspan><tspan x="-288" y="-50.14">010101010001</tspan><tspan x="-360" y="-50.14">01011010100100101</tspan><tspan x="-432" y="-50.14">01010010100</tspan><tspan x="-504" y="-50.14">011101001</tspan><tspan x="-576" y="-50.14">01010101</tspan><tspan x="-648" y="-50.14">00011001´</tspan><tspan x="-720" y="-50.14">111101</tspan><tspan x="-792" y="-50.14">100100101001</tspan><tspan x="-864" y="-48.09">0110001010101</tspan><tspan x="-936" y="-24.24">010100011011</tspan><tspan x="-1008" y="40.41">10010101000101010</tspan></text>
    <g id="Deri">
      <g id="Tail">
        <path class="cls-11" d="M1053.82,636.6c-37.83,55.6-53.06,124.78-66.98,193.54-7.44,36.76-14.52,73.4-24.49,107.79-17.54,60.56-48.98,117.91-106.56,149.28-44.91,24.46-100.17,33.29-147.91,29.66-5.67-.43-27.75-4.69-20.49-15.38,57.87-85.29,63.58-201.38,91.47-301.33,11.36-37.79,27.46-74.04,51.78-103.6,14.9-18.13,32.9-33.75,54.8-45.68,44.9-24.46,100.17-33.29,147.91-29.66,6.05.46,27.67,4.83,20.49,15.38Z"/>
        <path class="cls-13" d="M1053.82,636.6c-37.83,55.6-53.06,124.78-66.98,193.54-73.63-11.43-133.72-64.01-156.21-133.59,14.9-18.13,32.9-33.75,54.8-45.68,44.9-24.46,100.17-33.29,147.91-29.66,6.05.46,27.67,4.83,20.49,15.38Z"/>
      </g>
      <g id="Left_Arm" data-name="Left Arm">
        <path class="cls-1" d="M448.87,873.76c-3.85,8-9.78,15.13-17.59,20.45l-143.61,97.95-14.89,10.15c-23.79,16.23-56.49,9.98-72.66-13.9-16.17-23.88-9.93-56.69,13.86-72.91l14.63-9.97,143.87-98.14c23.79-16.23,56.49-9.97,72.66,13.91,10.86,16.04,11.61,36.1,3.73,52.46Z"/>
        <path class="cls-14" d="M287.67,992.17l-14.89,10.15c-23.79,16.23-56.49,9.98-72.66-13.9-16.17-23.88-9.93-56.69,13.86-72.91l14.63-9.97c-6.08,39.76,19.89,77.9,59.06,86.64Z"/>
      </g>
      <g id="Right_Arm" data-name="Right Arm">
        <path class="cls-1" d="M715.81,908.6c8.86.04,17.84-2.18,26.04-6.89l150.73-86.5,15.63-8.97c24.97-14.33,33.73-46.56,19.45-71.62-14.28-25.06-46.4-33.84-71.37-19.51l-15.35,8.81-151.02,86.66c-24.97,14.33-33.72,46.56-19.44,71.62,9.59,16.83,27.22,26.32,45.33,26.39Z"/>
        <path class="cls-14" d="M892.58,815.21l15.63-8.97c24.97-14.33,33.73-46.56,19.45-71.62-14.28-25.06-46.4-33.84-71.37-19.51l-15.35,8.81c38.27,11.97,61.02,52.12,51.65,91.28Z"/>
      </g>
      <path id="Right_Foot" data-name="Right Foot" class="cls-14" d="M445.58,1170.29h22.88c30.87,0,55.94,25.06,55.94,55.94v1.91c0,19.21-15.6,34.81-34.81,34.81h-65.13c-19.21,0-34.81-15.6-34.81-34.81v-1.91c0-30.87,25.06-55.94,55.94-55.94Z"/>
      <path id="Left_Foot" data-name="Left Foot" class="cls-14" d="M650.42,1170.29h22.88c30.87,0,55.94,25.06,55.94,55.94v1.91c0,19.21-15.6,34.81-34.81,34.81h-65.13c-19.21,0-34.81-15.6-34.81-34.81v-1.91c0-30.87,25.06-55.94,55.94-55.94Z"/>
      <g id="Body">
        <path class="cls-1" d="M555.24,762.76h6.14c97.14,0,176.01,78.87,176.01,176.01v79.65c0,76.99-62.51,139.49-139.49,139.49h-79.18c-76.99,0-139.49-62.51-139.49-139.49v-79.65c0-97.14,78.87-176.01,176.01-176.01Z"/>
        <ellipse class="cls-13" cx="558.31" cy="931.47" rx="93.13" ry="158.66"/>
      </g>
    </g>
    <g id="Coat">
      <g id="Left_Arm-2" data-name="Left Arm">
        <path class="cls-14" d="M457.84,874.71c-4.73,9.6-11.98,17.83-20.97,23.82l-119.18,79.43c-3.41,2.28-7.63,3.07-11.66,2.19l-7.05-1.54-9.16-1.99c-34.1-7.43-56.67-39.77-51.37-73.64l1.4-8.99,1.07-6.85c.63-4.04,2.94-7.63,6.38-9.93l119.56-79.7c10.32-6.87,22.38-10.51,34.88-10.51,20.75,0,40.04,9.98,51.63,26.69,12.45,17.96,14.16,41.34,4.46,61.01Z"/>
      </g>
      <path class="cls-14" d="M882.9,810.95l-3.07,12.54c-1.48,6.04-5.44,11.21-10.93,14.29l-122.09,68.47c-9.36,5.25-20,8.02-30.77,8.02h-.26c-22.28-.1-42.95-11.86-53.94-30.71-17.04-29.23-6.67-66.61,23.14-83.33l122.48-68.68c5.54-3.11,12.15-3.81,18.24-1.95l12.28,3.75c33.35,10.2,53.09,44.29,44.93,77.59Z"/>
      <g id="Body-2" data-name="Body">
        <path class="cls-14" d="M514.57,850.33v252.64c0,30.35-25.08,54.95-56.03,54.95h-56.78c-17.32,0-31.37-13.77-31.37-30.76v-193.16c0-46.05,17.46-88.09,46.23-120.12,34.08-37.93,97.95-14.09,97.95,36.46Z"/>
        <path class="cls-14" d="M748.48,934v191.35c0,17.99-14.87,32.57-33.21,32.57h-54.18c-30.94,0-56.03-24.6-56.03-54.95v-251.8c0-50.61,64.17-74.57,98.02-36.37,28.28,31.91,45.4,73.59,45.4,119.19Z"/>
      </g>
    </g>
    <g id="Head">
      <g>
        <path class="cls-1" d="M843.39,421.6c-43.21,74.65-137.29,100.74-210.15,58.28-72.85-42.47-96.88-137.41-53.68-212.06,19.83-34.26,79.75-73.58,138.78-106.09,28.9-15.92,57.58-30.2,81.24-41.47,28.06-13.35,60.17,5.36,62.51,36.43,2,26.6,3.87,59.24,4.39,92.84,1.01,67.13-3.41,138.06-23.09,172.07Z"/>
        <path class="cls-14" d="M866.49,249.53c-13.15,5.91-27.73,9.2-43.07,9.2-55.27,0-100.61-42.69-105.07-97,28.9-15.92,57.58-30.2,81.24-41.47,28.06-13.35,60.17,5.36,62.51,36.43,2,26.6,3.87,59.24,4.39,92.84Z"/>
        <path class="cls-9" d="M804.79,397.74c-30.37,52.47-96.51,70.82-147.72,40.97-51.21-29.85-68.1-96.59-37.73-149.06,22.68-39.18,119.93-87.76,167.75-109.86,13.19-6.1,28.41,2.77,29.67,17.3,4.56,52.63,10.7,161.48-11.98,200.66Z"/>
      </g>
      <g>
        <path class="cls-1" d="M271.41,421.6c43.21,74.65,137.29,100.74,210.15,58.28,72.85-42.47,96.88-137.41,53.68-212.06-19.83-34.26-79.75-73.58-138.78-106.09-28.9-15.92-57.58-30.2-81.24-41.47-28.06-13.35-60.17,5.36-62.51,36.43-2,26.6-3.87,59.24-4.39,92.84-1.01,67.13,3.41,138.06,23.09,172.07Z"/>
        <path class="cls-14" d="M248.32,249.53c13.15,5.91,27.73,9.2,43.07,9.2,55.27,0,100.61-42.69,105.07-97-28.9-15.92-57.58-30.2-81.24-41.47-28.06-13.35-60.17,5.36-62.51,36.43-2,26.6-3.87,59.24-4.39,92.84Z"/>
        <path class="cls-9" d="M310.01,397.74c30.37,52.47,96.51,70.82,147.72,40.97,51.21-29.85,68.1-96.59,37.73-149.06-22.68-39.18-119.93-87.76-167.75-109.86-13.19-6.1-28.41,2.77-29.67,17.3-4.56,52.63-10.7,161.48,11.98,200.66Z"/>
      </g>
      <rect class="cls-1" x="302.83" y="235.5" width="513.22" height="602.08" rx="252.21" ry="252.21"/>
      <g>
        <rect class="cls-12" x="588.81" y="430.69" width="125.61" height="181.49" rx="61.73" ry="61.73"/>
        <rect class="cls-14" x="602.29" y="488.29" width="77.6" height="101.65" rx="38.14" ry="38.14"/>
        <ellipse class="cls-3" cx="663.51" cy="510.79" rx="22.42" ry="22.5"/>
      </g>
      <g>
        <rect class="cls-12" x="402.45" y="430.69" width="125.61" height="181.49" rx="61.73" ry="61.73"/>
        <rect class="cls-14" x="436.97" y="488.29" width="77.6" height="101.65" rx="38.14" ry="38.14" transform="translate(951.55 1078.24) rotate(180)"/>
        <ellipse class="cls-3" cx="453.35" cy="510.79" rx="22.42" ry="22.5"/>
      </g>
      <path class="cls-13" d="M831.52,525.7c22.5-3.13,41.79,16.08,38.77,38.68-20.61,154.1-153.03,273.94-311.99,273.94h0c-158.92,0-291.32-119.78-311.97-273.83-3.03-22.63,16.33-41.91,38.86-38.67,91.32,13.14,218.29,60.72,257.9,76.14,7.92,3.08,16.69,3.11,24.62.08,40.24-15.39,170.57-63.36,263.82-76.34Z"/>
      <ellipse class="cls-13" cx="498.78" cy="635.86" rx="59.52" ry="66.17"/>
      <ellipse class="cls-13" cx="617.83" cy="635.87" rx="59.52" ry="66.18"/>
      <path class="cls-7" d="M558.31,642.32c0,32.99-26.65,59.73-59.52,59.73"/>
      <path class="cls-7" d="M621.86,701.92c-1.33.09-2.67.13-4.03.13-32.87,0-59.52-26.74-59.52-59.73"/>
      <path class="cls-14" d="M579,631.94l8.86-11.13c13.79-17.33,1.45-42.92-20.69-42.92h-17.72c-22.15,0-34.48,25.59-20.69,42.92l8.86,11.13c10.59,13.3,30.79,13.3,41.38,0Z"/>
      <ellipse class="cls-4" cx="478.14" cy="615.79" rx="4.11" ry="4.12"/>
      <ellipse class="cls-4" cx="503.67" cy="631.22" rx="4.11" ry="4.12"/>
      <ellipse class="cls-4" cx="486.87" cy="655.93" rx="4.11" ry="4.12"/>
      <ellipse class="cls-4" cx="630.6" cy="616.3" rx="4.11" ry="4.12"/>
      <ellipse class="cls-4" cx="605.06" cy="631.74" rx="4.11" ry="4.12"/>
      <ellipse class="cls-4" cx="621.86" cy="656.44" rx="4.11" ry="4.12"/>
      <ellipse class="cls-1" cx="580.1" cy="257.8" rx="70.65" ry="31.27"/>
      <path class="cls-1" d="M509.45,257.8c10.22-13.9,31.63-31.27,70.65-31.27l-70.65,31.27Z"/>
      <path class="cls-6" d="M580.1,226.53c39.02,0,70.65,14,70.65,31.27s-31.63,31.27-70.65,31.27c-2.53,0-5.03-.06-7.5-.17"/>
      <ellipse class="cls-1" cx="572.6" cy="226.53" rx="70.72" ry="31.24" transform="translate(-36.35 318.04) rotate(-30.13)"/>
      <path class="cls-8" d="M399.39,386.01c2.09-2.04,14.85-14.07,38.16-15.72,27.75-1.96,46.11,12.5,47.83,13.9"/>
      <path class="cls-8" d="M717.46,381.92c-2.19-1.94-15.49-13.35-38.86-13.89-27.81-.64-45.47,14.68-47.12,16.15"/>
    </g>
    <g id="Glasses">
      <path class="cls-14" d="M536.68,536.53c0,32.2-36.84,58.3-82.29,58.3-13.51,0-26.25-2.31-37.5-6.4-8.01-2.9-15.26-6.72-21.47-11.25-4.42-3.21-8.31-6.78-11.59-10.65-5.56-6.54-9.35-13.92-10.91-21.81-.54-2.68-.81-5.41-.81-8.19,0-28.28,28.44-51.87,66.17-57.17,5.21-.74,10.6-1.12,16.11-1.12s11.21.41,16.55,1.18c6.3.91,12.34,2.33,18.03,4.21,8.18,2.67,15.63,6.28,22.09,10.63,15.78,10.62,25.62,25.63,25.62,42.27Z"/>
      <path class="cls-14" d="M741.74,536.53c0,32.2-36.84,58.3-82.29,58.3-12.54,0-24.43-1.99-35.07-5.55-8.15-2.72-15.57-6.36-21.99-10.73-4.51-3.09-8.53-6.53-11.97-10.27-5.73-6.24-9.82-13.3-11.83-20.89-.94-3.52-1.43-7.15-1.43-10.86,0-29.21,30.34-53.41,69.93-57.64,4.03-.43,8.16-.65,12.36-.65,6.67,0,13.16.56,19.38,1.63,6.19,1.05,12.1,2.6,17.65,4.59,8.04,2.88,15.32,6.65,21.57,11.15,14.65,10.52,23.69,24.98,23.69,40.92Z"/>
      <path class="cls-7" d="M530.47,537.56h0s10.59-8.74,27.45-8.74,25.45,8.74,25.45,8.74"/>
      <path class="cls-2" d="M470.94,479.42l-87.11,87.11c-5.56-6.54-9.35-13.92-10.91-21.81l65.36-65.36c5.21-.74,10.6-1.12,16.11-1.12s11.21.41,16.55,1.18Z"/>
      <path class="cls-2" d="M511.06,494.26l-94.17,94.17c-8.01-2.9-15.26-6.72-21.47-11.25l93.55-93.55c8.18,2.67,15.63,6.28,22.09,10.63Z"/>
      <path class="cls-2" d="M678.83,479.87l-88.41,88.41c-5.73-6.24-9.82-13.3-11.83-20.89l68.5-68.5c4.03-.43,8.16-.65,12.36-.65,6.67,0,13.16.56,19.38,1.63Z"/>
      <path class="cls-2" d="M718.05,495.61l-93.67,93.67c-8.15-2.72-15.57-6.36-21.99-10.73l94.09-94.09c8.04,2.88,15.32,6.65,21.57,11.15Z"/>
    </g>
    <g id="_3x3" data-name="3x3">
      <path class="cls-5" d="M805.66,609.91h48.68v96.81h-96.81v-48.68c0-26.58,21.55-48.14,48.14-48.14Z"/>
      <rect class="cls-5" x="854.33" y="609.91" width="96.81" height="96.81"/>
      <path class="cls-5" d="M951.15,609.91h48.68c26.58,0,48.14,21.55,48.14,48.14v48.68h-96.81v-96.81Z"/>
      <rect class="cls-5" x="757.52" y="706.72" width="96.81" height="96.81"/>
      <rect class="cls-5" x="854.33" y="706.72" width="96.81" height="96.81"/>
      <rect class="cls-5" x="951.15" y="706.72" width="96.81" height="96.81"/>
      <path class="cls-5" d="M757.52,803.54h96.81v96.81h-48.68c-26.58,0-48.14-21.55-48.14-48.14v-48.68Z"/>
      <rect class="cls-5" x="854.33" y="803.54" width="96.81" height="96.81"/>
      <path class="cls-5" d="M951.15,803.54h96.81v48.68c0,26.58-21.55,48.14-48.14,48.14h-48.68v-96.81Z"/>
    </g>
    <g id="_2x2" data-name="2x2">
      <path class="cls-5" d="M176.56,865.87h48.83v96.81h-96.81v-48.83c0-26.5,21.48-47.99,47.99-47.99Z"/>
      <path class="cls-5" d="M225.38,865.87h48.83c26.5,0,47.99,21.48,47.99,47.99v48.83h-96.81v-96.81Z"/>
      <path class="cls-5" d="M128.57,962.68h96.81v96.81h-48.83c-26.5,0-47.99-21.48-47.99-47.99v-48.83Z"/>
      <path class="cls-5" d="M225.38,962.68h96.81v48.68c0,26.58-21.55,48.14-48.14,48.14h-48.68v-96.81Z"/>
    </g>
  </g>
</svg>