<?xml version="1.0" encoding="UTF-8"?>
<svg id="Layer_2" data-name="Layer 2" xmlns="http://www.w3.org/2000/svg" viewBox="0 0 995.9 1209.35">
  <defs>
    <style>
      .cls-1 {
        fill: #ff981c;
      }

      .cls-2 {
        stroke: #7f480d;
        stroke-width: 30px;
      }

      .cls-2, .cls-3, .cls-4, .cls-5, .cls-6, .cls-7, .cls-8, .cls-9, .cls-10 {
        fill: none;
        stroke-linecap: round;
      }

      .cls-2, .cls-3, .cls-4, .cls-7, .cls-10 {
        stroke-miterlimit: 10;
      }

      .cls-11 {
        fill: #ff694e;
      }

      .cls-12 {
        fill: #ad5c14;
      }

      .cls-13 {
        fill: #fff;
      }

      .cls-14 {
        fill: #5f2641;
      }

      .cls-3, .cls-4, .cls-5, .cls-6, .cls-9 {
        stroke: #5f2641;
      }

      .cls-3, .cls-5 {
        stroke-width: 10px;
      }

      .cls-15 {
        fill: #87a629;
      }

      .cls-4, .cls-7, .cls-8, .cls-9 {
        stroke-width: 20px;
      }

      .cls-5, .cls-6, .cls-8, .cls-9 {
        stroke-linejoin: round;
      }

      .cls-16 {
        fill: #ff981c;
      }

      .cls-6 {
        stroke-width: 15.75px;
      }

      .cls-7, .cls-10 {
        stroke: #2f222e;
      }

      .cls-17 {
        fill: #6f8421;
      }

      .cls-8 {
        stroke: #ff694e;
      }

      .cls-18 {
        fill: #ffeee9;
      }

      .cls-19 {
        fill: #d2ff4f;
      }

      .cls-10 {
        stroke-width: 17.72px;
      }

      .cls-20 {
        fill: #fff3e5;
      }

      .cls-21 {
        fill: #2f222e;
      }
    </style>
  </defs>
  <g id="deri_archer_vectors">
    <g id="Right_Arm" data-name="Right Arm">
      <path class="cls-1" d="M659.38,850.15c4.82,7.47,11.59,13.81,20.02,18.14l155.02,79.59,16.07,8.25c25.68,13.19,57.48,2.97,70.67-22.72,13.19-25.68,2.96-57.49-22.72-70.67l-15.79-8.1-155.3-79.74c-25.68-13.19-57.48-2.96-70.67,22.72-8.86,17.25-7.15,37.25,2.7,52.52Z"/>
      <path class="cls-21" d="M834.42,947.87l16.07,8.25c25.68,13.19,57.48,2.97,70.67-22.72,13.19-25.68,2.96-57.49-22.72-70.67l-15.79-8.1c10.91,38.72-10.28,79.76-48.23,93.23Z"/>
    </g>
    <g id="Deri">
      <g id="Tail">
        <path class="cls-16" d="M2.66,692.81c51.35,43.54,84.43,106.19,116.14,168.78,16.95,33.46,33.52,66.91,52.28,97.41,33.04,53.72,78.67,100.65,142.7,115.57,49.94,11.63,105.75,5.43,150.98-10.77,5.37-1.93,25.61-11.91,15.75-20.28-78.61-66.84-114.93-177.25-168.42-266.2-21.02-33.42-46.2-64.08-77.57-86.11-19.23-13.51-40.79-23.78-65.13-29.46-49.94-11.64-105.75-5.44-150.98,10.77-5.74,2.05-25.49,12.02-15.75,20.28Z"/>
        <path class="cls-20" d="M2.66,692.81c51.35,43.54,84.43,106.19,116.14,168.78,68.22-30.61,112.42-97.3,115.72-170.38-19.23-13.51-40.79-23.78-65.13-29.46-49.94-11.64-105.75-5.44-150.98,10.77-5.74,2.05-25.49,12.02-15.75,20.28Z"/>
      </g>
      <g id="Body">
        <path class="cls-1" d="M596.25,714.17h7.41c97.14,0,176.01,78.87,176.01,176.01v58.01c0,88.93-72.2,161.14-161.14,161.14h-27.33c-94.36,0-170.96-76.61-170.96-170.96v-48.18c0-97.14,78.87-176.01,176.01-176.01Z"/>
        <ellipse class="cls-20" cx="674.1" cy="911.75" rx="93.46" ry="158.66"/>
      </g>
      <path id="Right_Foot" data-name="Right Foot" class="cls-21" d="M505.3,1116.69h23.36c30.87,0,55.94,25.06,55.94,55.94v1.91c0,19.21-15.6,34.81-34.81,34.81h-65.61c-19.21,0-34.81-15.6-34.81-34.81v-1.91c0-30.87,25.06-55.94,55.94-55.94Z"/>
      <path id="Left_Foot" data-name="Left Foot" class="cls-21" d="M666.55,1116.69h23.36c30.87,0,55.94,25.06,55.94,55.94v1.91c0,19.21-15.6,34.81-34.81,34.81h-65.61c-19.21,0-34.81-15.6-34.81-34.81v-1.91c0-30.87,25.06-55.94,55.94-55.94Z"/>
    </g>
    <g id="Head">
      <g>
        <path class="cls-1" d="M952.47,420.82c-50.14,70.27-146.58,87.44-215.41,38.34-68.83-49.11-83.97-145.88-33.84-216.17,23.02-32.26,86.56-65.79,148.57-92.62,30.36-13.14,60.35-24.68,85.04-33.67,29.28-10.66,59.61,10.97,59.05,42.13-.48,26.67-1.66,59.35-4.28,92.84-5.26,66.93-16.29,137.13-39.14,169.16Z"/>
        <path class="cls-21" d="M991.6,251.66c-13.69,4.65-28.56,6.56-43.89,5.13-55.23-5.18-96.54-51.93-95.92-106.42,30.36-13.14,60.35-24.68,85.04-33.67,29.28-10.66,59.61,10.97,59.05,42.13-.48,26.67-1.66,59.35-4.28,92.84Z"/>
        <path class="cls-18" d="M936.13,393.45c-35.25,49.4-103.04,61.46-151.42,26.95-48.38-34.52-59.03-102.55-23.78-151.95,26.32-36.89,128.03-76.14,177.87-93.67,13.75-4.83,28.13,5.42,28.03,20-.35,52.83-4.38,161.78-30.7,198.66Z"/>
      </g>
      <rect class="cls-1" x="405.1" y="192.32" width="504.43" height="602.08" rx="252.21" ry="252.21" transform="translate(96.36 -107.31) rotate(10.07)"/>
      <g>
        <path class="cls-15" d="M606.53,81.03h115.8c66.18,0,119.92,53.73,119.92,119.92h0c0,16.35-13.28,29.63-29.63,29.63h-154.47c-44.84,0-81.24-36.4-81.24-81.24v-38.67c0-16.35,13.28-29.63,29.63-29.63Z" transform="translate(56.88 -163.2) rotate(13.66)"/>
        <path class="cls-11" d="M603.15,77.57c12.64,35.35,9.26,71.49,5.38,92.35-1.62,8.77-12.1,12.52-18.92,6.76-16.23-13.67-41.76-39.48-54.4-74.82-.17-.47-.33-.94-.5-1.42-.27-.77-.07-1.63.5-2.21l12.5-12.87c1.47-1.52.13-4.03-1.95-3.65l-13.44,2.46c-1.16.21-2.28-.54-2.52-1.69-5.97-28.67-3.14-55.92.04-72.96,1.62-8.77,12.1-12.52,18.92-6.76,16.23,13.67,41.76,39.48,54.39,74.82Z"/>
        <line class="cls-3" x1="593.06" y1="156.5" x2="545.31" y2="22.93"/>
        <path class="cls-17" d="M562.48,172.37h252.82c23.65,0,42.85,19.2,42.85,42.85h0c0,8.83-7.17,16-16,16h-268.1c-15.21,0-27.57-12.35-27.57-27.57v-15.28c0-8.83,7.17-16,16-16Z" transform="translate(67.54 -160.18) rotate(13.66)"/>
      </g>
      <g>
        <path class="cls-1" d="M564.31,438.38c-50.58,23.36-107.58,16.22-150.94-13.79-22.45-15.53-41.24-37.2-53.59-63.93-16.49-35.71-14.28-106.74-7.01-173.48,3.65-33.4,8.57-65.73,13.06-92.02,5.24-30.72,39.06-46.34,65.85-30.42,22.6,13.43,49.91,30.34,77.3,48.9,39.48,26.74,79.07,56.9,104.8,84.97,10.74,11.72,19.07,23.07,23.96,33.66,36.2,78.38,3.33,170.65-73.43,206.11Z"/>
        <path class="cls-21" d="M352.77,187.17c12.59,7.12,26.84,11.76,42.17,13.2,55.23,5.18,104.51-33.08,114.04-86.73-27.39-18.56-54.71-35.47-77.3-48.9-26.79-15.92-60.61-.3-65.86,30.41-4.48,26.3-9.4,58.62-13.05,92.02Z"/>
        <path class="cls-18" d="M400.57,340.52c25.45,55.09,89.81,79.55,143.77,54.63,53.95-24.92,77.06-89.78,51.62-144.88-19-41.14-111.64-98.62-157.35-125.1-12.61-7.31-28.65.1-31.26,14.44-9.47,51.98-25.77,159.77-6.77,200.91Z"/>
      </g>
      <path class="cls-1" d="M564.31,438.38c-50.58,23.36-107.58,16.22-150.94-13.79l4.15-23.39c1.67-9.38,3.84-18.55,6.48-27.48,21.7-73.3,75.23-130.86,142.3-159.91,15.2-6.58,31.1-11.7,47.48-15.2,10.74,11.72,19.07,23.07,23.96,33.66,36.2,78.38,3.33,170.65-73.43,206.11Z"/>
      <g>
        <rect class="cls-19" x="538.56" y="413.09" width="181.49" height="123.46" rx="61.73" ry="61.73" transform="translate(97.81 1057.05) rotate(-84.64)"/>
        <rect class="cls-21" x="604.82" y="455.25" width="77.88" height="101.65" rx="38.14" ry="38.14" transform="translate(1237.46 1070.05) rotate(-174.64)"/>
        <circle class="cls-13" cx="624.01" cy="475.77" r="22.5"/>
      </g>
      <path class="cls-20" d="M901.79,529.98c22.02-1.38,38.85,19.97,33.8,42.42-34.44,153.15-163.64,235.07-275.71,226.93h0c-153.51-14.39-267.67-128.2-250.61-291.41,2.4-22.93,19.73-40.68,41.18-35.38,86.96,21.49,203.72,70.76,240.53,89.86,7.36,3.82,15.82,4.64,23.77,2.31,40.32-11.83,116.83-30.32,187.04-34.73Z"/>
      <g>
        <path class="cls-11" d="M583.97,622.93h60.59v53.75c0,16.72-13.57,30.29-30.29,30.29h0c-16.72,0-30.29-13.57-30.29-30.29v-53.75h0Z" transform="translate(519.09 -235.28) rotate(36.7)"/>
        <line class="cls-3" x1="639.37" y1="631.26" x2="610.4" y2="670.13"/>
      </g>
      <g>
        <ellipse class="cls-20" cx="657.91" cy="588.8" rx="66.17" ry="59.73" transform="translate(10.26 1188.86) rotate(-84.64)"/>
        <circle class="cls-14" cx="639.16" cy="566.88" r="4.12"/>
        <circle class="cls-14" cx="663.23" cy="584.64" r="4.12"/>
        <circle class="cls-14" cx="644.14" cy="607.66" r="4.12"/>
      </g>
      <g>
        <ellipse class="cls-20" cx="777.81" cy="589.84" rx="56.01" ry="50.55" transform="translate(117.93 1309.18) rotate(-84.64)"/>
        <circle class="cls-14" cx="790.15" cy="574.36" r="3.49"/>
        <circle class="cls-14" cx="767.34" cy="585.34" r="3.49"/>
        <circle class="cls-14" cx="779.59" cy="607.49" r="3.49"/>
      </g>
      <g>
        <path class="cls-7" d="M716.78,600.81c-3.08,32.85-32.2,56.98-65.05,53.9-32.85-3.08-56.98-32.2-53.9-65.05"/>
        <path class="cls-10" d="M829.04,610.33c-2.73,29.1-28.53,50.48-57.63,47.75-29.1-2.73-50.48-28.53-47.75-57.63"/>
        <path class="cls-21" d="M738.31,592.53l9.97-10.34c15.39-15.95,5.51-42.62-16.56-44.69l-17.85-1.67c-22.07-2.07-36.74,22.3-24.58,40.84l7.88,12.01c9.3,14.18,29.37,16.06,41.14,3.86Z"/>
      </g>
      <g>
        <ellipse class="cls-1" cx="733.6" cy="255.34" rx="31.27" ry="70.9" transform="translate(119.09 730.46) rotate(-56.9)"/>
        <path class="cls-4" d="M750.67,229.14c32.81,21.38,51.75,50.45,42.32,64.92s-43.67,8.86-76.48-12.52c-2.13-1.39-4.2-2.81-6.21-4.26"/>
        <ellipse class="cls-1" cx="744.37" cy="225.03" rx="31.27" ry="70.9" transform="translate(479.43 956.15) rotate(-86.9)"/>
      </g>
      <path class="cls-9" d="M578.87,351.58c2.11-2.03,15.01-13.95,38.42-15.41,27.86-1.74,46.17,12.87,47.89,14.28"/>
      <path class="cls-9" d="M861.94,375.92c-1.76-2.34-12.57-16.18-35.44-21.39-27.22-6.2-47.64,5.27-49.56,6.39"/>
      <path class="cls-6" d="M826.73,502.56c-2.11-2.11-15.01-14.53-38.84-16.5-28.36-2.35-47.33,12.16-49.1,13.56"/>
    </g>
    <g id="Bow">
      <path class="cls-5" d="M837.1,734.68l-222.96,52.22c-18.65,4.37-26.67,26.45-15.17,41.76l137.13,182.71"/>
      <path class="cls-2" d="M735.77,1012.31c76.67,27.98,161.5-11.48,189.48-88.15,27.98-76.67-11.48-161.5-88.15-189.48"/>
      <path class="cls-12" d="M890.06,978.93h0c-5.51-11.25-6.45-22.88-2.58-26.55,16.77-18.71,24.4-36.82,25.96-62.03-.1-5.33,8.84-12.83,20.72-16.8h0c8.37-3.24,22.13-2.38,22.86,9.22-1.12,41.42-15.63,76.09-44.34,105.96-8.78,7.63-19.05-1.57-22.61-9.81Z"/>
    </g>
    <g id="arrow">
      <line class="cls-8" x1="621.73" y1="810.32" x2="979.97" y2="952.53"/>
      <polyline class="cls-8" points="959.68 913.84 979.97 952.53 939.18 968.19"/>
    </g>
    <g id="Left_Arm" data-name="Left Arm">
      <path class="cls-1" d="M414.73,655.77c8.89-.18,17.93,1.89,26.23,6.47l152.63,84.08,15.82,8.71c25.29,13.93,34.58,46.01,20.65,71.3-13.93,25.29-46.02,34.58-71.3,20.65l-15.54-8.56-152.91-84.23c-25.29-13.93-34.58-46.01-20.65-71.3,9.36-16.98,26.9-26.75,45.07-27.11Z"/>
      <path class="cls-21" d="M593.59,746.32l15.82,8.71c25.29,13.93,34.58,46.01,20.65,71.3-13.93,25.29-46.02,34.58-71.3,20.65l-15.54-8.56c38.21-12.58,60.4-53.09,50.37-92.1Z"/>
    </g>
  </g>
</svg>