<?xml version="1.0" encoding="UTF-8"?>
<svg id="Layer_2" data-name="Layer 2" xmlns="http://www.w3.org/2000/svg" viewBox="0 0 985.84 927.78">
  <defs>
    <style>
      .cls-1 {
        fill: #fffdfa;
      }

      .cls-2 {
        fill: none;
        stroke: #7f480d;
        stroke-linecap: round;
        stroke-miterlimit: 10;
        stroke-width: 65.31px;
      }

      .cls-3 {
        fill: #2f222e;
      }
    </style>
  </defs>
  <g id="deri_runner_limits_prop">
    <g>
      <path class="cls-3" d="M938,293.53c-21.33,1.56-41.92,1.15-63.17-1.36-10.28,32.62-20.56,65.24-30.84,97.86,37.98,4.43,73.89,1.69,111.01-7.36,5.97-18.95,11.94-37.89,17.91-56.84,8.52-24.04-14.85-34.56-34.91-32.3Z"/>
      <path class="cls-1" d="M874.83,292.17c-34.76-5.67-66.95-16.43-98.87-31.16-10.28,32.62-20.56,65.24-30.84,97.86,31.93,14.73,64.11,25.49,98.87,31.16,10.28-32.62,20.56-65.24,30.84-97.86Z"/>
      <path class="cls-3" d="M775.95,261.01c-31.95-15.83-62.01-34.41-91.59-54.27-10.28,32.62-20.56,65.24-30.84,97.86,29.58,19.86,59.64,38.44,91.59,54.27,10.28-32.62,20.56-65.24,30.84-97.86Z"/>
      <path class="cls-1" d="M684.36,206.74c-29.89-20.42-59.27-41.56-89.16-61.97-10.28,32.62-20.56,65.24-30.84,97.86,29.89,20.42,59.27,41.56,89.16,61.97,10.28-32.62,20.56-65.24,30.84-97.86Z"/>
      <path class="cls-3" d="M595.2,144.77c-29.58-19.85-59.64-38.44-91.59-54.27-10.28,32.62-20.56,65.24-30.84,97.86,31.95,15.83,62.01,34.41,91.59,54.27,10.28-32.62,20.56-65.24,30.84-97.86Z"/>
      <path class="cls-1" d="M503.61,90.5c-31.95-14.74-64.12-25.49-98.87-31.16-10.28,32.62-20.56,65.24-30.84,97.86,34.76,5.67,66.93,16.42,98.87,31.16,10.28-32.62,20.56-65.24,30.84-97.86Z"/>
      <path class="cls-3" d="M404.74,59.34c-21.24-2.5-41.82-2.92-63.17-1.36-25.65,3.05-53.11,24.64-60.77,49.74-5.97,18.95-11.94,37.89-17.91,56.84,37.12-9.05,73.04-11.79,111.01-7.36,10.28-32.62,20.56-65.24,30.84-97.86Z"/>
      <path class="cls-1" d="M955,382.67c-37.12,9.05-73.03,11.79-111.01,7.36-10.28,32.62-20.56,65.24-30.84,97.86,37.98,4.43,73.89,1.69,111.01-7.36,10.28-32.62,20.56-65.24,30.84-97.86Z"/>
      <path class="cls-3" d="M843.99,390.03c-34.76-5.67-66.95-16.43-98.87-31.16-10.28,32.62-20.56,65.24-30.84,97.86,31.93,14.73,64.11,25.49,98.87,31.16,10.28-32.62,20.56-65.24,30.84-97.86Z"/>
      <path class="cls-1" d="M745.11,358.87c-31.95-15.83-62.01-34.41-91.59-54.27-10.28,32.62-20.56,65.24-30.84,97.86,29.58,19.86,59.64,38.44,91.59,54.27,10.28-32.62,20.56-65.24,30.84-97.86Z"/>
      <path class="cls-3" d="M653.52,304.6c-29.89-20.42-59.27-41.56-89.16-61.97-10.28,32.62-20.56,65.24-30.84,97.86,29.89,20.42,59.27,41.56,89.16,61.97,10.28-32.62,20.56-65.24,30.84-97.86Z"/>
      <path class="cls-1" d="M564.36,242.63c-29.58-19.85-59.64-38.44-91.59-54.27-10.28,32.62-20.56,65.24-30.84,97.86,31.95,15.83,62.01,34.41,91.59,54.27,10.28-32.62,20.56-65.24,30.84-97.86Z"/>
      <path class="cls-3" d="M472.77,188.36c-31.95-14.74-64.12-25.49-98.87-31.16-10.28,32.62-20.56,65.24-30.84,97.86,34.76,5.67,66.93,16.42,98.87,31.16,10.28-32.62,20.56-65.24,30.84-97.86Z"/>
      <path class="cls-1" d="M373.9,157.21c-37.97-4.43-73.89-1.69-111.01,7.36-10.28,32.62-20.56,65.24-30.84,97.86,37.12-9.05,73.04-11.79,111.01-7.36,10.28-32.62,20.56-65.24,30.84-97.86Z"/>
      <path class="cls-3" d="M924.16,480.53c-37.12,9.05-73.03,11.79-111.01,7.36-10.28,32.62-20.56,65.24-30.84,97.86,37.98,4.43,73.89,1.69,111.01-7.36,10.28-32.62,20.56-65.24,30.84-97.86Z"/>
      <path class="cls-1" d="M813.15,487.89c-34.76-5.67-66.95-16.43-98.87-31.16-10.28,32.62-20.56,65.24-30.84,97.86,31.93,14.73,64.11,25.49,98.87,31.16,10.28-32.62,20.56-65.24,30.84-97.86Z"/>
      <path class="cls-3" d="M714.27,456.73c-31.95-15.83-62.01-34.41-91.59-54.27-10.28,32.62-20.56,65.24-30.84,97.86,29.58,19.86,59.64,38.44,91.59,54.27,10.28-32.62,20.56-65.24,30.84-97.86Z"/>
      <path class="cls-1" d="M622.68,402.47c-29.89-20.42-59.27-41.56-89.16-61.97-10.28,32.62-20.56,65.24-30.84,97.86,29.89,20.42,59.27,41.56,89.16,61.97,10.28-32.62,20.56-65.24,30.84-97.86Z"/>
      <path class="cls-3" d="M533.52,340.49c-29.58-19.85-59.64-38.44-91.59-54.27-10.28,32.62-20.56,65.24-30.84,97.86,31.95,15.83,62.01,34.41,91.59,54.27,10.28-32.62,20.56-65.24,30.84-97.86Z"/>
      <path class="cls-1" d="M441.93,286.23c-31.95-14.74-64.12-25.49-98.87-31.16-10.28,32.62-20.56,65.24-30.84,97.86,34.76,5.67,66.93,16.42,98.87,31.16,10.28-32.62,20.56-65.24,30.84-97.86Z"/>
      <path class="cls-3" d="M343.06,255.07c-37.97-4.43-73.89-1.69-111.01,7.36l-30.84,97.86c37.12-9.05,73.04-11.79,111.01-7.36,10.28-32.62,20.56-65.24,30.84-97.86Z"/>
      <path class="cls-1" d="M893.32,578.4c-37.12,9.05-73.03,11.79-111.01,7.36-10.28,32.62-20.56,65.24-30.84,97.86,37.98,4.43,73.89,1.69,111.01-7.36,10.28-32.62,20.56-65.24,30.84-97.86Z"/>
      <path class="cls-3" d="M782.31,585.75c-34.76-5.67-66.95-16.43-98.87-31.16-10.28,32.62-20.56,65.24-30.84,97.86,31.93,14.73,64.11,25.49,98.87,31.16,10.28-32.62,20.56-65.24,30.84-97.86Z"/>
      <path class="cls-1" d="M683.43,554.6c-31.95-15.83-62.01-34.41-91.59-54.27-10.28,32.62-20.56,65.24-30.84,97.86,29.58,19.86,59.64,38.44,91.59,54.27,10.28-32.62,20.56-65.24,30.84-97.86Z"/>
      <path class="cls-3" d="M591.84,500.33c-29.89-20.42-59.27-41.56-89.16-61.97-10.28,32.62-20.56,65.24-30.84,97.86,29.89,20.42,59.27,41.56,89.16,61.97,10.28-32.62,20.56-65.24,30.84-97.86Z"/>
      <path class="cls-1" d="M502.68,438.36c-29.58-19.85-59.64-38.44-91.59-54.27-10.28,32.62-20.56,65.24-30.84,97.86,31.95,15.83,62.01,34.41,91.59,54.27,10.28-32.62,20.56-65.24,30.84-97.86Z"/>
      <path class="cls-3" d="M411.09,384.09c-31.95-14.74-64.12-25.49-98.87-31.16-10.28,32.62-20.56,65.24-30.84,97.86,34.76,5.67,66.93,16.42,98.87,31.16,10.28-32.62,20.56-65.24,30.84-97.86Z"/>
      <path class="cls-1" d="M312.22,352.93c-37.97-4.43-73.89-1.69-111.01,7.36-10.28,32.62-20.56,65.24-30.84,97.86,37.12-9.05,73.04-11.79,111.01-7.36,10.28-32.62,20.56-65.24,30.84-97.86Z"/>
      <path class="cls-3" d="M862.48,676.26c-37.12,9.05-73.03,11.79-111.01,7.36-10.28,32.62-20.56,65.24-30.84,97.86,21.25,2.5,41.84,2.92,63.17,1.36,26.22-2.15,52.46-25.44,60.77-49.74,5.97-18.95,11.94-37.89,17.91-56.84Z"/>
      <path class="cls-1" d="M751.47,683.62c-34.76-5.67-66.95-16.43-98.87-31.16-10.28,32.62-20.56,65.24-30.84,97.86,31.93,14.73,64.11,25.49,98.87,31.16,10.28-32.62,20.56-65.24,30.84-97.86Z"/>
      <path class="cls-3" d="M652.59,652.46c-31.95-15.83-62.01-34.41-91.59-54.27-10.28,32.62-20.56,65.24-30.84,97.86,29.58,19.86,59.64,38.44,91.59,54.27,10.28-32.62,20.56-65.24,30.84-97.86Z"/>
      <path class="cls-1" d="M561,598.19c-29.89-20.42-59.27-41.56-89.16-61.97-10.28,32.62-20.56,65.24-30.84,97.86,29.89,20.42,59.27,41.56,89.16,61.97,10.28-32.62,20.56-65.24,30.84-97.86Z"/>
      <path class="cls-3" d="M471.84,536.22c-29.58-19.85-59.64-38.44-91.59-54.27-10.28,32.62-20.56,65.24-30.84,97.86,31.95,15.83,62.01,34.41,91.59,54.27,10.28-32.62,20.56-65.24,30.84-97.86Z"/>
      <path class="cls-1" d="M380.25,481.95c-31.95-14.74-64.12-25.49-98.87-31.16-10.28,32.62-20.56,65.24-30.84,97.86,34.76,5.67,66.93,16.42,98.87,31.16,10.28-32.62,20.56-65.24,30.84-97.86Z"/>
      <path class="cls-3" d="M281.38,450.79c-37.97-4.43-73.89-1.69-111.01,7.36-5.97,18.95-11.94,37.89-17.91,56.84-8.52,24.04,14.85,34.56,34.91,32.3,21.35-1.57,41.93-1.15,63.17,1.36,10.28-32.62,20.56-65.24,30.84-97.86Z"/>
    </g>
    <line class="cls-2" x1="307.2" y1="32.65" x2="32.65" y2="895.13"/>
  </g>
</svg>