<?xml version="1.0" encoding="UTF-8"?>
<svg id="Layer_2" data-name="Layer 2" xmlns="http://www.w3.org/2000/svg" xmlns:xlink="http://www.w3.org/1999/xlink" viewBox="0 0 1144.52 1203.98">
  <defs>
    <style>
      .cls-1 {
        fill: #ff981c;
      }

      .cls-2 {
        fill: #45b4ce;
      }

      .cls-3 {
        fill: #edeceb;
      }

      .cls-4 {
        fill: #ff694e;
      }

      .cls-5 {
        fill: #fff;
      }

      .cls-6 {
        fill: #5f2641;
      }

      .cls-7 {
        fill: #fffdfa;
      }

      .cls-8, .cls-9 {
        stroke-miterlimit: 10;
      }

      .cls-8, .cls-9, .cls-10 {
        fill: none;
        stroke-linecap: round;
        stroke-width: 20px;
      }

      .cls-8, .cls-10 {
        stroke: #5f2641;
      }

      .cls-9 {
        stroke: #2f222e;
      }

      .cls-11 {
        fill: #ffeee9;
      }

      .cls-10 {
        stroke-linejoin: round;
      }

      .cls-12 {
        fill: #ffd00d;
      }

      .cls-13 {
        fill: url(#linear-gradient);
      }

      .cls-14 {
        fill: #d2ff4f;
      }

      .cls-15 {
        fill: #fff3e5;
      }

      .cls-16 {
        fill: #2f222e;
      }
    </style>
    <linearGradient id="linear-gradient" x1="747.76" y1="1026.21" x2="969.5" y2="678.94" gradientUnits="userSpaceOnUse">
      <stop offset="0" stop-color="#ef7d00"/>
      <stop offset=".63" stop-color="#ff981c"/>
    </linearGradient>
  </defs>
  <g id="deri_cow_integrals">
    <g id="Deri">
      <g id="Tail">
        <path class="cls-13" d="M1069.54,577.63c-37.97,55.6-53.24,124.78-67.22,193.54-7.47,36.76-14.58,73.4-24.58,107.79-17.61,60.56-49.15,117.91-106.94,149.28-45.07,24.46-100.52,33.29-148.43,29.66-5.69-.43-27.85-4.69-20.56-15.38,58.07-85.29,63.8-201.38,91.79-301.33,11.4-37.79,27.55-74.04,51.96-103.6,14.96-18.13,33.02-33.75,54.99-45.68,45.06-24.46,100.52-33.29,148.43-29.66,6.08.46,27.76,4.83,20.56,15.38Z"/>
        <path class="cls-15" d="M1069.54,577.63c-37.97,55.6-53.24,124.78-67.22,193.54-73.89-11.43-134.2-64.01-156.76-133.59,14.96-18.13,33.02-33.75,54.99-45.68,45.06-24.46,100.52-33.29,148.43-29.66,6.08.46,27.76,4.83,20.56,15.38Z"/>
      </g>
      <g>
        <g id="Left_Arm" data-name="Left Arm">
          <path class="cls-16" d="M466.86,785.09c-.52,5.85-2.04,11.69-4.65,17.3-8.17,17.59-25.01,28.52-43.11,30.12-8.86.78-18.02-.67-26.62-4.67l-5.08-2.36-2.43-1.14-124.5-57.9-25.98-12.09-16.38-7.62c-26.18-12.18-37.63-43.55-25.46-69.73,12.18-26.18,43.56-37.63,69.73-25.45l16.09,7.49,36.74,17.09,121.55,56.53c3.08,1.43,5.96,3.13,8.62,5.07,15.09,10.92,23.14,29.14,21.48,47.36Z"/>
        </g>
        <circle class="cls-11" cx="236.76" cy="699.96" r="61.11"/>
      </g>
      <g>
        <g id="Right_Arm" data-name="Right Arm">
          <path class="cls-16" d="M843.31,1015.02c-4.73,2.73-9.72,4.64-14.8,5.76-21.77,4.81-45.2-4.71-56.9-24.98l-9.03-15.65-1.93-3.34-76.49-132.47-8.71-15.09c-4.74-8.21-6.99-17.21-6.99-26.1,0-4.18.5-8.35,1.48-12.39,3.24-13.53,11.79-25.75,24.72-33.21,4.54-2.62,9.31-4.48,14.18-5.62,12.78-2.99,26.17-1.02,37.46,5.19,5.59,3.07,10.66,7.18,14.89,12.23,1.91,2.28,3.64,4.75,5.17,7.41l46.4,80.36,40.89,70.83,8.87,15.37c14.43,24.99,5.79,57.26-19.21,71.7Z"/>
        </g>
        <circle class="cls-11" cx="818.46" cy="972.28" r="61.11"/>
      </g>
      <path id="Right_Foot" data-name="Right Foot" class="cls-16" d="M458.94,1111.32h23.36c30.87,0,55.94,25.06,55.94,55.94v1.91c0,19.21-15.6,34.81-34.81,34.81h-65.61c-19.21,0-34.81-15.6-34.81-34.81v-1.91c0-30.87,25.06-55.94,55.94-55.94Z"/>
      <path id="Left_Foot" data-name="Left Foot" class="cls-16" d="M664.51,1111.32h23.36c30.87,0,55.94,25.06,55.94,55.94v1.91c0,19.21-15.6,34.81-34.81,34.81h-65.61c-19.21,0-34.81-15.6-34.81-34.81v-1.91c0-30.87,25.06-55.94,55.94-55.94Z"/>
      <g id="Body">
        <path class="cls-7" d="M758.74,879.81v79.65c0,5.31-.28,10.55-.82,15.71-.99,9.45-2.87,18.64-5.55,27.49-14.7,48.61-53.54,86.84-102.51,100.68-10.33,2.93-21.12,4.76-32.22,5.38-2.78.15-5.58.23-8.4.23h-80.44c-41.2,0-78.57-16.76-105.64-43.81-27.08-27.07-43.86-64.45-43.86-105.68v-79.65c0-18.89,2.83-37.14,8.1-54.33,6.83-22.36,17.78-42.94,31.96-60.86,7.75-9.81,16.47-18.82,26.02-26.89,10.98-9.28,23.04-17.31,35.98-23.88,18.78-9.55,39.4-15.99,61.17-18.66,7.47-.92,15.08-1.39,22.79-1.39h7.4c10.5,0,20.8.87,30.82,2.55,20.14,3.37,39.19,9.99,56.6,19.3,17.08,9.13,32.58,20.86,45.97,34.64,5.38,5.53,10.41,11.4,15.06,17.56,3.14,4.15,6.11,8.43,8.89,12.83,15,23.72,24.79,51.04,27.74,80.34.52,5.18.83,10.43.92,15.73.01,1.02.02,2.04.02,3.06Z"/>
        <ellipse class="cls-11" cx="569.02" cy="899.78" rx="118.65" ry="186.66"/>
      </g>
    </g>
    <g id="Suit">
      <path class="cls-16" d="M758.74,823.71v55.63c0,3.71-.28,7.37-.82,10.97-.99,6.6-2.87,13.02-5.55,19.2-14.7,33.95-53.54,60.65-102.51,70.32-10.33,2.05-21.12,3.32-32.22,3.76-2.78.1-5.58.16-8.4.16h-80.44c-41.2,0-78.57-11.71-105.64-30.6-27.08-18.91-43.86-45.01-43.86-73.81v-55.63c0-13.19,2.83-25.94,8.1-37.94,6.83-15.62,17.78-29.99,31.96-42.51,7.75-6.85,16.47-13.14,26.02-18.78,10.98-6.48,23.04-12.09,35.98-16.68,18.78-6.67,39.4-11.17,61.17-13.03,7.47-.64,15.08-.97,22.79-.97h7.4c10.5,0,20.8.61,30.82,1.78,20.14,2.35,39.19,6.98,56.6,13.48,17.08,6.38,32.58,14.57,45.97,24.19,5.38,3.86,10.41,7.96,15.06,12.26,3.14,2.9,6.11,5.89,8.89,8.96,15,16.57,24.79,35.65,27.74,56.11.52,3.62.83,7.28.92,10.99.01.71.02,1.42.02,2.14Z"/>
      <path class="cls-3" d="M645.63,762.8l-29.95,53.03-19.63,33.27-11.32,19.18c-7.06,11.96-24.36,11.96-31.42,0l-11.32-19.18-19.63-33.27-29.95-53.03c-6.83-12.1,1.82-27.08,15.71-27.21l60.9-.58,60.9.58c13.89.13,22.54,15.11,15.71,27.21Z"/>
      <path class="cls-3" d="M492.41,1000.74l29.95-53.03,19.63-33.27,11.32-19.18c7.06-11.96,24.36-11.96,31.42,0l11.32,19.18,19.63,33.27,29.95,53.03c6.83,12.1-1.82,27.08-15.71,27.21l-60.9.58-60.9-.58c-13.89-.13-22.54-15.11-15.71-27.21Z"/>
      <path class="cls-2" d="M557.35,771.17h23.34c8.65,0,15.67,7.02,15.67,15.67v11.67c0,15.09-12.25,27.34-27.34,27.34h0c-15.09,0-27.34-12.25-27.34-27.34v-11.67c0-8.65,7.02-15.67,15.67-15.67Z"/>
      <path class="cls-2" d="M596.05,849.1l-11.32,19.18c-7.06,11.96-24.36,11.96-31.42,0l-11.32-19.18c1.97-13.16,13.32-23.25,27.03-23.25,7.55,0,14.39,3.06,19.33,8.01,4.04,4.03,6.82,9.32,7.7,15.24Z"/>
      <path class="cls-16" d="M758.74,881.48v131.01c0,26.23-20.97,47.5-46.85,47.5h-68.82c-5.36,0-10.3-2.93-12.92-7.67l-16.49-29.81-31.22-53.29c-5.74-9.8-19.73-9.8-25.47,0l-31.22,53.29-16.49,29.81c-2.62,4.74-7.56,7.67-12.92,7.67h-85.01c-17.7,0-32.05-14.54-32.05-32.48v-146.02h379.44Z"/>
      <circle class="cls-12" cx="587.59" cy="904.11" r="12.34"/>
      <path class="cls-3" d="M660.49,827.95c.99-1.3,2.94-1.3,3.93,0l6.44,8.45,8.45,11.01-16.85-.02-16.85.02,8.45-11.01,6.44-8.45Z"/>
      <path class="cls-7" d="M678.11,820.53c1.37-1.79,4.06-1.79,5.43,0l8.9,11.67,11.66,15.21-23.28-.02-23.28.02,11.66-15.21,8.9-11.67Z"/>
    </g>
    <g id="Head">
      <rect class="cls-1" x="315.88" y="176.53" width="515.04" height="602.08" rx="252.21" ry="252.21"/>
      <g>
        <rect class="cls-14" x="602.87" y="371.72" width="126.05" height="181.49" rx="61.73" ry="61.73"/>
        <rect class="cls-16" x="616.4" y="415.57" width="77.88" height="101.65" rx="38.14" ry="38.14"/>
        <circle class="cls-5" cx="677.84" cy="438.07" r="22.5"/>
      </g>
      <g>
        <rect class="cls-14" x="415.85" y="371.72" width="126.05" height="181.49" rx="61.73" ry="61.73"/>
        <rect class="cls-16" x="450.5" y="415.57" width="77.88" height="101.65" rx="38.14" ry="38.14" transform="translate(978.87 932.8) rotate(180)"/>
        <circle class="cls-5" cx="466.94" cy="438.07" r="22.5"/>
      </g>
      <ellipse class="cls-1" cx="681.27" cy="521.43" rx="97.23" ry="41.24" transform="translate(-87.84 141.31) rotate(-11.13)"/>
      <ellipse class="cls-1" cx="463.11" cy="521.43" rx="41.24" ry="97.23" transform="translate(-137.91 875.18) rotate(-78.87)"/>
      <path class="cls-15" d="M846.44,466.74c22.58-3.13,41.94,16.08,38.91,38.68-20.68,154.1-153.57,273.94-313.09,273.94h0c-159.48,0-292.35-119.78-313.08-273.83-3.05-22.63,16.39-41.91,39-38.67,91.64,13.14,219.06,60.72,258.81,76.14,7.94,3.08,16.74,3.11,24.71.08,40.39-15.39,171.17-63.36,264.75-76.34Z"/>
      <g>
        <path class="cls-6" d="M631.92,646.49c0,16.3-6.72,31.02-17.55,41.54-10.44,10.17-24.69,16.43-40.41,16.43s-29.97-6.26-40.41-16.43c-10.83-10.52-17.55-25.24-17.55-41.54,0-32.01,25.95-57.96,57.96-57.96s57.96,25.95,57.96,57.96Z"/>
        <path class="cls-4" d="M612.67,688.03c-10.44,10.17-24.69,16.43-40.41,16.43s-29.97-6.26-40.41-16.43c6.08-16.42,21.88-28.12,40.41-28.12s34.33,11.7,40.41,28.12Z"/>
      </g>
      <g>
        <ellipse class="cls-15" cx="512.53" cy="576.89" rx="59.73" ry="66.17"/>
        <circle class="cls-6" cx="491.81" cy="556.83" r="4.12"/>
        <circle class="cls-6" cx="517.43" cy="572.26" r="4.12"/>
        <circle class="cls-6" cx="500.57" cy="596.96" r="4.12"/>
      </g>
      <g>
        <ellipse class="cls-15" cx="632" cy="576.91" rx="59.73" ry="66.18"/>
        <circle class="cls-6" cx="644.81" cy="557.34" r="4.12"/>
        <circle class="cls-6" cx="619.19" cy="572.77" r="4.12"/>
        <circle class="cls-6" cx="636.05" cy="597.48" r="4.12"/>
      </g>
      <g>
        <path class="cls-9" d="M572.26,583.35c0,32.99-26.74,59.73-59.73,59.73s-59.73-26.74-59.73-59.73"/>
        <path class="cls-9" d="M691.73,583.35c0,32.99-26.74,59.73-59.73,59.73s-59.73-26.74-59.73-59.73"/>
        <path class="cls-16" d="M592.92,573.11l8.96-11.22c13.84-17.32,1.5-42.95-20.66-42.95h-17.93c-22.17,0-34.5,25.63-20.66,42.95l8.96,11.22c10.59,13.25,30.74,13.25,41.33,0Z"/>
      </g>
      <g>
        <ellipse class="cls-1" cx="591.56" cy="198.84" rx="70.9" ry="31.27"/>
        <path class="cls-8" d="M591.56,167.57c39.16,0,70.9,14,70.9,31.27s-31.75,31.27-70.9,31.27c-2.54,0-5.05-.06-7.52-.17"/>
        <ellipse class="cls-1" cx="584.04" cy="167.57" rx="70.9" ry="31.27" transform="translate(-5.54 314.47) rotate(-30)"/>
      </g>
      <path class="cls-10" d="M415.85,348.09c.54-2.88,4.11-20.07,22.32-34.86,21.66-17.6,45.06-16.35,47.27-16.2"/>
      <path class="cls-10" d="M728.93,348.09c-.68-2.85-5.03-19.86-23.89-33.8-22.45-16.59-45.76-14.27-47.97-14.01"/>
    </g>
    <g>
      <path class="cls-15" d="M407.26,40.42c-10.08,17.75-15.55,38.67-11.36,58.86,3.51,16.97,13.84,32.12,26.86,43.05,20.93,15.86,25.05,45.68,9.19,66.61-17.06,22.89-51.38,25.23-71.45,4.99-4.92-4.86-9.94-10.29-13.67-15.35-24.34-31.9-35.65-74.32-27.32-113.89,4.19-21.18,13.88-41.3,27.85-57.74,7.37-8.73,15.92-16.52,25.48-22.8,24.31-14.73,49.88,12.88,34.42,36.27h0Z"/>
      <path class="cls-15" d="M765.19,4.15c36.35,24.06,57.18,67.04,56.01,110.36-1.01,35.77-15.65,70.42-40.5,96.23-18.06,21.03-50.46,23.04-70.21,3.23-20.49-20.01-18.13-54.52,4.79-71.64,2.7-2.11,6.17-5.55,8.69-8.4,10.28-11.54,17.8-25.76,19.15-41.45,2.3-19.14-4.31-38.46-13.91-54.91-12.46-23.29,14.03-47.45,35.98-33.42h0Z"/>
    </g>
    <path class="cls-7" d="M875.41,319.8c-15.28-46.99-42.73-89.12-78.86-123.12-.07-.07-.14-.13-.21-.2-57.21-53.73-136.13-87.09-222.94-87.09-34.44,0-67.63,5.25-98.72,14.95-50.33,15.67-95.14,42.99-130.78,78.51-17.73,17.66-33.19,37.35-45.94,58.65-13.06,21.84-23.26,45.36-30.13,70.11-6.58,23.76-10.09,48.65-10.09,74.27v100.21c0,28.18,4.24,55.48,12.16,81.35,9.81,32.09,25.28,61.99,45.31,88.69,27.2,36.27,62.83,66.62,104.15,88.49,15.11,8,30.99,14.87,47.5,20.47,33.32,11.31,69.2,17.48,106.54,17.48,32.63,0,64.15-4.71,93.81-13.45,18.79-5.53,36.84-12.68,53.96-21.27,7.66-3.83,15.13-7.96,22.4-12.37,58.17-35.21,103.38-87.85,127.1-149.89,11.91-31.14,18.4-64.64,18.4-99.5v-100.21c0-29.91-4.78-58.81-13.66-86.08ZM660.14,715.65c-24.54,8.04-50.86,12.41-78.22,12.41h-17.03c-29.34,0-57.5-5.03-83.53-14.21-57.53-20.29-104.72-60.86-131.56-112.32-15.5-29.71-24.21-63.06-24.21-98.22v-94.66c0-7.76.42-15.43,1.25-23,3.61-32.98,14.9-63.91,32.14-91.17,29.51-46.64,76.45-82.54,132.23-99.62,23.24-7.12,48-10.97,73.68-10.97h17.03c131.61,0,239.3,101.15,239.3,224.76v94.66c0,29.29-6.05,57.32-17.03,83.04-25.72,60.27-78.52,107.85-144.05,129.3Z"/>
    <g>
      <g>
        <path class="cls-7" d="M348.42,247.53c-6.9,10.08-15.5,21.63-25.73,33.52-14.89,17.3-33.24,35.31-54.86,50.56-18.74,13.23-39.93,24.37-63.45,31.18-69.3,20.07-141.63-2.49-183.34-20.46-20.11-8.67-27.31-33.56-14.95-51.63,25.65-37.48,74.74-95.2,144.04-115.27,40.22-11.64,81.47-8.93,117.15-1.09,25.8,5.67,48.69,14.01,66.19,21.56,4.01,1.73,7.5,4.1,10.43,6.95,11.77,11.36,14.42,30.2,4.52,44.68Z"/>
        <path class="cls-11" d="M288.7,250.45c-.62,1.7-1.46,3.36-2.54,4.93-16.32,23.85-47.55,60.57-91.64,73.34-44.1,12.77-90.12-1.59-116.66-13.02-12.79-5.52-17.37-21.35-9.51-32.85,16.32-23.85,47.55-60.57,91.65-73.34,42.22-12.23,86.2.41,113.16,11.55,1.2.49,2.36.98,3.49,1.47,11.04,4.76,15.97,17.21,12.05,27.92Z"/>
      </g>
      <g>
        <path class="cls-7" d="M1123.49,331.43c-15.47,6.67-35.15,13.97-57.32,19.48-37.62,9.37-82.42,13.62-126.02.99-24.06-6.97-45.69-18.48-64.74-32.1-35.82-25.61-62.56-58.7-79.3-83.17-8.62-12.61-7.73-28.53.44-39.95,3.53-4.95,8.43-9.05,14.51-11.67,41.71-17.98,114.04-40.54,183.34-20.47,9.99,2.9,19.57,6.57,28.71,10.86,54.26,25.44,93.38,72.34,115.33,104.41,12.36,18.07,5.16,42.95-14.95,51.62Z"/>
        <path class="cls-11" d="M1066.67,304.8c-11.49,4.95-26.62,10.45-43.67,14.05-22.34,4.73-47.97,6.22-72.98-1.02-44.1-12.77-75.33-49.5-91.65-73.34-7.86-11.5-3.28-27.33,9.51-32.85,26.54-11.44,72.56-25.79,116.66-13.02,7.09,2.05,13.85,4.73,20.27,7.87,33.48,16.37,57.68,45.46,71.37,65.47,7.87,11.5,3.28,27.33-9.51,32.84Z"/>
      </g>
    </g>
    <g>
      <path class="cls-6" d="M349.8,601.53c-7.22,1.51-14.7,2.3-22.37,2.3-21.11,0-40.83-6-57.53-16.39-7.92-25.87-12.16-53.17-12.16-81.35v-95.29c18.76-15.6,42.84-25.02,69.1-25.15-.83,7.57-1.25,15.24-1.25,23v94.66c0,35.16,8.71,68.51,24.21,98.22Z"/>
      <path class="cls-6" d="M1123.49,331.43c-15.47,6.67-35.15,13.97-57.32,19.48-16.88-7.08-31.67-18.16-43.17-32.06,17.05-3.6,32.18-9.1,43.67-14.05,12.79-5.51,17.38-21.34,9.51-32.84-13.69-20.01-37.89-49.1-71.37-65.47,4.41-11.38,10.63-21.86,18.3-31.09,54.26,25.44,93.38,72.34,115.33,104.41,12.36,18.07,5.16,42.95-14.95,51.62Z"/>
      <path class="cls-6" d="M491.74,183.89c0,3.7-.18,7.36-.53,10.97-17.83,5.46-34.76,12.84-50.5,21.89-33.51,19.24-61.65,46-81.73,77.73-13.02-2.37-25.26-6.99-36.29-13.43-9.15-5.34-17.47-11.94-24.73-19.55-3.32-3.48-6.42-7.17-9.26-11.05,3.92-10.71-1.01-23.16-12.05-27.92-1.13-.49-2.29-.98-3.49-1.47-4.07-11.63-6.29-24.14-6.29-37.17,0-3.22.14-6.4.41-9.55,25.8,5.67,48.69,14.01,66.19,21.56,4.01,1.73,7.5,4.1,10.43,6.95,35.64-35.52,80.45-62.84,130.78-78.51,1.09,1.74,2.13,3.51,3.12,5.31,8.88,16.08,13.94,34.57,13.94,54.24Z"/>
      <path class="cls-6" d="M889.07,475.44v30.65c0,34.86-6.49,68.36-18.4,99.5-5.19,1.23-10.61,1.87-16.17,1.87-19.71,0-37.52-8.08-50.31-21.11,10.98-25.72,17.03-53.75,17.03-83.04v-28.58c9.91-5.32,21.24-8.33,33.28-8.33s24.35,3.28,34.57,9.04Z"/>
    </g>
    <g>
      <rect class="cls-11" x="439.12" y="116.3" width="259.79" height="168.32" rx="84.16" ry="84.16"/>
      <ellipse class="cls-16" cx="512.33" cy="194.28" rx="18.29" ry="25.01"/>
      <ellipse class="cls-16" cx="624.29" cy="194.28" rx="18.29" ry="25.01"/>
    </g>
  </g>
</svg>