<?xml version="1.0" encoding="UTF-8"?>
<svg id="Layer_2" data-name="Layer 2" xmlns="http://www.w3.org/2000/svg" viewBox="0 0 1835.77 1759.75">
  <defs>
    <style>
      .cls-1 {
        stroke: #87a629;
      }

      .cls-1, .cls-2, .cls-3, .cls-4, .cls-5, .cls-6, .cls-7 {
        fill: none;
        stroke-linecap: round;
      }

      .cls-1, .cls-3, .cls-5, .cls-6, .cls-7 {
        stroke-linejoin: round;
      }

      .cls-1, .cls-7 {
        stroke-width: 14.33px;
      }

      .cls-8 {
        fill: #ff981c;
      }

      .cls-9 {
        fill: #ff694e;
      }

      .cls-2 {
        stroke-width: 3px;
      }

      .cls-2, .cls-4 {
        stroke-miterlimit: 10;
      }

      .cls-2, .cls-5, .cls-6 {
        stroke: #5f2641;
      }

      .cls-10 {
        fill: #fff;
      }

      .cls-11 {
        fill: #5f2641;
      }

      .cls-3 {
        stroke: #45b4ce;
      }

      .cls-3, .cls-5 {
        stroke-width: 20px;
      }

      .cls-12 {
        fill: #ef5f4b;
      }

      .cls-13 {
        fill: #f28c1c;
      }

      .cls-4 {
        stroke: #2f222e;
      }

      .cls-4, .cls-6 {
        stroke-width: 9.55px;
      }

      .cls-14 {
        fill: #ffeee9;
      }

      .cls-15 {
        fill: #ed891b;
      }

      .cls-7 {
        stroke: #bae639;
      }

      .cls-16 {
        fill: #d2ff4f;
      }

      .cls-17 {
        fill: #fff3e5;
      }

      .cls-18 {
        fill: #2f222e;
      }
    </style>
  </defs>
  <g id="deri_ski_derivatives">
    <g>
      <path class="cls-2" d="M787.89,862v44.9h71.56c-22.85-17.35-46.69-32.5-71.56-44.9Z"/>
      <path class="cls-2" d="M693.55,830.08v76.82h94.34v-44.9c-29.94-14.95-61.36-25.91-94.34-31.92Z"/>
      <rect class="cls-2" x="599.2" y="824.81" width="94.35" height="82.09"/>
      <path class="cls-2" d="M504.86,850v56.9h94.34v-80.34c-33.42,3.34-64.79,11.39-94.34,23.44Z"/>
      <path class="cls-2" d="M410.51,905.8v1.1h94.35v-56.9c-33.73,13.76-65.07,32.71-94.35,55.8Z"/>
      <path class="cls-2" d="M409.11,906.9h1.4v-1.1c-.47.36-.93.73-1.4,1.1Z"/>
      <path class="cls-2" d="M882.23,925.16v63.82h65.61c-20.85-22.99-42.71-44.47-65.61-63.82Z"/>
      <rect class="cls-2" x="787.89" y="906.9" width="94.34" height="82.08"/>
      <rect class="cls-2" x="693.55" y="906.9" width="94.34" height="82.09"/>
      <rect class="cls-2" x="599.2" y="906.9" width="94.34" height="82.09"/>
      <rect class="cls-2" x="504.86" y="906.9" width="94.34" height="82.09"/>
      <rect class="cls-2" x="410.51" y="906.9" width="94.34" height="82.09"/>
      <path class="cls-2" d="M326.36,988.98h84.15v-82.08h-1.4c-29.59,23.52-57.07,51.25-82.75,82.08Z"/>
      <path class="cls-2" d="M976.58,1022.33v48.74h37.63c-12.13-16.65-24.67-32.95-37.63-48.74Z"/>
      <path class="cls-2" d="M882.23,988.98v82.09h94.35v-48.74c-9.36-11.41-18.94-22.55-28.74-33.35h-65.61Z"/>
      <rect class="cls-2" x="787.89" y="988.99" width="94.34" height="82.09"/>
      <rect class="cls-2" x="693.55" y="988.99" width="94.34" height="82.09"/>
      <rect class="cls-2" x="599.2" y="988.99" width="94.34" height="82.09"/>
      <rect class="cls-2" x="504.86" y="988.99" width="94.34" height="82.09"/>
      <rect class="cls-2" x="410.51" y="988.99" width="94.34" height="82.09"/>
      <rect class="cls-2" x="316.17" y="988.98" width="94.34" height="82.09"/>
      <path class="cls-2" d="M266.19,1071.07h49.98v-69.59c-17.46,21.9-34.09,45.22-49.98,69.59Z"/>
      <path class="cls-2" d="M976.58,1071.07v82.09h92.9c-17.41-27.79-35.82-55.39-55.27-82.09h-37.63Z"/>
      <rect class="cls-2" x="882.23" y="1071.08" width="94.34" height="82.09"/>
      <rect class="cls-2" x="787.89" y="1071.08" width="94.34" height="82.09"/>
      <rect class="cls-2" x="693.55" y="1071.08" width="94.34" height="82.09"/>
      <rect class="cls-2" x="599.2" y="1071.08" width="94.34" height="82.09"/>
      <rect class="cls-2" x="504.86" y="1071.08" width="94.34" height="82.09"/>
      <rect class="cls-2" x="410.51" y="1071.08" width="94.34" height="82.09"/>
      <rect class="cls-2" x="316.17" y="1071.08" width="94.34" height="82.09"/>
      <path class="cls-2" d="M221.83,1144.65v8.51h94.34v-82.09h-49.98c-15.44,23.65-30.19,48.29-44.36,73.58Z"/>
      <path class="cls-2" d="M217.1,1153.16h4.73v-8.51c-1.58,2.83-3.16,5.66-4.73,8.51Z"/>
      <path class="cls-2" d="M1070.92,1155.46v79.79h47.19c-14.84-26.34-30.56-53.15-47.19-79.79Z"/>
      <rect class="cls-2" x="976.58" y="1153.16" width="94.34" height="82.09"/>
      <rect class="cls-2" x="882.23" y="1153.17" width="94.34" height="82.09"/>
      <rect class="cls-2" x="787.89" y="1153.17" width="94.34" height="82.09"/>
      <rect class="cls-2" x="693.55" y="1153.17" width="94.34" height="82.09"/>
      <rect class="cls-2" x="599.2" y="1153.17" width="94.34" height="82.09"/>
      <rect class="cls-2" x="504.86" y="1153.17" width="94.34" height="82.09"/>
      <rect class="cls-2" x="410.51" y="1153.17" width="94.34" height="82.09"/>
      <rect class="cls-2" x="316.17" y="1153.17" width="94.34" height="82.09"/>
      <rect class="cls-2" x="221.83" y="1153.17" width="94.34" height="82.09"/>
      <path class="cls-2" d="M174.48,1235.25h47.35v-82.09h-4.73c-14.81,26.82-28.98,54.31-42.62,82.09Z"/>
      <path class="cls-2" d="M1070.92,1235.25v82.09h91.75c-13.88-26.35-28.72-53.96-44.56-82.09h-47.19Z"/>
      <rect class="cls-2" x="976.58" y="1235.25" width="94.34" height="82.09"/>
      <rect class="cls-2" x="882.23" y="1235.25" width="94.34" height="82.09"/>
      <rect class="cls-2" x="787.89" y="1235.25" width="94.34" height="82.09"/>
      <rect class="cls-2" x="693.55" y="1235.25" width="94.34" height="82.09"/>
      <rect class="cls-2" x="599.2" y="1235.25" width="94.34" height="82.09"/>
      <rect class="cls-2" x="504.86" y="1235.25" width="94.34" height="82.09"/>
      <rect class="cls-2" x="410.51" y="1235.25" width="94.34" height="82.09"/>
      <rect class="cls-2" x="316.17" y="1235.25" width="94.34" height="82.09"/>
      <rect class="cls-2" x="221.83" y="1235.25" width="94.34" height="82.09"/>
      <path class="cls-2" d="M135.73,1317.34h86.1v-82.09h-47.35c-13.39,27.22-26.27,54.71-38.75,82.09Z"/>
      <path class="cls-2" d="M1165.27,1322.27v77.16h42.03c-9.62-16.17-19.18-33.4-28.74-51.75-4.33-8.31-8.76-16.79-13.29-25.41Z"/>
      <rect class="cls-2" x="1070.92" y="1317.34" width="94.35" height="82.09"/>
      <rect class="cls-2" x="976.58" y="1317.34" width="94.34" height="82.09"/>
      <rect class="cls-2" x="882.23" y="1317.34" width="94.34" height="82.09"/>
      <rect class="cls-2" x="787.89" y="1317.34" width="94.34" height="82.09"/>
      <rect class="cls-2" x="693.55" y="1317.34" width="94.34" height="82.09"/>
      <rect class="cls-2" x="599.2" y="1317.34" width="94.34" height="82.09"/>
      <rect class="cls-2" x="504.86" y="1317.34" width="94.34" height="82.09"/>
      <rect class="cls-2" x="410.51" y="1317.34" width="94.34" height="82.09"/>
      <rect class="cls-2" x="316.17" y="1317.34" width="94.34" height="82.09"/>
      <rect class="cls-2" x="221.83" y="1317.34" width="94.34" height="82.09"/>
      <rect class="cls-2" x="127.48" y="1317.34" width="94.35" height="82.09"/>
      <path class="cls-2" d="M99.41,1399.43h28.07v-63.92c-5.15,11.4-10.23,22.76-15.25,34.06-4.42,9.95-8.69,19.94-12.82,29.86Z"/>
      <path class="cls-2" d="M1259.61,1476.27v5.25h4.21c-1.41-1.73-2.82-3.48-4.21-5.25Z"/>
      <path class="cls-2" d="M1165.27,1399.43v82.09h94.34v-5.25c-17.72-22.33-35.09-47.87-52.31-76.84h-42.03Z"/>
      <rect class="cls-2" x="1070.92" y="1399.43" width="94.34" height="82.09"/>
      <rect class="cls-2" x="976.58" y="1399.43" width="94.34" height="82.09"/>
      <rect class="cls-2" x="882.23" y="1399.43" width="94.34" height="82.09"/>
      <rect class="cls-2" x="787.89" y="1399.43" width="94.34" height="82.09"/>
      <rect class="cls-2" x="693.55" y="1399.43" width="94.34" height="82.09"/>
      <rect class="cls-2" x="599.2" y="1399.43" width="94.34" height="82.09"/>
      <rect class="cls-2" x="504.86" y="1399.43" width="94.34" height="82.09"/>
      <rect class="cls-2" x="410.51" y="1399.43" width="94.34" height="82.09"/>
      <rect class="cls-2" x="316.17" y="1399.43" width="94.34" height="82.09"/>
      <rect class="cls-2" x="221.83" y="1399.43" width="94.34" height="82.09"/>
      <rect class="cls-2" x="127.48" y="1399.43" width="94.34" height="82.09"/>
      <path class="cls-2" d="M67.09,1481.52h60.39v-82.09h-28.07c-11.85,28.5-22.53,56.54-32.32,82.09Z"/>
      <path class="cls-2" d="M1259.61,1481.52v82.09h94.34c-31.53-19.62-61.3-46.66-90.13-82.09h-4.21Z"/>
      <rect class="cls-2" x="1165.27" y="1481.52" width="94.34" height="82.09"/>
      <rect class="cls-2" x="1070.92" y="1481.52" width="94.34" height="82.09"/>
      <rect class="cls-2" x="976.58" y="1481.52" width="94.34" height="82.09"/>
      <rect class="cls-2" x="882.23" y="1481.52" width="94.34" height="82.09"/>
      <rect class="cls-2" x="787.89" y="1481.52" width="94.34" height="82.09"/>
      <rect class="cls-2" x="693.55" y="1481.52" width="94.34" height="82.09"/>
      <rect class="cls-2" x="599.2" y="1481.52" width="94.34" height="82.09"/>
      <rect class="cls-2" x="504.86" y="1481.52" width="94.34" height="82.09"/>
      <rect class="cls-2" x="410.51" y="1481.52" width="94.34" height="82.09"/>
      <rect class="cls-2" x="316.17" y="1481.52" width="94.34" height="82.09"/>
      <rect class="cls-2" x="221.83" y="1481.52" width="94.34" height="82.09"/>
      <rect class="cls-2" x="127.48" y="1481.52" width="94.34" height="82.09"/>
      <path class="cls-2" d="M33.14,1563.61h94.34v-82.09h-60.39c-12.6,32.93-23.72,61.73-33.95,82.09Z"/>
    </g>
    <g>
      <polyline class="cls-5" points="1808.2 1563.61 263.09 1563.61 263.09 18.49"/>
      <line class="cls-5" x1="263.09" y1="1563.61" x2="263.09" y2="1749.75"/>
      <line class="cls-5" x1="263.09" y1="1563.61" x2="10" y2="1563.61"/>
      <polyline class="cls-5" points="223.81 51.79 263.09 10 302.37 51.79"/>
      <polyline class="cls-5" points="1783.98 1524.33 1825.77 1563.61 1783.98 1602.89"/>
    </g>
    <path class="cls-3" d="M1782.24,1353.09c-55.05,119.43-171.6,252-276.16,252-133.48,0-231.05-72.25-327.52-257.4-107.9-207.1-278.62-519.1-538.63-522.84-268.99-3.87-412.82,286.26-527.7,544.72-33.49,75.34-81.3,184.47-102.23,226.13"/>
    <g>
      <g id="Right_Arm" data-name="Right Arm">
        <path class="cls-15" d="M1069.66,799.38c2.04,3.72,3.16,8.01,3.06,12.54l-1.88,83.21-.19,8.63c-.31,13.79-11.84,24.81-25.63,24.5-13.79-.31-24.81-11.85-24.5-25.63l.19-8.47,1.88-83.37c.31-13.79,11.84-24.81,25.63-24.5,9.26.21,17.27,5.48,21.44,13.09Z"/>
        <path class="cls-18" d="M1070.84,895.13l-.19,8.63c-.31,13.79-11.84,24.81-25.63,24.5-13.79-.31-24.81-11.85-24.5-25.63l.19-8.47c13.77,13.4,35.83,13.85,50.13.98Z"/>
      </g>
      <g>
        <line class="cls-1" x1="1072.06" y1="908.17" x2="898.48" y2="915.67"/>
        <line class="cls-1" x1="930.38" y1="946.54" x2="927.6" y2="882.15"/>
      </g>
      <g id="Tail">
        <path class="cls-8" d="M938.37,490.75c-4.61,31.83-21.59,61.1-38.89,89.8-9.25,15.34-18.59,30.53-26.18,45.86-13.37,26.99-20.81,57.36-10.62,87.07,7.95,23.17,24.61,44.19,42.63,58.4,2.14,1.69,11.31,7.35,12.2,1.23,7.13-48.77,42.63-91.46,65.08-135.66,8.2-16.98,14.23-34.95,15.2-53.23.6-11.21-.71-22.54-4.58-33.84-7.95-23.17-24.6-44.19-42.63-58.4-2.28-1.8-11.33-7.27-12.2-1.23Z"/>
        <path class="cls-17" d="M938.37,490.75c-4.61,31.83-21.59,61.1-38.89,89.8,29.69,19.86,67.89,20.85,98.31,3.66.6-11.21-.71-22.54-4.58-33.84-7.95-23.17-24.6-44.19-42.63-58.4-2.28-1.8-11.33-7.27-12.2-1.23Z"/>
      </g>
      <path class="cls-12" d="M873.85,610.04c63.15,13.34,68.97,97.72,132.02,111.2,7,1.15,15.1-2.82,19.43-8.12,4.82-6.74,9.63-13.47,14.45-20.21,4.26-5.19-1.66-9.49-6.5-9.95-63.14-13.34-68.96-97.72-132.02-111.2-6.85-.69-15.26,2.38-19.43,8.12-4.82,6.74-9.63,13.47-14.45,20.21-4.26,5.19,1.66,9.49,6.5,9.95Z"/>
      <g id="Deri">
        <g id="Body">
          <path class="cls-8" d="M997.67,717.09l-16.95,1.97c-47.09,5.48-80.83,48.1-75.35,95.19,2.64,22.67,13.89,42.26,30.1,55.85,17.46,14.64,40.67,22.34,65.09,19.5l16.95-1.97c24.42-2.84,45.24-15.67,58.87-33.92,12.66-16.95,19.12-38.6,16.48-61.27-2.74-23.55-14.77-43.75-31.99-57.39-17.22-13.63-39.66-20.7-63.2-17.96Z"/>
          <path class="cls-17" d="M1002.59,833.22c-32.23,3.75-58.33,18.88-67.11,36.89,17.46,14.64,40.67,22.34,65.09,19.5l16.95-1.97c24.42-2.84,45.24-15.67,58.87-33.92-12.68-15.52-41.57-24.25-73.79-20.5Z"/>
        </g>
      </g>
      <path class="cls-7" d="M749.72,770.27s251.85,248.53,266.53,263.02c18.41,18.17,46.8,19.26,63.4,2.44"/>
      <path id="Left_Foot" data-name="Left Foot" class="cls-18" d="M912.17,882.16h30.64c9.37,0,16.98,7.61,16.98,16.98h0c0,15.06-12.22,27.28-27.28,27.28h-10.03c-15.06,0-27.28-12.22-27.28-27.28h0c0-9.37,7.61-16.98,16.98-16.98Z" transform="translate(945.67 2199.53) rotate(-135.08)"/>
      <g>
        <line class="cls-1" x1="1080.7" y1="927.74" x2="907.12" y2="935.23"/>
        <line class="cls-1" x1="939.01" y1="966.11" x2="936.23" y2="901.72"/>
      </g>
      <g id="Right_Arm-2" data-name="Right Arm">
        <path class="cls-8" d="M1081.97,824.71c2.04,3.72,3.16,8.01,3.06,12.54l-1.88,83.21-.19,8.63c-.31,13.79-11.84,24.81-25.63,24.5-13.79-.31-24.81-11.85-24.5-25.63l.19-8.47,1.88-83.37c.31-13.79,11.84-24.81,25.63-24.5,9.26.21,17.27,5.48,21.44,13.09Z"/>
        <path class="cls-18" d="M1083.15,920.46l-.19,8.63c-.31,13.79-11.84,24.81-25.63,24.5-13.79-.31-24.81-11.85-24.5-25.63l.19-8.47c13.77,13.4,35.83,13.85,50.13.98Z"/>
      </g>
      <g id="Head">
        <g>
          <path class="cls-13" d="M1311.49,661.3c-16.52,37.78-59.91,55.3-96.91,39.12-37-16.18-53.61-59.92-37.09-97.71,7.58-17.34,33.98-39.27,60.32-57.92,12.9-9.13,25.78-17.48,36.44-24.11,12.64-7.87,28.94-.74,31.75,13.88,2.4,12.51,5.07,27.9,7.14,43.82,4.13,31.8,5.88,65.7-1.64,82.92Z"/>
          <path class="cls-18" d="M1313.13,578.38c-5.94,3.52-12.7,5.88-20.01,6.72-26.32,3.02-50.23-14.77-55.31-40.3,12.9-9.13,25.78-17.48,36.44-24.11,12.64-7.87,28.94-.74,31.75,13.88,2.4,12.51,5.07,27.9,7.14,43.82Z"/>
        </g>
        <rect class="cls-8" x="1049.93" y="559.76" width="240.94" height="287.59" rx="120.47" ry="120.47" transform="translate(1566.49 2010.43) rotate(-137.87)"/>
        <g>
          <path class="cls-8" d="M1125.31,573.03c-.45,41.23,31.92,75.02,72.31,75.46,40.38.44,73.48-32.63,73.94-73.86.21-18.93-14.86-49.76-31.23-77.58-8.01-13.62-16.33-26.52-23.33-36.94-8.29-12.36-26.09-12.56-34.65-.38-7.32,10.43-16.07,23.36-24.5,37.02-16.82,27.3-32.34,57.49-32.54,76.28Z"/>
          <path class="cls-18" d="M1157.86,496.75c3.97,5.65,9.17,10.58,15.49,14.34,22.76,13.56,51.87,7.15,66.98-14.04-8.01-13.62-16.33-26.52-23.33-36.94-8.29-12.36-26.09-12.56-34.65-.38-7.32,10.43-16.07,23.36-24.5,37.02Z"/>
          <path class="cls-14" d="M1147.04,572.7c-.32,28.98,22.44,52.73,50.83,53.04,28.39.31,51.65-22.94,51.97-51.92.24-21.64-27.95-65.43-42.24-86.23-3.94-5.74-12.38-5.83-16.45-.18-14.74,20.48-43.87,63.65-44.11,85.29Z"/>
        </g>
        <g>
          <rect class="cls-16" x="1193.36" y="721.33" width="86.69" height="58.97" rx="29.49" ry="29.49" transform="translate(-149.71 1164.36) rotate(-47.87)"/>
          <rect class="cls-18" x="1220.15" y="739.78" width="37.2" height="48.56" rx="18.6" ry="18.6" transform="translate(1644.93 2161.66) rotate(-137.87)"/>
          <circle class="cls-10" cx="1239.65" cy="746.63" r="10.75"/>
        </g>
        <rect class="cls-9" x="976.92" y="740.42" width="169.74" height="46.99" rx="23.24" ry="23.24" transform="translate(933.89 2065.69) rotate(-120.12)"/>
        <path class="cls-17" d="M1113.2,833.87s68.23,63.42,134.68-6.48c2.8-2.95-8.27-17.16-10.12-20.78-9.38-18.39-59.82-93.24-88.81-127.82-7-8.35-20.07-7.78-26.18,1.24-45.14,66.66-33.88,129.38-9.58,153.85h0"/>
        <ellipse class="cls-17" cx="1227.1" cy="810.48" rx="31.61" ry="28.53" transform="translate(-197.12 1176.89) rotate(-47.87)"/>
        <path class="cls-4" d="M1203.87,793.63c-10.57,11.69-9.67,29.73,2.02,40.3,11.69,10.57,29.73,9.67,40.3-2.02"/>
        <path class="cls-18" d="M1242.16,821.66l.42-6.85c.65-10.57,13.23-15.7,21.08-8.6l1.26,1.14c9.9,8.96,5.05,25.39-8.13,27.54h0c-8,1.3-15.14-5.15-14.64-13.24Z"/>
        <circle class="cls-11" cx="1228.83" cy="799.45" r="1.97"/>
        <circle class="cls-11" cx="1232.96" cy="813.12" r="1.97"/>
        <circle class="cls-11" cx="1219.07" cy="816.47" r="1.97"/>
        <g>
          <ellipse class="cls-8" cx="1317.1" cy="679.81" rx="14.94" ry="33.87" transform="translate(235.1 1692.82) rotate(-70.41)"/>
          <ellipse class="cls-8" cx="1318.72" cy="664.54" rx="33.87" ry="14.94" transform="translate(-98.4 249.32) rotate(-10.41)"/>
        </g>
        <path class="cls-6" d="M1245.01,682.37c1.34-.39,9.44-2.6,19.67,1.95,12.19,5.41,16.72,15.64,17.13,16.62"/>
      </g>
    </g>
    <line class="cls-3" x1="822.85" y1="621.17" x2="756.47" y2="554.79"/>
    <line class="cls-3" x1="829.03" y1="691.21" x2="749.72" y2="611.9"/>
  </g>
</svg>