<?xml version="1.0" encoding="UTF-8"?>
<svg id="Layer_2" data-name="Layer 2" xmlns="http://www.w3.org/2000/svg" xmlns:xlink="http://www.w3.org/1999/xlink" viewBox="0 0 1683.14 1551.43">
  <defs>
    <style>
      .cls-1 {
        fill: #a7eeff;
      }

      .cls-2 {
        fill: #ff981c;
      }

      .cls-3 {
        fill: url(#linear-gradient-2);
      }

      .cls-4 {
        font-family: MontserratAlternates-Regular, 'Montserrat Alternates';
      }

      .cls-5 {
        fill: #fff;
      }

      .cls-6 {
        stroke: #7f480d;
        stroke-width: 90px;
      }

      .cls-6, .cls-7 {
        stroke-miterlimit: 10;
      }

      .cls-6, .cls-7, .cls-8 {
        fill: none;
        stroke-linecap: round;
      }

      .cls-9 {
        fill: #5f2641;
      }

      .cls-10 {
        fill: #fffdfa;
      }

      .cls-7 {
        stroke: #2f222e;
      }

      .cls-7, .cls-8 {
        stroke-width: 12.85px;
      }

      .cls-11 {
        font-family: ArialNarrow, Arial;
      }

      .cls-8 {
        stroke: #5f2641;
        stroke-linejoin: round;
      }

      .cls-12 {
        fill: #f9eee5;
      }

      .cls-13 {
        font-size: 123.1px;
      }

      .cls-13, .cls-14 {
        fill: #ff694e;
      }

      .cls-15 {
        fill: #ffeee9;
      }

      .cls-14 {
        font-family: MontserratAlternates-BoldItalic, 'Montserrat Alternates';
        font-size: 169.71px;
        font-style: italic;
        font-weight: 700;
      }

      .cls-16 {
        fill: #ffd00d;
      }

      .cls-17 {
        fill: url(#linear-gradient);
      }

      .cls-18 {
        fill: #d2ff4f;
      }

      .cls-19 {
        fill: #fff3e5;
      }

      .cls-20 {
        fill: #2f222e;
      }
    </style>
    <linearGradient id="linear-gradient" x1="882.31" y1="1144.73" x2="1024.84" y2="921.52" gradientUnits="userSpaceOnUse">
      <stop offset="0" stop-color="#ef7d00"/>
      <stop offset=".63" stop-color="#ff981c"/>
    </linearGradient>
    <linearGradient id="linear-gradient-2" x1="777.94" y1="1063.17" x2="846.31" y2="1000.6" gradientTransform="translate(-169 108.17) rotate(-9.3)" gradientUnits="userSpaceOnUse">
      <stop offset=".29" stop-color="#ff981c"/>
      <stop offset=".68" stop-color="#f48609"/>
      <stop offset="1" stop-color="#ef7d00"/>
    </linearGradient>
  </defs>
  <g id="deri_runner_limits">
    <g>
      <g id="Tail">
        <path class="cls-17" d="M1089.13,856.41c-24.4,35.74-34.22,80.2-43.21,124.4-4.8,23.63-9.37,47.18-15.8,69.28-11.32,38.92-31.59,75.79-68.74,95.95-28.97,15.72-64.61,21.39-95.4,19.06-3.66-.28-17.9-3.01-13.22-9.89,37.33-54.82,41.01-129.44,59-193.68,7.33-24.29,17.71-47.59,33.4-66.59,9.61-11.65,21.22-21.69,35.34-29.36,28.96-15.72,64.61-21.4,95.4-19.06,3.9.29,17.84,3.1,13.22,9.89Z"/>
        <path class="cls-12" d="M1089.13,856.41c-24.4,35.74-34.22,80.2-43.21,124.4-47.5-7.34-86.26-41.14-100.76-85.86,9.61-11.65,21.22-21.69,35.34-29.36,28.96-15.72,64.61-21.4,95.4-19.06,3.9.29,17.84,3.1,13.22,9.89Z"/>
      </g>
      <g id="Left_Arm" data-name="Left Arm">
        <path class="cls-3" d="M779.45,1021.1c1.17,5.59.94,11.55-.95,17.34l-34.88,106.43-3.61,11.03c-5.78,17.63-24.93,27.34-42.56,21.56-17.63-5.78-27.33-24.94-21.55-42.56l3.55-10.84,34.94-106.63c5.78-17.63,24.93-27.33,42.56-21.55,11.84,3.88,20.11,13.79,22.51,25.22Z"/>
        <path class="cls-20" d="M743.63,1144.87l-3.61,11.03c-5.78,17.63-24.93,27.34-42.56,21.56-17.63-5.78-27.33-24.94-21.55-42.56l3.55-10.84c12.51,22.63,40.74,31.81,64.18,20.81Z"/>
      </g>
      <g id="Deri">
        <g id="Body">
          <path class="cls-2" d="M848.62,1224.1h-21.67c-46.39,0-87.15-38.86-91.36-90.52l-3.08-37.86c-5.41-66.48,40.42-125.61,102.9-125.61h4.76c62.48,0,108.32,59.13,102.9,125.61l-3.08,37.86c-4.21,51.66-44.98,90.52-91.36,90.52Z"/>
          <path class="cls-19" d="M892.73,1090.96c-2.33,54.98-26.86,96.24-54.96,96.24s-52.63-41.26-54.96-96.24c-2.54-60.07,21.96-113.01,54.96-113.01s57.5,52.94,54.96,113.01Z"/>
        </g>
      </g>
      <g id="Right_Arm" data-name="Right Arm">
        <path class="cls-2" d="M935.38,1013.79c-5.39-1.89-11.33-2.44-17.32-1.31l-110.06,20.76-11.41,2.15c-18.23,3.44-30.34,21.17-26.9,39.4,3.44,18.23,21.18,30.34,39.41,26.9l11.21-2.12,110.26-20.8c18.23-3.44,30.34-21.17,26.9-39.41-2.31-12.25-11.07-21.73-22.09-25.59Z"/>
        <path class="cls-20" d="M808,1033.25l-11.41,2.15c-18.23,3.44-30.34,21.17-26.9,39.4,3.44,18.23,21.18,30.34,39.41,26.9l11.21-2.12c-20.81-15.34-26.25-44.53-12.3-66.34Z"/>
      </g>
      <path id="Right_Foot" data-name="Right Foot" class="cls-20" d="M767.96,1244.73h33.16c17.72,0,32.1,14.38,32.1,32.1v10.38c0,10.25-8.32,18.57-18.57,18.57h-60.21c-10.25,0-18.57-8.32-18.57-18.57v-10.38c0-17.72,14.38-32.1,32.1-32.1Z"/>
      <path id="Left_Foot" data-name="Left Foot" class="cls-20" d="M889.93,1227.64h25.12c12.91,0,23.39,10.48,23.39,23.39v8.1c0,8.9-7.23,16.13-16.13,16.13h-39.65c-8.9,0-16.13-7.23-16.13-16.13v-8.1c0-12.91,10.48-23.39,23.39-23.39Z"/>
      <g id="Head">
        <g>
          <path class="cls-2" d="M1021.67,750.84c-27.87,47.98-88.56,64.75-135.55,37.46-46.99-27.3-62.49-88.32-34.62-136.3,12.79-22.02,51.44-47.29,89.52-68.19,18.64-10.23,37.14-19.41,52.4-26.65,18.1-8.58,38.81,3.44,40.32,23.41,1.29,17.1,2.5,38.08,2.83,59.67.65,43.15-2.2,88.74-14.89,110.6Z"/>
          <path class="cls-20" d="M1036.56,640.24c-8.48,3.8-17.88,5.91-27.78,5.91-35.65,0-64.89-27.44-67.77-62.35,18.64-10.23,37.14-19.41,52.4-26.65,18.1-8.58,38.81,3.44,40.32,23.41,1.29,17.1,2.5,38.08,2.83,59.67Z"/>
          <path class="cls-15" d="M996.77,735.5c-19.59,33.73-62.25,45.52-95.28,26.33-33.03-19.19-43.93-62.08-24.34-95.81,14.63-25.18,77.36-56.41,108.2-70.61,8.51-3.92,18.33,1.78,19.14,11.12,2.94,33.83,6.9,103.79-7.73,128.98Z"/>
        </g>
        <g>
          <path class="cls-2" d="M652.72,750.84c27.87,47.98,88.56,64.75,135.55,37.46,46.99-27.3,62.49-88.32,34.62-136.3-12.79-22.02-51.44-47.29-89.52-68.19-18.64-10.23-37.14-19.41-52.4-26.65-18.1-8.58-38.81,3.44-40.32,23.41-1.29,17.1-2.5,38.08-2.83,59.67-.65,43.15,2.2,88.74,14.89,110.6Z"/>
          <path class="cls-20" d="M637.83,640.24c8.48,3.8,17.88,5.91,27.78,5.91,35.65,0,64.89-27.44,67.77-62.35-18.64-10.23-37.14-19.41-52.4-26.65-18.1-8.58-38.81,3.44-40.32,23.41-1.29,17.1-2.5,38.08-2.83,59.67Z"/>
          <path class="cls-15" d="M677.62,735.5c19.59,33.73,62.25,45.52,95.28,26.33,33.03-19.19,43.93-62.08,24.34-95.81-14.63-25.18-77.36-56.41-108.2-70.61-8.51-3.92-18.33,1.78-19.14,11.12-2.94,33.83-6.9,103.79,7.73,128.98Z"/>
        </g>
        <rect class="cls-2" x="672.99" y="631.22" width="331.04" height="386.98" rx="165.52" ry="165.52"/>
        <g>
          <rect class="cls-18" x="857.45" y="756.68" width="81.02" height="116.65" rx="40.51" ry="40.51"/>
          <rect class="cls-20" x="866.15" y="793.7" width="50.06" height="65.34" rx="25.03" ry="25.03"/>
          <circle class="cls-5" cx="905.64" cy="808.17" r="14.46"/>
        </g>
        <g>
          <rect class="cls-18" x="737.25" y="756.68" width="81.02" height="116.65" rx="40.51" ry="40.51"/>
          <rect class="cls-20" x="759.52" y="793.7" width="50.06" height="65.34" rx="25.03" ry="25.03" transform="translate(1569.09 1652.75) rotate(-180)"/>
          <circle class="cls-5" cx="770.08" cy="808.17" r="14.46"/>
        </g>
        <path class="cls-19" d="M1014.01,817.75c14.51-2.01,26.96,10.34,25.01,24.86-13.29,99.05-98.71,176.07-201.24,176.07h0c-102.51,0-187.91-76.99-201.23-176-1.96-14.55,10.54-26.94,25.06-24.85,58.9,8.45,140.8,39.03,166.35,48.94,5.11,1.98,10.76,2,15.88.05,25.96-9.89,110.02-40.72,170.17-49.07Z"/>
        <g>
          <ellipse class="cls-19" cx="799.38" cy="888.55" rx="38.39" ry="42.53"/>
          <circle class="cls-9" cx="786.07" cy="875.65" r="2.65"/>
          <circle class="cls-9" cx="802.54" cy="885.57" r="2.65"/>
          <circle class="cls-9" cx="791.7" cy="901.45" r="2.65"/>
        </g>
        <g>
          <ellipse class="cls-19" cx="876.17" cy="888.56" rx="38.39" ry="42.54"/>
          <circle class="cls-9" cx="884.41" cy="875.98" r="2.65"/>
          <circle class="cls-9" cx="867.94" cy="885.9" r="2.65"/>
          <circle class="cls-9" cx="878.78" cy="901.78" r="2.65"/>
        </g>
        <path class="cls-7" d="M837.78,892.7c0,8.64-2.85,16.62-7.67,23.03"/>
        <path class="cls-7" d="M845.45,915.74c-4.82-6.42-7.67-14.39-7.67-23.03"/>
        <path class="cls-20" d="M850.6,886.69l6.99-8.75c8.58-10.75.93-26.65-12.82-26.65h-13.97c-13.75,0-21.4,15.9-12.82,26.65l6.99,8.75c6.57,8.22,19.07,8.22,25.64,0Z"/>
        <g>
          <ellipse class="cls-2" cx="848.17" cy="617.78" rx="45.57" ry="20.1" transform="translate(-199.79 670.96) rotate(-38.97)"/>
          <ellipse class="cls-2" cx="831.77" cy="605.2" rx="45.57" ry="20.1" transform="translate(-31.57 1164.44) rotate(-68.97)"/>
        </g>
        <path class="cls-8" d="M735.26,726.56c1.38-1.28,9.8-8.8,24.86-9.48,17.92-.81,29.53,8.78,30.62,9.71"/>
        <path class="cls-8" d="M940.35,730.19c-1.29-1.37-9.21-9.42-24.19-11.08-17.83-1.98-30.04,6.83-31.18,7.68"/>
        <ellipse class="cls-9" cx="837.78" cy="936.28" rx="17.66" ry="22.48"/>
        <ellipse class="cls-7" cx="837.78" cy="936.28" rx="17.66" ry="22.48"/>
      </g>
      <g>
        <path class="cls-1" d="M639.33,815c-9.02,5.21-20.56,2.12-25.76-6.9s-2.12-20.56,6.9-25.76c5.69-3.28,20.5-3.17,30.66-2.64,5.01.26,8.1,5.6,5.82,10.08-4.62,9.07-11.93,21.95-17.62,25.23Z"/>
        <circle class="cls-10" cx="622.63" cy="793.51" r="5.07"/>
      </g>
      <g>
        <path class="cls-1" d="M1031.69,810.24c9.02,5.21,20.56,2.12,25.76-6.9,5.21-9.02,2.12-20.56-6.9-25.76-5.69-3.28-20.5-3.17-30.66-2.64-5.01.26-8.1,5.6-5.82,10.08,4.62,9.07,11.93,21.95,17.62,25.23Z"/>
        <circle class="cls-10" cx="1048.39" cy="788.75" r="5.07"/>
      </g>
      <g>
        <path class="cls-1" d="M1052.44,763.22c6.58-3.14,9.36-11.02,6.22-17.6-3.14-6.58-11.02-9.36-17.6-6.22-4.15,1.98-9.95,10.57-13.66,16.64-1.83,3,.03,6.89,3.51,7.35,7.06.92,17.38,1.81,21.53-.17Z"/>
        <circle class="cls-10" cx="1046.66" cy="745.08" r="3.55"/>
      </g>
      <g>
        <path class="cls-1" d="M628.7,772.82c-6.58-3.14-9.36-11.02-6.22-17.6,3.14-6.58,11.02-9.36,17.6-6.22,4.15,1.98,9.95,10.57,13.66,16.64,1.83,3-.03,6.89-3.51,7.35-7.06.92-17.38,1.81-21.53-.17Z"/>
        <circle class="cls-10" cx="634.49" cy="754.68" r="3.55"/>
      </g>
    </g>
    <g>
      <polygon class="cls-20" points="169.48 1435.01 272.88 1435.01 224.68 1488.29 112.51 1488.29 169.48 1435.01"/>
      <polygon class="cls-10" points="272.88 1435.01 376.27 1435.01 336.84 1488.29 224.68 1488.29 272.88 1435.01"/>
      <polygon class="cls-20" points="376.27 1435.01 479.67 1435.01 449 1488.29 336.84 1488.29 376.27 1435.01"/>
      <polygon class="cls-10" points="479.67 1435.01 583.07 1435.01 561.16 1488.29 449 1488.29 479.67 1435.01"/>
      <polygon class="cls-20" points="583.07 1435.01 686.47 1435.01 673.33 1488.29 561.16 1488.29 583.07 1435.01"/>
      <polygon class="cls-10" points="686.47 1435.01 789.87 1435.01 785.49 1488.29 673.33 1488.29 686.47 1435.01"/>
      <polygon class="cls-20" points="789.87 1435.01 893.27 1435.01 897.65 1488.29 785.49 1488.29 789.87 1435.01"/>
      <polygon class="cls-10" points="893.27 1435.01 996.67 1435.01 1009.82 1488.29 897.65 1488.29 893.27 1435.01"/>
      <polygon class="cls-20" points="996.67 1435.01 1100.07 1435.01 1121.98 1488.29 1009.82 1488.29 996.67 1435.01"/>
      <polygon class="cls-10" points="1100.07 1435.01 1203.47 1435.01 1234.14 1488.29 1121.98 1488.29 1100.07 1435.01"/>
      <polygon class="cls-20" points="1203.47 1435.01 1306.87 1435.01 1346.3 1488.29 1234.14 1488.29 1203.47 1435.01"/>
      <polygon class="cls-10" points="1306.87 1435.01 1410.27 1435.01 1458.47 1488.29 1346.3 1488.29 1306.87 1435.01"/>
      <polygon class="cls-20" points="1410.27 1435.01 1513.67 1435.01 1570.63 1488.29 1458.47 1488.29 1410.27 1435.01"/>
      <polygon class="cls-10" points="112.51 1488.29 224.68 1488.29 167.55 1551.43 45 1551.43 112.51 1488.29"/>
      <polygon class="cls-20" points="224.68 1488.29 336.84 1488.29 290.1 1551.43 167.55 1551.43 224.68 1488.29"/>
      <polygon class="cls-10" points="336.84 1488.29 449 1488.29 412.65 1551.43 290.1 1551.43 336.84 1488.29"/>
      <polygon class="cls-20" points="449 1488.29 561.16 1488.29 535.2 1551.43 412.65 1551.43 449 1488.29"/>
      <polygon class="cls-10" points="561.16 1488.29 673.33 1488.29 657.75 1551.43 535.2 1551.43 561.16 1488.29"/>
      <polygon class="cls-20" points="673.33 1488.29 785.49 1488.29 780.3 1551.43 657.75 1551.43 673.33 1488.29"/>
      <polygon class="cls-10" points="785.49 1488.29 897.65 1488.29 902.85 1551.43 780.3 1551.43 785.49 1488.29"/>
      <polygon class="cls-20" points="897.65 1488.29 1009.82 1488.29 1025.4 1551.43 902.85 1551.43 897.65 1488.29"/>
      <polygon class="cls-10" points="1009.82 1488.29 1121.98 1488.29 1147.95 1551.43 1025.4 1551.43 1009.82 1488.29"/>
      <polygon class="cls-20" points="1121.98 1488.29 1234.14 1488.29 1270.49 1551.43 1147.95 1551.43 1121.98 1488.29"/>
      <polygon class="cls-10" points="1234.14 1488.29 1346.3 1488.29 1393.04 1551.43 1270.49 1551.43 1234.14 1488.29"/>
      <polygon class="cls-20" points="1346.3 1488.29 1458.47 1488.29 1515.59 1551.43 1393.04 1551.43 1346.3 1488.29"/>
      <polygon class="cls-10" points="1458.47 1488.29 1570.63 1488.29 1638.14 1551.43 1515.59 1551.43 1458.47 1488.29"/>
    </g>
    <rect class="cls-16" x="41.9" y="84.3" width="1602.7" height="300.01"/>
    <line class="cls-6" x1="45" y1="1456.97" x2="45" y2="45"/>
    <line class="cls-6" x1="1638.14" y1="1456.97" x2="1638.14" y2="45"/>
    <text class="cls-14" transform="translate(676.13 261.07)"><tspan x="0" y="0">lim</tspan></text>
    <text class="cls-13" transform="translate(720.14 344.77) scale(1 .91)"><tspan class="cls-4" x="0" y="0">x→</tspan><tspan class="cls-11" x="139.59" y="0">α</tspan></text>
  </g>
</svg>