<?xml version="1.0" encoding="UTF-8"?>
<svg id="Layer_2" data-name="Layer 2" xmlns="http://www.w3.org/2000/svg" viewBox="0 0 1039.44 1277.99">
  <defs>
    <style>
      .cls-1 {
        fill: #5f2641;
      }

      .cls-2 {
        fill: #b5d839;
      }

      .cls-3 {
        fill: none;
        stroke: #87a629;
        stroke-linecap: round;
        stroke-miterlimit: 10;
        stroke-width: 27.34px;
      }

      .cls-4 {
        fill: #bae639;
      }
    </style>
  </defs>
  <g id="deri_ski_derivatives_prop">
    <path class="cls-2" d="M434.76-31.19h0c55.5,0,100.57,45.06,100.57,100.57v1178.44c0,25.75-20.9,46.65-46.65,46.65h-107.83c-25.75,0-46.65-20.9-46.65-46.65V69.37c0-55.5,45.06-100.57,100.57-100.57Z" transform="translate(231.69 -107.79) rotate(19.18)"/>
    <path class="cls-1" d="M508.78,640.76c9.8,3.41,20.28-3.12,21.49-13.43,4.87-41.43-19.43-82.14-60.46-96.41-41.03-14.27-85.35,2.56-107.25,38.07-5.45,8.83-1.29,20.45,8.51,23.86l137.71,47.91Z"/>
    <path class="cls-4" d="M566.12,21.07h0c55.5,0,100.57,45.06,100.57,100.57v1178.44c0,25.75-20.9,46.65-46.65,46.65h-107.83c-25.75,0-46.65-20.9-46.65-46.65V121.64c0-55.5,45.06-100.57,100.57-100.57Z" transform="translate(595.67 -203.42) rotate(41.52)"/>
    <path class="cls-1" d="M631.12,720.47c7.77,6.88,19.94,4.82,24.98-4.25,20.25-36.47,13.25-83.36-19.27-112.16-32.52-28.8-79.92-30.08-113.67-5.56-8.4,6.1-8.97,18.43-1.2,25.31l109.16,96.66Z"/>
    <line class="cls-3" x1="42.03" y1="893.76" x2="360.14" y2="334.63"/>
    <line class="cls-3" x1="13.67" y1="815.87" x2="123.47" y2="878.34"/>
    <line class="cls-3" x1="666.39" y1="1083.58" x2="773.45" y2="449.26"/>
    <line class="cls-3" x1="613.04" y1="1020.13" x2="737.6" y2="1041.16"/>
  </g>
</svg>