<?xml version="1.0" encoding="UTF-8"?>
<svg id="Layer_2" data-name="Layer 2" xmlns="http://www.w3.org/2000/svg" viewBox="0 0 796.52 1290.67">
  <defs>
    <style>
      .cls-1 {
        fill: #b25c16;
      }

      .cls-2 {
        fill: #ff694e;
      }

      .cls-3 {
        stroke: #7f480d;
      }

      .cls-3, .cls-4, .cls-5, .cls-6, .cls-7 {
        fill: none;
        stroke-linecap: round;
      }

      .cls-3, .cls-7 {
        stroke-miterlimit: 10;
        stroke-width: 90px;
      }

      .cls-4 {
        stroke: #45b4ce;
      }

      .cls-4, .cls-5, .cls-6 {
        stroke-linejoin: round;
        stroke-width: 20px;
      }

      .cls-5 {
        stroke: #ff981c;
      }

      .cls-6 {
        stroke: #bae639;
      }

      .cls-8 {
        fill: #ffeee9;
      }

      .cls-9 {
        fill: #d65543;
      }

      .cls-7 {
        stroke: #703c0d;
      }
    </style>
  </defs>
  <g id="deri_archer_vectors_prop">
    <line class="cls-7" x1="542.72" y1="279.45" x2="737.89" y2="966.62"/>
    <line class="cls-3" x1="601.29" y1="45" x2="191.33" y2="1156.41"/>
    <line class="cls-3" x1="601.29" y1="45" x2="576.56" y2="1213.85"/>
    <g id="Target">
      <path class="cls-9" d="M790.05,597.07c-34.21,195.4-194.52,353.8-358.07,353.8s-268.39-158.4-234.18-353.8c34.21-195.4,194.52-353.8,358.07-353.8s268.39,158.4,234.18,353.8Z"/>
      <path class="cls-2" d="M760.05,567.07c-34.21,195.4-194.52,353.8-358.07,353.8s-268.39-158.4-234.18-353.8c34.21-195.4,194.52-353.8,358.07-353.8s268.39,158.4,234.18,353.8Z"/>
      <path class="cls-8" d="M695.5,567.07c-26.75,152.8-152.12,276.68-280.02,276.68s-209.89-123.87-183.14-276.68c26.75-152.8,152.12-276.68,280.02-276.68s209.89,123.87,183.14,276.68Z"/>
      <path class="cls-2" d="M632.68,567.07c-19.5,111.36-110.86,201.63-204.06,201.63s-152.96-90.27-133.46-201.63c19.5-111.36,110.86-201.63,204.06-201.63s152.96,90.27,133.46,201.63Z"/>
      <path class="cls-8" d="M574.15,567.07c-12.73,72.73-72.41,131.69-133.28,131.69s-99.9-58.96-87.17-131.69c12.73-72.73,72.41-131.69,133.28-131.69s99.9,58.96,87.17,131.69Z"/>
      <path class="cls-2" d="M517.04,567.07c-6.14,35.05-34.9,63.47-64.23,63.47s-48.15-28.42-42.01-63.47c6.14-35.05,34.9-63.47,64.23-63.47s48.15,28.42,42.01,63.47Z"/>
    </g>
    <line class="cls-7" x1="184.62" y1="954.24" x2="628.05" y2="1014.05"/>
    <ellipse class="cls-1" cx="637.25" cy="1013.53" rx="35.53" ry="44.85"/>
    <g id="arrow">
      <line class="cls-6" x1="113.9" y1="136.21" x2="432.77" y2="352.75"/>
      <polyline class="cls-6" points="421.36 310.57 432.77 352.75 389.55 359.19"/>
    </g>
    <g id="arrow-2" data-name="arrow">
      <line class="cls-4" x1="245.52" y1="573.01" x2="601.73" y2="720.25"/>
      <polyline class="cls-4" points="581.99 681.27 601.73 720.25 560.72 735.33"/>
    </g>
    <g id="arrow-3" data-name="arrow">
      <line class="cls-5" x1="10" y1="1280.67" x2="389.55" y2="1213.56"/>
      <polyline class="cls-5" points="351.96 1191.28 389.55 1213.56 363.06 1248.3"/>
    </g>
    <g>
      <path class="cls-8" d="M448.61,338.45c-10.02,11.03-20.03,22.07-30.05,33.1-1.13,1.25-.88,3.87,1.1,4.18,4.4.68,8.18-1.17,11.63-3.76,3-2.25,5.92-4.65,8.68-7.19,5.4-4.98,10.28-11.08,11.56-18.51.44-2.56-2.19-4.01-4.18-2.43-7.29,5.77-13.71,12.47-19.27,19.92l4.32,2.52c3.98-6.01,8.47-11.64,13.44-16.86l-3.93-3.03c-3.57,5.77-7.7,11.13-12.35,16.06l3.54,3.54c6.67-8.29,13.35-16.59,20.02-24.88.85-1.05,1.03-2.51,0-3.54-.92-.92-2.62-1-3.54,0-8.89,9.71-17.78,19.42-26.67,29.12l3.93,3.03c7.17-10.58,15.65-20.22,25.18-28.75l-3.54-3.54c-10.47,10.64-21.19,21.02-32.17,31.13l3.54,3.54c9.51-10.34,19.83-19.9,30.88-28.58l-3.54-3.54c-10.92,10.22-21.85,20.44-32.77,30.67l3.54,3.54c9.74-11.11,19.61-22.41,31.83-30.88l-3.03-3.93c-13.91,13.34-27.27,27.25-40.04,41.68-3.66,4.14-7.28,8.33-10.84,12.55-.87,1.03-1.01,2.52,0,3.54.89.89,2.66,1.04,3.54,0,12.43-14.73,25.46-28.95,39.05-42.61,3.9-3.92,7.85-7.79,11.84-11.62,2-1.92-.65-5.57-3.03-3.93-12.6,8.73-22.8,20.2-32.85,31.66-2.11,2.41,1.17,5.75,3.54,3.54,10.92-10.22,21.85-20.44,32.77-30.67.99-.92.93-2.6,0-3.54-1.05-1.05-2.47-.84-3.54,0-11.05,8.68-21.38,18.24-30.88,28.58-2.18,2.37,1.16,5.72,3.54,3.54,10.97-10.11,21.7-20.49,32.17-31.13,2.27-2.31-1.15-5.67-3.54-3.54-9.85,8.81-18.55,18.83-25.96,29.76-1.59,2.35,2.02,5.12,3.93,3.03,8.89-9.71,17.78-19.42,26.67-29.12l-3.54-3.54c-6.67,8.29-13.35,16.59-20.02,24.88-.85,1.05-1.03,2.51,0,3.54.94.94,2.6.98,3.54,0,4.94-5.23,9.35-10.95,13.14-17.07,1.49-2.4-1.96-5.09-3.93-3.03-5.26,5.52-10.02,11.51-14.23,17.87-.75,1.13-.22,2.77.9,3.42,1.28.75,2.61.19,3.42-.9,5.29-7.08,11.56-13.42,18.49-18.9l-4.18-2.43c-1.11,6.38-5.1,11.43-9.7,15.76-2.37,2.23-4.89,4.29-7.44,6.31-2.29,1.81-5.43,4.37-8.58,3.88l1.1,4.18c10.02-11.03,20.03-22.07,30.05-33.1,2.16-2.38-1.37-5.92-3.54-3.54h0Z"/>
      <path class="cls-8" d="M614.71,710.7c-4.94,11.47-10.68,22.79-18.67,32.47l3.93,3.03c6.3-11.59,12.61-23.19,18.91-34.78,1.54-2.84-2.57-5.22-4.32-2.52-5.76,8.93-12,17.54-18.7,25.78l3.93,3.03c5.48-10.43,11.66-20.49,18.48-30.1l-4.32-2.52c-7.57,12.15-15.17,24.36-24.44,35.3l3.93,3.03c6.11-11.36,13.43-22.03,21.89-31.76l-3.54-3.54c-8.38,10.45-16.76,20.91-25.14,31.36l3.93,3.03c7.29-12.78,15.74-24.86,25.28-36.05l-3.93-3.03c-10.36,14.57-20.31,29.43-29.86,44.55l4.32,2.52c8.26-14.95,17.97-29.07,29.01-42.1l-3.54-3.54c-13.15,16.46-26.3,32.93-39.46,49.39-.84,1.05-1.03,2.51,0,3.54.87.87,2.69,1.06,3.54,0,13.15-16.46,26.3-32.93,39.46-49.39.84-1.05,1.03-2.51,0-3.54-.9-.9-2.66-1.03-3.54,0-11.32,13.35-21.33,27.79-29.8,43.11-1.56,2.83,2.6,5.24,4.32,2.52,9.55-15.12,19.51-29.97,29.86-44.55,1.63-2.3-2.09-5.19-3.93-3.03-9.82,11.52-18.56,23.92-26.06,37.07-.61,1.07-.35,2.48.64,3.23.91.68,2.49.79,3.28-.2,8.38-10.45,16.76-20.91,25.14-31.36.84-1.05,1.03-2.51,0-3.54-.9-.9-2.65-1.02-3.54,0-8.74,10.06-16.36,21.04-22.67,32.77-1.28,2.39,2.01,5.29,3.93,3.03,9.55-11.28,17.42-23.8,25.22-36.31.71-1.15.24-2.75-.9-3.42-1.25-.73-2.64-.21-3.42.9-6.82,9.61-13,19.66-18.48,30.1-.58,1.1-.38,2.46.64,3.23.91.68,2.49.78,3.28-.2,6.97-8.57,13.49-17.51,19.48-26.8l-4.32-2.52c-6.3,11.59-12.61,23.19-18.91,34.78-.59,1.09-.37,2.47.64,3.23.92.69,2.48.78,3.28-.2,8.29-10.04,14.32-21.58,19.45-33.49.53-1.24.37-2.68-.9-3.42-1.05-.62-2.88-.35-3.42.9h0Z"/>
      <path class="cls-8" d="M608.23,705.79c-9.41,14.19-18.81,28.39-28.22,42.58l4.32,2.52c10.31-15.71,20.62-31.42,30.93-47.13,1.77-2.7-2.56-5.21-4.32-2.52-10.31,15.71-20.62,31.42-30.93,47.13-1.77,2.7,2.55,5.2,4.32,2.52,9.41-14.19,18.81-28.39,28.22-42.58,1.78-2.69-2.55-5.2-4.32-2.52h0Z"/>
    </g>
    <path class="cls-8" d="M445.04,334.18c-12.34,13.88-24.68,27.76-37.02,41.64-3.49,3.92-6.97,7.84-10.46,11.76-2.13,2.4,1.39,5.95,3.54,3.54,12.34-13.88,24.68-27.76,37.02-41.64,3.49-3.92,6.97-7.84,10.46-11.76,2.13-2.4-1.39-5.95-3.54-3.54h0Z"/>
  </g>
</svg>