<?xml version="1.0" encoding="UTF-8"?>
<svg id="Layer_2" data-name="Layer 2" xmlns="http://www.w3.org/2000/svg" xmlns:xlink="http://www.w3.org/1999/xlink" viewBox="0 0 581.2 686.91">
  <defs>
    <style>
      .cls-1 {
        fill: #ff981c;
      }

      .cls-2 {
        fill: #fff;
      }

      .cls-3 {
        fill: #5f2641;
      }

      .cls-4, .cls-5, .cls-6, .cls-7 {
        fill: none;
      }

      .cls-5, .cls-6 {
        stroke-miterlimit: 10;
      }

      .cls-5, .cls-6, .cls-7 {
        stroke-linecap: round;
        stroke-width: 20px;
      }

      .cls-5, .cls-7 {
        stroke: #5f2641;
      }

      .cls-6 {
        stroke: #2f222e;
      }

      .cls-8 {
        fill: #ffeee9;
      }

      .cls-7 {
        stroke-linejoin: round;
      }

      .cls-9 {
        clip-path: url(#clippath);
      }

      .cls-10 {
        fill: #d2ff4f;
      }

      .cls-11 {
        fill: #fff3e5;
      }

      .cls-12 {
        fill: #2f222e;
      }
    </style>
    <clipPath id="clippath">
      <rect class="cls-4" x="43.21" y="150.64" width="492.66" height="492.66" rx="149.69" ry="149.69"/>
    </clipPath>
  </defs>
  <g id="avatar_rounded">
    <g id="avatar_square_round">
      <g class="cls-9">
        <rect class="cls-1" x="37.34" y="144.76" width="504.41" height="504.41"/>
        <g id="Head">
          <g>
            <path class="cls-1" d="M555.88,283.46c-40.21,69.22-127.76,93.41-195.55,54.04-67.79-39.38-90.15-127.41-49.95-196.63,18.46-31.77,74.21-68.23,129.14-98.37,26.89-14.76,53.58-28.01,75.6-38.45,26.11-12.38,55.99,4.97,58.17,33.78,1.86,24.66,3.61,54.93,4.08,86.08.94,62.25-3.17,128.01-21.49,159.56Z"/>
            <path class="cls-12" d="M577.37,123.91c-12.24,5.48-25.8,8.53-40.08,8.53-51.43,0-93.62-39.58-97.77-89.94,26.89-14.76,53.58-28.01,75.6-38.45,26.11-12.38,55.99,4.97,58.17,33.78,1.86,24.66,3.61,54.93,4.08,86.08Z"/>
            <path class="cls-8" d="M519.96,261.34c-28.26,48.66-89.8,65.66-137.45,37.99-47.65-27.68-63.37-89.56-35.11-138.22,21.1-36.33,111.6-81.38,156.1-101.87,12.28-5.65,26.44,2.57,27.61,16.04,4.25,48.8,9.96,149.73-11.14,186.06Z"/>
          </g>
          <g>
            <path class="cls-1" d="M23.63,283.46c40.21,69.22,127.76,93.41,195.55,54.04,67.79-39.38,90.15-127.41,49.95-196.63-18.46-31.77-74.21-68.23-129.14-98.37-26.89-14.76-53.58-28.01-75.6-38.45C38.28-8.33,8.41,9.02,6.23,37.83c-1.86,24.66-3.61,54.93-4.08,86.08-.94,62.25,3.17,128.01,21.49,159.56Z"/>
            <path class="cls-12" d="M2.15,123.91c12.24,5.48,25.8,8.53,40.08,8.53,51.43,0,93.62-39.58,97.77-89.94-26.89-14.76-53.58-28.01-75.6-38.45C38.28-8.33,8.41,9.02,6.23,37.83c-1.86,24.66-3.61,54.93-4.08,86.08Z"/>
            <path class="cls-8" d="M59.55,261.34c28.26,48.66,89.8,65.66,137.45,37.99,47.65-27.68,63.37-89.56,35.11-138.22-21.1-36.33-111.6-81.38-156.1-101.87-12.28-5.65-26.44,2.57-27.61,16.04-4.25,48.8-9.96,149.73,11.14,186.06Z"/>
          </g>
          <rect class="cls-1" x="52.87" y="110.9" width="477.57" height="558.27" rx="238.78" ry="238.78"/>
          <g>
            <rect class="cls-10" x="318.98" y="291.89" width="116.88" height="168.29" rx="58.44" ry="58.44"/>
            <rect class="cls-12" x="331.53" y="345.3" width="72.21" height="94.26" rx="36.11" ry="36.11"/>
            <circle class="cls-2" cx="388.5" cy="366.17" r="20.86"/>
          </g>
          <g>
            <rect class="cls-10" x="145.57" y="291.89" width="116.88" height="168.29" rx="58.44" ry="58.44"/>
            <rect class="cls-12" x="177.7" y="345.3" width="72.21" height="94.26" rx="36.11" ry="36.11" transform="translate(427.6 784.86) rotate(180)"/>
            <circle class="cls-2" cx="192.94" cy="366.17" r="20.86"/>
          </g>
          <path class="cls-11" d="M544.83,379.99c20.94-2.91,38.89,14.91,36.08,35.87-19.17,142.89-142.4,254.01-290.32,254.01h0c-147.88,0-271.08-111.07-290.3-253.9-2.82-20.98,15.2-38.86,36.16-35.85,84.97,12.19,203.13,56.3,239.98,70.6,7.37,2.86,15.53,2.89,22.91.07,37.45-14.27,158.72-58.75,245.49-70.79Z"/>
          <ellipse class="cls-11" cx="235.21" cy="482.13" rx="55.39" ry="61.36"/>
          <ellipse class="cls-11" cx="345.99" cy="482.14" rx="55.39" ry="61.37"/>
          <path class="cls-6" d="M290.6,488.12c0,30.59-24.8,55.39-55.39,55.39s-55.39-24.8-55.39-55.39"/>
          <path class="cls-6" d="M401.38,488.12c0,30.59-24.8,55.39-55.39,55.39s-55.39-24.8-55.39-55.39"/>
          <path class="cls-12" d="M311.26,476.74l4.31-5.4c13.84-17.32,1.5-42.95-20.66-42.95h-8.63c-22.17,0-34.5,25.63-20.66,42.95l4.31,5.4c10.59,13.25,30.74,13.25,41.33,0Z"/>
          <circle class="cls-3" cx="216" cy="463.53" r="3.82"/>
          <circle class="cls-3" cx="239.76" cy="477.84" r="3.82"/>
          <circle class="cls-3" cx="224.13" cy="500.74" r="3.82"/>
          <circle class="cls-3" cx="357.87" cy="464" r="3.82"/>
          <circle class="cls-3" cx="334.11" cy="478.31" r="3.82"/>
          <circle class="cls-3" cx="349.74" cy="501.22" r="3.82"/>
          <ellipse class="cls-1" cx="310.88" cy="131.58" rx="65.75" ry="29"/>
          <path class="cls-1" d="M245.14,131.58c9.51-12.88,29.44-29,65.75-29"/>
          <path class="cls-5" d="M310.88,102.59c36.31,0,65.75,12.98,65.75,29s-29.44,29-65.75,29c-2.36,0-4.68-.05-6.98-.16"/>
          <ellipse class="cls-1" cx="303.91" cy="102.59" rx="65.75" ry="29" transform="translate(-10.58 165.7) rotate(-30)"/>
          <path class="cls-7" d="M145.57,269.97c1.42-2.31,10.21-16.03,30.87-22.81,24.59-8.08,44.44.75,46.31,1.61"/>
          <path class="cls-7" d="M435.87,269.97c-1.42-2.31-10.21-16.03-30.87-22.81-24.59-8.08-44.44.75-46.31,1.61"/>
        </g>
        <polygon class="cls-1" points="7.62 292.65 87.54 292.65 159.95 188.53 445.19 198.57 512.39 292.65 555.48 284.15 545.25 98.51 201.76 98.51 19.56 107.47 7.62 292.65"/>
        <polygon class="cls-11" points="37.34 523.66 233.12 603.28 437.72 563.47 557.14 498.04 576.61 663.02 360.06 686.91 77.81 686.91 .15 628.67 37.34 523.66"/>
      </g>
    </g>
  </g>
</svg>