<?xml version="1.0" encoding="UTF-8"?>
<svg id="Layer_2" data-name="Layer 2" xmlns="http://www.w3.org/2000/svg" xmlns:xlink="http://www.w3.org/1999/xlink" viewBox="0 0 626.8 740.81">
  <defs>
    <style>
      .cls-1 {
        fill: #ff981c;
      }

      .cls-2 {
        fill: #fff;
      }

      .cls-3 {
        fill: #5f2641;
      }

      .cls-4, .cls-5, .cls-6, .cls-7 {
        fill: none;
      }

      .cls-5, .cls-6 {
        stroke-miterlimit: 10;
      }

      .cls-5, .cls-6, .cls-7 {
        stroke-linecap: round;
        stroke-width: 20px;
      }

      .cls-5, .cls-7 {
        stroke: #5f2641;
      }

      .cls-6 {
        stroke: #2f222e;
      }

      .cls-8 {
        fill: #ffeee9;
      }

      .cls-7 {
        stroke-linejoin: round;
      }

      .cls-9 {
        clip-path: url(#clippath);
      }

      .cls-10 {
        fill: #d2ff4f;
      }

      .cls-11 {
        fill: #fff3e5;
      }

      .cls-12 {
        fill: #2f222e;
      }
    </style>
    <clipPath id="clippath">
      <rect class="cls-4" x="71.93" y="187.78" width="480.66" height="480.66" rx="76.37" ry="76.37"/>
    </clipPath>
  </defs>
  <g id="avatar_square_round">
    <g id="avatar_rounded">
      <g class="cls-9">
        <rect class="cls-1" x="40.27" y="156.12" width="543.99" height="543.99"/>
        <g id="Head">
          <g>
            <path class="cls-1" d="M599.5,305.71c-43.36,74.65-137.78,100.74-210.89,58.28-73.11-42.47-97.22-137.41-53.87-212.06,19.9-34.26,80.04-73.58,139.27-106.09,29-15.92,57.78-30.2,81.53-41.47,28.16-13.35,60.38,5.36,62.73,36.43,2.01,26.6,3.89,59.24,4.4,92.84,1.01,67.13-3.42,138.06-23.17,172.07Z"/>
            <path class="cls-12" d="M622.67,133.63c-13.2,5.91-27.82,9.2-43.22,9.2-55.47,0-100.96-42.69-105.44-97,29-15.92,57.78-30.2,81.53-41.47,28.16-13.35,60.38,5.36,62.73,36.43,2.01,26.6,3.89,59.24,4.4,92.84Z"/>
            <path class="cls-8" d="M560.76,281.85c-30.48,52.47-96.85,70.82-148.24,40.97-51.39-29.85-68.34-96.59-37.87-149.06,22.76-39.18,120.36-87.76,168.35-109.86,13.24-6.1,28.51,2.77,29.78,17.3,4.58,52.63,10.74,161.48-12.02,200.66Z"/>
          </g>
          <g>
            <path class="cls-1" d="M25.49,305.71c43.36,74.65,137.78,100.74,210.89,58.28,73.11-42.47,97.22-137.41,53.87-212.06-19.9-34.26-80.04-73.58-139.27-106.09-29-15.92-57.78-30.2-81.53-41.47C41.29-8.98,9.07,9.73,6.72,40.8c-2.01,26.6-3.89,59.24-4.4,92.84-1.01,67.13,3.42,138.06,23.17,172.07Z"/>
            <path class="cls-12" d="M2.31,133.63c13.2,5.91,27.82,9.2,43.22,9.2,55.47,0,100.96-42.69,105.44-97-29-15.92-57.78-30.2-81.53-41.47C41.29-8.98,9.07,9.73,6.72,40.8c-2.01,26.6-3.89,59.24-4.4,92.84Z"/>
            <path class="cls-8" d="M64.22,281.85c30.48,52.47,96.85,70.82,148.24,40.97,51.39-29.85,68.34-96.59,37.87-149.06-22.76-39.18-120.36-87.76-168.35-109.86-13.24-6.1-28.51,2.77-29.78,17.3-4.58,52.63-10.74,161.48,12.02,200.66Z"/>
          </g>
          <rect class="cls-1" x="57.02" y="119.6" width="515.04" height="602.08" rx="252.21" ry="252.21"/>
          <g>
            <rect class="cls-10" x="344.01" y="314.79" width="126.05" height="181.49" rx="61.73" ry="61.73"/>
            <rect class="cls-12" x="357.54" y="372.4" width="77.88" height="101.65" rx="38.14" ry="38.14"/>
            <circle class="cls-2" cx="418.98" cy="394.9" r="22.5"/>
          </g>
          <g>
            <rect class="cls-10" x="156.99" y="314.79" width="126.05" height="181.49" rx="61.73" ry="61.73"/>
            <rect class="cls-12" x="191.64" y="372.4" width="77.88" height="101.65" rx="38.14" ry="38.14" transform="translate(461.15 846.45) rotate(180)"/>
            <circle class="cls-2" cx="208.08" cy="394.9" r="22.5"/>
          </g>
          <path class="cls-11" d="M587.58,409.8c22.58-3.13,41.94,16.08,38.91,38.68-20.68,154.1-153.57,273.94-313.09,273.94h0C153.91,722.42,21.04,602.64.32,448.6c-3.05-22.63,16.39-41.91,39-38.67,91.64,13.14,219.06,60.72,258.81,76.14,7.94,3.08,16.74,3.11,24.71.08,40.39-15.39,171.17-63.36,264.75-76.34Z"/>
          <ellipse class="cls-11" cx="253.67" cy="519.96" rx="59.73" ry="66.17"/>
          <ellipse class="cls-11" cx="373.14" cy="519.97" rx="59.73" ry="66.18"/>
          <path class="cls-6" d="M313.4,526.42c0,32.99-26.74,59.73-59.73,59.73s-59.73-26.74-59.73-59.73"/>
          <path class="cls-6" d="M432.87,526.42c0,32.99-26.74,59.73-59.73,59.73s-59.73-26.74-59.73-59.73"/>
          <path class="cls-12" d="M334.06,516.18l8.96-11.22c13.84-17.32,1.5-42.95-20.66-42.95h-17.93c-22.17,0-34.5,25.63-20.66,42.95l8.96,11.22c10.59,13.25,30.74,13.25,41.33,0Z"/>
          <circle class="cls-3" cx="232.95" cy="499.9" r="4.12"/>
          <circle class="cls-3" cx="258.57" cy="515.33" r="4.12"/>
          <circle class="cls-3" cx="241.71" cy="540.03" r="4.12"/>
          <circle class="cls-3" cx="385.95" cy="500.41" r="4.12"/>
          <circle class="cls-3" cx="360.33" cy="515.84" r="4.12"/>
          <circle class="cls-3" cx="377.19" cy="540.54" r="4.12"/>
          <ellipse class="cls-1" cx="335.28" cy="141.91" rx="70.9" ry="31.27"/>
          <path class="cls-1" d="M264.37,141.91c10.26-13.9,31.75-31.27,70.9-31.27"/>
          <path class="cls-5" d="M335.28,110.64c39.16,0,70.9,14,70.9,31.27s-31.75,31.27-70.9,31.27c-2.54,0-5.05-.06-7.52-.17"/>
          <ellipse class="cls-1" cx="327.75" cy="110.64" rx="70.9" ry="31.27" transform="translate(-11.41 178.7) rotate(-30)"/>
          <path class="cls-7" d="M156.99,291.16c1.54-2.49,11.01-17.28,33.29-24.6,26.52-8.71,47.93.8,49.94,1.74"/>
          <path class="cls-7" d="M470.07,291.16c-1.54-2.49-11.01-17.28-33.29-24.6-26.52-8.71-47.93.8-49.94,1.74"/>
        </g>
        <polygon class="cls-1" points="8.22 315.61 94.4 315.61 172.5 203.32 480.12 214.15 552.6 315.61 599.06 306.45 588.03 106.24 217.59 106.24 21.1 115.9 8.22 315.61"/>
        <polygon class="cls-11" points="40.27 564.75 251.41 650.62 472.07 607.68 600.86 537.12 621.85 715.04 388.31 740.81 83.91 740.81 .16 678 40.27 564.75"/>
      </g>
    </g>
  </g>
</svg>