<?xml version="1.0" encoding="UTF-8"?>
<svg id="Layer_2" data-name="Layer 2" xmlns="http://www.w3.org/2000/svg" xmlns:xlink="http://www.w3.org/1999/xlink" viewBox="0 0 577.54 682.58">
  <defs>
    <style>
      .cls-1 {
        fill: #ff981c;
      }

      .cls-2 {
        fill: #fff;
      }

      .cls-3 {
        fill: #5f2641;
      }

      .cls-4, .cls-5, .cls-6, .cls-7 {
        fill: none;
      }

      .cls-5, .cls-6 {
        stroke-miterlimit: 10;
      }

      .cls-5, .cls-6, .cls-7 {
        stroke-linecap: round;
        stroke-width: 20px;
      }

      .cls-5, .cls-7 {
        stroke: #5f2641;
      }

      .cls-6 {
        stroke: #2f222e;
      }

      .cls-8 {
        fill: #ffeee9;
      }

      .cls-7 {
        stroke-linejoin: round;
      }

      .cls-9 {
        clip-path: url(#clippath);
      }

      .cls-10 {
        fill: #d2ff4f;
      }

      .cls-11 {
        fill: #fff3e5;
      }

      .cls-12 {
        fill: #2f222e;
      }
    </style>
    <clipPath id="clippath">
      <rect class="cls-4" x="41.39" y="148.13" width="492.66" height="492.66" rx="246.33" ry="246.33"/>
    </clipPath>
  </defs>
  <g id="avatar_general">
    <rect class="cls-1" x="41.41" y="148.13" width="492.64" height="492.66"/>
    <g class="cls-9">
      <rect class="cls-1" x="37.11" y="143.85" width="501.23" height="501.23"/>
      <g id="Head">
        <g>
          <path class="cls-1" d="M552.38,281.68c-39.95,68.78-126.95,92.82-194.31,53.7-67.36-39.13-89.58-126.61-49.64-195.39,18.34-31.57,73.75-67.8,128.33-97.75,26.72-14.67,53.24-27.83,75.12-38.21,25.95-12.3,55.63,4.94,57.8,33.57,1.85,24.51,3.58,54.59,4.06,85.54.94,61.86-3.15,127.2-21.35,158.55Z"/>
          <path class="cls-12" d="M573.73,123.13c-12.16,5.45-25.64,8.48-39.82,8.48-51.11,0-93.03-39.33-97.15-89.38,26.72-14.67,53.24-27.83,75.12-38.21,25.95-12.3,55.63,4.94,57.8,33.57,1.85,24.51,3.58,54.59,4.06,85.54Z"/>
          <path class="cls-8" d="M516.68,259.69c-28.08,48.35-89.24,65.25-136.59,37.75-47.35-27.5-62.97-89-34.89-137.35,20.97-36.1,110.9-80.87,155.11-101.23,12.2-5.62,26.27,2.56,27.44,15.94,4.22,48.5,9.89,148.79-11.07,184.89Z"/>
        </g>
        <g>
          <path class="cls-1" d="M23.48,281.68c39.95,68.78,126.95,92.82,194.31,53.7,67.36-39.13,89.58-126.61,49.64-195.39-18.34-31.57-73.75-67.8-128.33-97.75C112.39,27.56,85.87,14.4,63.99,4.02,38.04-8.28,8.36,8.96,6.19,37.59c-1.85,24.51-3.58,54.59-4.06,85.54-.94,61.86,3.15,127.2,21.35,158.55Z"/>
          <path class="cls-12" d="M2.13,123.13c12.16,5.45,25.64,8.48,39.82,8.48,51.11,0,93.03-39.33,97.15-89.38C112.39,27.56,85.87,14.4,63.99,4.02,38.04-8.28,8.36,8.96,6.19,37.59c-1.85,24.51-3.58,54.59-4.06,85.54Z"/>
          <path class="cls-8" d="M59.18,259.69c28.08,48.35,89.24,65.25,136.59,37.75,47.35-27.5,62.97-89,34.89-137.35-20.97-36.1-110.9-80.87-155.11-101.23-12.2-5.62-26.27,2.56-27.44,15.94-4.22,48.5-9.89,148.79,11.07,184.89Z"/>
        </g>
        <rect class="cls-1" x="52.54" y="110.2" width="474.56" height="554.75" rx="237.28" ry="237.28"/>
        <g>
          <rect class="cls-10" x="316.97" y="290.05" width="116.15" height="167.23" rx="58.07" ry="58.07"/>
          <rect class="cls-12" x="329.44" y="343.13" width="71.76" height="93.66" rx="35.88" ry="35.88"/>
          <circle class="cls-2" cx="386.05" cy="363.86" r="20.73"/>
        </g>
        <g>
          <rect class="cls-10" x="144.65" y="290.05" width="116.15" height="167.23" rx="58.07" ry="58.07"/>
          <rect class="cls-12" x="176.58" y="343.13" width="71.76" height="93.66" rx="35.88" ry="35.88" transform="translate(424.91 779.91) rotate(180)"/>
          <circle class="cls-2" cx="191.72" cy="363.86" r="20.73"/>
        </g>
        <path class="cls-11" d="M541.4,377.59c20.81-2.89,38.64,14.82,35.85,35.64-19.05,141.99-141.5,252.41-288.48,252.41h0c-146.95,0-269.37-110.37-288.47-252.3-2.81-20.85,15.1-38.62,35.93-35.63,84.44,12.11,201.85,55.95,238.47,70.16,7.32,2.84,15.43,2.87,22.77.07,37.21-14.18,157.72-58.38,243.94-70.34Z"/>
        <ellipse class="cls-11" cx="233.73" cy="479.09" rx="55.04" ry="60.97"/>
        <ellipse class="cls-11" cx="343.81" cy="479.1" rx="55.04" ry="60.98"/>
        <path class="cls-6" d="M288.77,485.04c0,30.4-24.64,55.04-55.04,55.04s-55.04-24.64-55.04-55.04"/>
        <path class="cls-6" d="M398.85,485.04c0,30.4-24.64,55.04-55.04,55.04s-55.04-24.64-55.04-55.04"/>
        <path class="cls-12" d="M309.43,473.57l3.94-4.93c13.84-17.32,1.5-42.95-20.66-42.95h-7.88c-22.17,0-34.5,25.63-20.66,42.95l3.94,4.93c10.59,13.25,30.74,13.25,41.33,0Z"/>
        <circle class="cls-3" cx="214.64" cy="460.6" r="3.8"/>
        <circle class="cls-3" cx="238.25" cy="474.82" r="3.8"/>
        <circle class="cls-3" cx="222.71" cy="497.59" r="3.8"/>
        <circle class="cls-3" cx="355.61" cy="461.07" r="3.8"/>
        <circle class="cls-3" cx="332" cy="475.29" r="3.8"/>
        <circle class="cls-3" cx="347.54" cy="498.06" r="3.8"/>
        <ellipse class="cls-1" cx="308.92" cy="130.75" rx="65.33" ry="28.81"/>
        <path class="cls-1" d="M243.59,130.75c9.45-12.8,29.25-28.81,65.33-28.81"/>
        <path class="cls-5" d="M308.92,101.94c36.08,0,65.33,12.9,65.33,28.81s-29.25,28.81-65.33,28.81c-2.34,0-4.66-.05-6.93-.16"/>
        <ellipse class="cls-1" cx="301.99" cy="101.94" rx="65.33" ry="28.81" transform="translate(-10.51 164.65) rotate(-30)"/>
        <path class="cls-7" d="M144.65,268.27c1.41-2.3,10.14-15.93,30.67-22.67,24.44-8.03,44.16.74,46.01,1.6"/>
        <path class="cls-7" d="M433.12,268.27c-1.41-2.3-10.14-15.93-30.67-22.67-24.44-8.03-44.16.74-46.01,1.6"/>
      </g>
      <polygon class="cls-1" points="7.57 290.81 86.98 290.81 158.94 187.34 442.38 197.31 509.16 290.81 551.97 282.36 541.81 97.89 200.49 97.89 19.44 106.79 7.57 290.81"/>
      <polygon class="cls-11" points="37.11 520.36 231.65 599.48 434.96 559.92 553.63 494.9 572.97 658.84 357.79 682.58 77.32 682.58 .15 624.7 37.11 520.36"/>
    </g>
    <path class="cls-11" d="M534.05,640.8H41.41v-262.24s77.71,210.22,246.32,203.69,246.32-203.69,246.32-203.69v262.24Z"/>
  </g>
</svg>