<?xml version="1.0" encoding="UTF-8"?>
<svg id="Layer_2" data-name="Layer 2" xmlns="http://www.w3.org/2000/svg" xmlns:xlink="http://www.w3.org/1999/xlink" viewBox="0 0 812.12 1147.05">
  <defs>
    <style>
      .cls-1 {
        fill: #ff981c;
      }

      .cls-2 {
        fill: #fff;
      }

      .cls-3 {
        fill: #5f2641;
      }

      .cls-4, .cls-5 {
        stroke-miterlimit: 10;
      }

      .cls-4, .cls-5, .cls-6 {
        fill: none;
        stroke-linecap: round;
        stroke-width: 20px;
      }

      .cls-4, .cls-6 {
        stroke: #5f2641;
      }

      .cls-5 {
        stroke: #2f222e;
      }

      .cls-7 {
        fill: #ffeee9;
      }

      .cls-6 {
        stroke-linejoin: round;
      }

      .cls-8 {
        fill: url(#linear-gradient);
      }

      .cls-9 {
        fill: #d2ff4f;
      }

      .cls-10 {
        fill: #fff3e5;
      }

      .cls-11 {
        fill: #2f222e;
      }
    </style>
    <linearGradient id="linear-gradient" x1="488.9" y1="969.28" x2="710.64" y2="622.01" gradientUnits="userSpaceOnUse">
      <stop offset="0" stop-color="#ef7d00"/>
      <stop offset=".63" stop-color="#ff981c"/>
    </linearGradient>
  </defs>
  <g id="deri">
    <g id="Deri">
      <g id="Tail">
        <path class="cls-8" d="M810.68,520.7c-37.97,55.6-53.24,124.78-67.22,193.54-7.47,36.76-14.58,73.4-24.58,107.79-17.61,60.56-49.15,117.91-106.94,149.28-45.07,24.46-100.52,33.29-148.43,29.66-5.69-.43-27.85-4.69-20.56-15.38,58.07-85.29,63.8-201.38,91.79-301.33,11.4-37.79,27.55-74.04,51.96-103.6,14.96-18.13,33.02-33.75,54.99-45.68,45.06-24.46,100.52-33.29,148.43-29.66,6.08.46,27.76,4.83,20.56,15.38Z"/>
        <path class="cls-10" d="M810.68,520.7c-37.97,55.6-53.24,124.78-67.22,193.54-73.89-11.43-134.2-64.01-156.76-133.59,14.96-18.13,33.02-33.75,54.99-45.68,45.06-24.46,100.52-33.29,148.43-29.66,6.08.46,27.76,4.83,20.56,15.38Z"/>
      </g>
      <g id="Left_Arm" data-name="Left Arm">
        <path class="cls-1" d="M219.09,744.58c0,8.89-2.25,17.89-6.99,26.1l-87.13,150.91-9.03,15.64c-14.43,25-46.7,33.65-71.7,19.22-25-14.43-33.64-46.71-19.21-71.7l8.87-15.37,87.28-151.19c14.43-25,46.7-33.64,71.7-19.21,16.79,9.69,26.2,27.43,26.2,45.6Z"/>
        <path class="cls-11" d="M124.97,921.59l-9.03,15.64c-14.43,25-46.7,33.65-71.7,19.22-25-14.43-33.64-46.71-19.21-71.7l8.87-15.37c11.81,38.45,51.87,61.45,91.07,52.21Z"/>
      </g>
      <g id="Right_Arm" data-name="Right Arm">
        <path class="cls-1" d="M406.87,744.58c0,8.89,2.25,17.89,6.99,26.1l87.13,150.91,9.03,15.64c14.43,25,46.7,33.65,71.7,19.22,25-14.43,33.64-46.71,19.21-71.7l-8.87-15.37-87.28-151.19c-14.43-25-46.7-33.64-71.7-19.21-16.79,9.69-26.2,27.43-26.2,45.6Z"/>
        <path class="cls-11" d="M500.99,921.59l9.03,15.64c14.43,25,46.7,33.65,71.7,19.22,25-14.43,33.64-46.71,19.21-71.7l-8.87-15.37c-11.81,38.45-51.87,61.45-91.07,52.21Z"/>
      </g>
      <path id="Right_Foot" data-name="Right Foot" class="cls-11" d="M200.08,1054.39h23.36c30.87,0,55.94,25.06,55.94,55.94v1.91c0,19.21-15.6,34.81-34.81,34.81h-65.61c-19.21,0-34.81-15.6-34.81-34.81v-1.91c0-30.87,25.06-55.94,55.94-55.94Z"/>
      <path id="Left_Foot" data-name="Left Foot" class="cls-11" d="M405.65,1054.39h23.36c30.87,0,55.94,25.06,55.94,55.94v1.91c0,19.21-15.6,34.81-34.81,34.81h-65.61c-19.21,0-34.81-15.6-34.81-34.81v-1.91c0-30.87,25.06-55.94,55.94-55.94Z"/>
      <g id="Body">
        <path class="cls-1" d="M309.7,646.87h7.41c97.14,0,176.01,78.87,176.01,176.01v79.65c0,76.99-62.51,139.49-139.49,139.49h-80.44c-76.99,0-139.49-62.51-139.49-139.49v-79.65c0-97.14,78.87-176.01,176.01-176.01Z"/>
        <ellipse class="cls-10" cx="313.4" cy="815.58" rx="93.46" ry="158.66"/>
      </g>
      <g id="Head">
        <g>
          <path class="cls-1" d="M599.5,305.71c-43.36,74.65-137.78,100.74-210.89,58.28-73.11-42.47-97.22-137.41-53.87-212.06,19.9-34.26,80.04-73.58,139.27-106.09,29-15.92,57.78-30.2,81.53-41.47,28.16-13.35,60.38,5.36,62.73,36.43,2.01,26.6,3.89,59.24,4.4,92.84,1.01,67.13-3.42,138.06-23.17,172.07Z"/>
          <path class="cls-11" d="M622.67,133.63c-13.2,5.91-27.82,9.2-43.22,9.2-55.47,0-100.96-42.69-105.44-97,29-15.92,57.78-30.2,81.53-41.47,28.16-13.35,60.38,5.36,62.73,36.43,2.01,26.6,3.89,59.24,4.4,92.84Z"/>
          <path class="cls-7" d="M560.76,281.85c-30.48,52.47-96.85,70.82-148.24,40.97-51.39-29.85-68.34-96.59-37.87-149.06,22.76-39.18,120.36-87.76,168.35-109.86,13.24-6.1,28.51,2.77,29.78,17.3,4.58,52.63,10.74,161.48-12.02,200.66Z"/>
        </g>
        <g>
          <path class="cls-1" d="M25.49,305.71c43.36,74.65,137.78,100.74,210.89,58.28,73.11-42.47,97.22-137.41,53.87-212.06-19.9-34.26-80.04-73.58-139.27-106.09-29-15.92-57.78-30.2-81.53-41.47C41.29-8.98,9.07,9.73,6.72,40.8c-2.01,26.6-3.89,59.24-4.4,92.84-1.01,67.13,3.42,138.06,23.17,172.07Z"/>
          <path class="cls-11" d="M2.31,133.63c13.2,5.91,27.82,9.2,43.22,9.2,55.47,0,100.96-42.69,105.44-97-29-15.92-57.78-30.2-81.53-41.47C41.29-8.98,9.07,9.73,6.72,40.8c-2.01,26.6-3.89,59.24-4.4,92.84Z"/>
          <path class="cls-7" d="M64.22,281.85c30.48,52.47,96.85,70.82,148.24,40.97,51.39-29.85,68.34-96.59,37.87-149.06-22.76-39.18-120.36-87.76-168.35-109.86-13.24-6.1-28.51,2.77-29.78,17.3-4.58,52.63-10.74,161.48,12.02,200.66Z"/>
        </g>
        <rect class="cls-1" x="57.02" y="119.6" width="515.04" height="602.08" rx="252.21" ry="252.21"/>
        <g>
          <rect class="cls-9" x="344.01" y="314.79" width="126.05" height="181.49" rx="61.73" ry="61.73"/>
          <rect class="cls-11" x="357.54" y="372.4" width="77.88" height="101.65" rx="38.14" ry="38.14"/>
          <circle class="cls-2" cx="418.98" cy="394.9" r="22.5"/>
        </g>
        <g>
          <rect class="cls-9" x="156.99" y="314.79" width="126.05" height="181.49" rx="61.73" ry="61.73"/>
          <rect class="cls-11" x="191.64" y="372.4" width="77.88" height="101.65" rx="38.14" ry="38.14" transform="translate(461.15 846.45) rotate(180)"/>
          <circle class="cls-2" cx="208.08" cy="394.9" r="22.5"/>
        </g>
        <path class="cls-10" d="M587.58,409.8c22.58-3.13,41.94,16.08,38.91,38.68-20.68,154.1-153.57,273.94-313.09,273.94h0C153.91,722.42,21.04,602.64.32,448.6c-3.05-22.63,16.39-41.91,39-38.67,91.64,13.14,219.06,60.72,258.81,76.14,7.94,3.08,16.74,3.11,24.71.08,40.39-15.39,171.17-63.36,264.75-76.34Z"/>
        <ellipse class="cls-10" cx="253.67" cy="519.96" rx="59.73" ry="66.17"/>
        <ellipse class="cls-10" cx="373.14" cy="519.97" rx="59.73" ry="66.18"/>
        <path class="cls-5" d="M313.4,526.42c0,32.99-26.74,59.73-59.73,59.73s-59.73-26.74-59.73-59.73"/>
        <path class="cls-5" d="M432.87,526.42c0,32.99-26.74,59.73-59.73,59.73s-59.73-26.74-59.73-59.73"/>
        <path class="cls-11" d="M334.06,516.18l8.96-11.22c13.84-17.32,1.5-42.95-20.66-42.95h-17.93c-22.17,0-34.5,25.63-20.66,42.95l8.96,11.22c10.59,13.25,30.74,13.25,41.33,0Z"/>
        <circle class="cls-3" cx="232.95" cy="499.9" r="4.12"/>
        <circle class="cls-3" cx="258.57" cy="515.33" r="4.12"/>
        <circle class="cls-3" cx="241.71" cy="540.03" r="4.12"/>
        <circle class="cls-3" cx="385.95" cy="500.41" r="4.12"/>
        <circle class="cls-3" cx="360.33" cy="515.84" r="4.12"/>
        <circle class="cls-3" cx="377.19" cy="540.54" r="4.12"/>
        <ellipse class="cls-1" cx="335.28" cy="141.91" rx="70.9" ry="31.27"/>
        <path class="cls-1" d="M264.37,141.91c10.26-13.9,31.75-31.27,70.9-31.27"/>
        <path class="cls-4" d="M335.28,110.64c39.16,0,70.9,14,70.9,31.27s-31.75,31.27-70.9,31.27c-2.54,0-5.05-.06-7.52-.17"/>
        <ellipse class="cls-1" cx="327.75" cy="110.64" rx="70.9" ry="31.27" transform="translate(-11.41 178.7) rotate(-30)"/>
        <path class="cls-6" d="M156.99,291.16c1.54-2.49,11.01-17.28,33.29-24.6,26.52-8.71,47.93.8,49.94,1.74"/>
        <path class="cls-6" d="M470.07,291.16c-1.54-2.49-11.01-17.28-33.29-24.6-26.52-8.71-47.93.8-49.94,1.74"/>
      </g>
    </g>
  </g>
</svg>