<?xml version="1.0" encoding="UTF-8"?>
<svg id="Layer_2" data-name="Layer 2" xmlns="http://www.w3.org/2000/svg" xmlns:xlink="http://www.w3.org/1999/xlink" viewBox="0 0 874.43 1162.09">
  <defs>
    <style>
      .cls-1 {
        fill: #ff981c;
      }

      .cls-2 {
        fill: #ff694e;
      }

      .cls-3 {
        fill: #fff;
      }

      .cls-4 {
        fill: #5f2641;
      }

      .cls-5, .cls-6 {
        stroke-miterlimit: 10;
      }

      .cls-5, .cls-6, .cls-7 {
        fill: none;
        stroke-linecap: round;
        stroke-width: 20px;
      }

      .cls-5, .cls-7 {
        stroke: #5f2641;
      }

      .cls-6 {
        stroke: #2f222e;
      }

      .cls-8 {
        fill: #ffeee9;
      }

      .cls-7 {
        stroke-linejoin: round;
      }

      .cls-9 {
        fill: url(#linear-gradient);
      }

      .cls-10 {
        fill: #d2ff4f;
      }

      .cls-11 {
        fill: #fff3e5;
      }

      .cls-12 {
        fill: #2f222e;
      }
    </style>
    <linearGradient id="linear-gradient" x1="459.75" y1="1001.12" x2="677.47" y2="660.14" gradientTransform="translate(201.91 -71.74) rotate(9.68)" gradientUnits="userSpaceOnUse">
      <stop offset="0" stop-color="#ef7d00"/>
      <stop offset=".63" stop-color="#ff981c"/>
    </linearGradient>
  </defs>
  <g id="deri_hello">
    <g id="Deri">
      <g id="Tail">
        <path class="cls-9" d="M872.28,611.39c-45.93,47.55-72.13,111.98-97.02,176.22-13.3,34.34-26.23,68.64-41.58,100.27-27.04,55.71-67.04,106.01-128.15,126.83-47.66,16.23-102.79,15.62-148.56,4.2-5.43-1.36-26.18-9.13-17.36-18.28,70.29-72.96,95-184.38,138.59-276.5,17.28-34.7,38.89-67.11,67.39-91.69,17.47-15.08,37.53-27.21,60.76-35.13,47.66-16.24,102.79-15.63,148.56-4.2,5.8,1.44,26.07,9.26,17.36,18.28Z"/>
        <path class="cls-11" d="M872.28,611.39c-45.93,47.55-72.13,111.98-97.02,176.22-69.63-23.26-119.32-84.11-129.67-155.18,17.47-15.08,37.53-27.21,60.76-35.13,47.66-16.24,102.79-15.63,148.56-4.2,5.8,1.44,26.07,9.26,17.36,18.28Z"/>
      </g>
      <g id="Left_Arm" data-name="Left Arm">
        <path class="cls-1" d="M182.18,776.38c-8.55-1.76-16.76-5.7-23.72-11.88l-127.93-113.6-13.26-11.78c-21.2-18.82-23.14-51.56-4.32-72.76,18.82-21.2,51.57-23.13,72.75-4.32l13.03,11.57,128.18,113.81c21.2,18.82,23.14,51.56,4.32,72.75-12.64,14.24-31.55,19.79-49.03,16.2Z"/>
        <path class="cls-12" d="M30.52,650.9l-13.26-11.78c-21.2-18.82-23.14-51.56-4.32-72.76,18.82-21.2,51.57-23.13,72.75-4.32l13.03,11.57c-39.32,3.77-69.35,37.75-68.2,77.28Z"/>
      </g>
      <g id="Right_Arm" data-name="Right Arm">
        <path class="cls-1" d="M403.28,766.93c0,8.73,2.21,17.56,6.87,25.63l85.55,148.17,8.87,15.36c14.17,24.55,45.85,33.04,70.4,18.87,24.55-14.17,33.03-45.86,18.86-70.4l-8.71-15.09-85.7-148.45c-14.17-24.55-45.85-33.03-70.4-18.86-16.49,9.52-25.73,26.93-25.73,44.77Z"/>
        <path class="cls-12" d="M495.69,940.73l8.87,15.36c14.17,24.55,45.85,33.04,70.4,18.87,24.55-14.17,33.03-45.86,18.86-70.4l-8.71-15.09c-11.6,37.75-50.93,60.34-89.42,51.26Z"/>
      </g>
      <path id="Right_Foot" data-name="Right Foot" class="cls-12" d="M192.86,1061.71h24.85c29.78,0,53.96,24.18,53.96,53.96v3.43c0,18.54-15.05,33.58-33.58,33.58h-65.61c-18.54,0-33.58-15.05-33.58-33.58v-3.43c0-29.78,24.18-53.96,53.96-53.96Z" transform="translate(-184.93 50.9) rotate(-9.77)"/>
      <path id="Left_Foot" data-name="Left Foot" class="cls-12" d="M401.13,1071.12h24.85c29.78,0,53.96,24.18,53.96,53.96v3.43c0,18.54-15.05,33.58-33.58,33.58h-65.61c-18.54,0-33.58-15.05-33.58-33.58v-3.43c0-29.78,24.18-53.96,53.96-53.96Z"/>
      <g id="Body">
        <path class="cls-1" d="M323.42,672.07h13.29c93.72,0,169.81,76.09,169.81,169.81v83.6c0,74.28-60.3,134.58-134.58,134.58h-83.76c-74.28,0-134.58-60.3-134.58-134.58v-83.6c0-93.72,76.09-169.81,169.81-169.81Z" transform="translate(89.01 -28.87) rotate(5.79)"/>
        <ellipse class="cls-11" cx="332.92" cy="837.87" rx="155.78" ry="91.77" transform="translate(-534.24 1084.61) rotate(-84.21)"/>
      </g>
      <g id="Head">
        <g>
          <path class="cls-1" d="M693.34,397.69c-55.7,63.9-151.58,71.48-214.16,16.94-62.58-54.55-68.16-150.56-12.47-214.47,25.57-29.33,90.85-56.04,154.01-76.36,30.92-9.95,61.33-18.37,86.32-24.8,29.63-7.63,57.21,16.4,53.7,46.79-3.01,26.02-7.28,57.84-13.03,90.32-11.51,64.91-28.99,132.46-54.36,161.58Z"/>
          <path class="cls-12" d="M747.7,236.11c-13.82,3.24-28.54,3.69-43.38.83-53.47-10.32-89.39-59.94-83.6-113.14,30.92-9.95,61.33-18.37,86.32-24.8,29.63-7.63,57.21,16.4,53.7,46.79-3.01,26.02-7.28,57.84-13.03,90.32Z"/>
          <path class="cls-8" d="M660.43,367.48c-39.15,44.92-106.55,50.25-150.54,11.91-43.99-38.34-47.91-105.83-8.76-150.75,29.23-33.54,132.36-62.21,182.74-74.59,13.9-3.41,26.97,7.98,25.49,22.22-5.38,51.59-19.7,157.68-48.93,191.21Z"/>
        </g>
        <g>
          <path class="cls-1" d="M139.96,290.87c27.91,80.03,114.08,122.76,192.47,95.43,78.39-27.33,119.3-114.38,91.4-194.42-12.81-36.74-63.47-85.83-114.52-128.2-25-20.74-50.08-39.87-70.88-55.15-24.66-18.11-59.21-6.07-67.25,23.45-6.89,25.27-14.77,56.39-21.52,88.68-13.47,64.53-22.4,133.73-9.68,170.2Z"/>
          <path class="cls-12" d="M149.64,120.67c11.62,8.15,25.11,14.05,39.95,16.91,53.47,10.32,105.28-22.37,119.7-73.89-25-20.74-50.08-39.87-70.88-55.15-24.66-18.11-59.21-6.07-67.25,23.45-6.89,25.27-14.77,56.39-21.52,88.68Z"/>
          <path class="cls-8" d="M181.74,275.07c19.62,56.26,80.19,86.29,135.29,67.08,55.1-19.21,83.86-80.4,64.24-136.66-14.65-42.01-99.7-107.01-141.85-137.24-11.63-8.34-28.01-2.63-31.93,11.13-14.21,49.89-40.4,153.68-25.76,195.69Z"/>
        </g>
        <rect class="cls-1" x="144.38" y="159.88" width="505.7" height="591.15" rx="243.33" ry="243.33" transform="translate(93.53 -67.03) rotate(10.93)"/>
        <g>
          <rect class="cls-10" x="400.12" y="396.23" width="178.2" height="123.77" rx="59.55" ry="59.55" transform="translate(-53.32 851.64) rotate(-79.07)"/>
          <rect class="cls-12" x="440.29" y="408.91" width="76.46" height="99.81" rx="36.79" ry="36.79" transform="translate(95.63 -82.38) rotate(10.93)"/>
          <circle class="cls-3" cx="505.49" cy="435.69" r="22.09"/>
          <rect class="cls-10" x="219.82" y="361.43" width="178.2" height="123.77" rx="59.55" ry="59.55" transform="translate(-165.27 646.4) rotate(-79.07)"/>
          <rect class="cls-12" x="280.35" y="378.03" width="76.46" height="99.81" rx="36.79" ry="36.79" transform="translate(550.28 908.5) rotate(-169.07)"/>
          <circle class="cls-3" cx="302.16" cy="396.44" r="22.09"/>
        </g>
        <ellipse class="cls-1" cx="261.97" cy="531.4" rx="103.43" ry="130.1" transform="translate(-309.45 687.9) rotate(-79.07)"/>
        <ellipse class="cls-1" cx="495.1" cy="576.4" rx="103.43" ry="130.1" transform="translate(-164.7 953.28) rotate(-79.07)"/>
        <path class="cls-11" d="M662.48,495.83c22.35,1.18,37.44,23.31,30.31,44.53-48.61,144.71-199.03,235.51-352.82,205.83h0c-153.75-29.68-259.55-169.88-250.87-322.25,1.28-22.38,23.6-37.35,44.79-30.02,85.9,29.73,199.89,99.31,235.34,121.57,7.09,4.45,15.56,6.12,23.81,4.67,41.8-7.32,176.81-29.22,269.44-24.33Z"/>
        <path class="cls-4" d="M417.99,624.99c-3.4,17.59-15.21,31.43-30.46,38.14-9.43,4.16-20.17,5.58-31.06,3.48-10.97-2.12-20.48-7.51-27.7-14.96-11.55-11.89-17.29-29.05-13.91-46.56,5.5-28.49,33.04-47.11,61.52-41.61,28.48,5.5,47.11,33.04,41.61,61.52Z"/>
        <ellipse class="cls-11" cx="320.06" cy="539.9" rx="64.98" ry="58.65" transform="translate(-270.71 751.83) rotate(-79.07)"/>
        <ellipse class="cls-11" cx="435.24" cy="562.13" rx="64.98" ry="58.65" transform="translate(-199.2 882.94) rotate(-79.07)"/>
        <path class="cls-6" d="M376.45,557.23c-6.14,31.8-36.9,52.61-68.7,46.47-31.8-6.14-52.61-36.9-46.47-68.7"/>
        <path class="cls-6" d="M491.62,579.46c-6.14,31.8-36.9,52.61-68.7,46.47-31.8-6.14-52.61-36.9-46.47-68.7"/>
        <path class="cls-12" d="M398.73,550.81l9.51-8.11c16.87-14.38,9.62-41.89-12.15-46.09l-15.33-2.96c-21.77-4.2-38.73,18.63-28.43,38.26l5.81,11.07c7.88,15.02,27.67,18.84,40.58,7.83Z"/>
        <circle class="cls-4" cx="303.83" cy="516.69" r="4.05"/>
        <circle class="cls-4" cx="325.66" cy="536.33" r="4.05"/>
        <circle class="cls-4" cx="304.8" cy="557.01" r="4.05"/>
        <circle class="cls-4" cx="451.23" cy="545.65" r="4.05"/>
        <circle class="cls-4" cx="423.66" cy="555.76" r="4.05"/>
        <circle class="cls-4" cx="435.31" cy="582.72" r="4.05"/>
        <ellipse class="cls-1" cx="469.09" cy="190.61" rx="30.7" ry="69.62" transform="translate(193.03 615.07) rotate(-79.07)"/>
        <path class="cls-1" d="M400.74,177.41c12.47-11.49,36.42-24.24,74.18-16.95"/>
        <path class="cls-5" d="M474.91,160.46c37.75,7.29,65.75,26.69,62.54,43.34-3.21,16.65-36.42,24.24-74.18,16.95-2.45-.47-4.86-1-7.22-1.57"/>
        <ellipse class="cls-1" cx="467.66" cy="159.06" rx="69.62" ry="30.7" transform="translate(-26.3 161.56) rotate(-19.07)"/>
        <path class="cls-7" d="M272.42,312.18c1.33-2.55,9.57-17.7,30.88-26.42,25.37-10.38,47-2.56,49.03-1.78"/>
        <path class="cls-7" d="M564.46,368.55c-.29-2.86-2.3-19.99-18.83-36.01-19.68-19.08-42.67-19.86-44.85-19.9"/>
        <path class="cls-2" d="M387.53,663.13c-9.43,4.16-20.17,5.58-31.06,3.48-10.97-2.12-20.48-7.51-27.7-14.96,6.32-11.75,19.75-18.57,33.54-15.91,13.84,2.67,23.79,14.07,25.22,27.39Z"/>
      </g>
    </g>
  </g>
</svg>