<?xml version="1.0" encoding="UTF-8"?>
<svg id="Layer_2" data-name="Layer 2" xmlns="http://www.w3.org/2000/svg" viewBox="0 0 1486.36 238.62">
  <defs>
    <style>
      .cls-1 {
        fill: #fff3e5;
      }
    </style>
  </defs>
  <g id="logo_clear">
    <g id="logo_clear-2" data-name="logo_clear">
      <path class="cls-1" d="M165.46,5.94c-3.96-3.94-9.09-5.94-15.26-5.94s-11.02,1.97-15.04,5.86c-4.03,3.89-6.16,9.19-6.16,15.34v61.89c-4.48-3.58-9.39-6.7-14.71-9.3-10.45-5.12-21.95-7.71-34.2-7.71-15.17,0-29.01,3.87-41.12,11.49-12.04,7.57-21.65,17.97-28.58,30.9C3.5,121.33,0,136.05,0,152.21s3.82,31.06,11.37,44.08c7.53,13,17.9,23.42,30.8,30.95,12.92,7.56,27.61,11.38,43.67,11.38s30.7-3.83,43.54-11.39c12.8-7.54,23.11-17.95,30.64-30.94,7.55-13.03,11.37-27.86,11.37-44.08V21.2c0-6.18-2-11.32-5.94-15.26ZM108.57,193.6c-6.68,4.09-14.11,6.08-22.72,6.08s-15.84-1.99-22.61-6.1c-6.83-4.12-12.06-9.66-16.04-16.93-3.95-7.22-5.95-15.45-5.95-24.44s1.99-17.37,5.92-24.39c3.96-7.1,9.22-12.56,16.07-16.7,6.78-4.1,14.18-6.09,22.61-6.09s16.05,1.98,22.72,6.07c6.73,4.13,11.89,9.59,15.78,16.67,3.85,7.03,5.81,15.25,5.81,24.43s-1.96,17.25-5.84,24.49c-3.89,7.27-9.03,12.79-15.75,16.9Z"/>
      <path class="cls-1" d="M374.6,162.96c-2.89-4.4-7.4-7.25-13.4-8.46-.05,0-.1-.02-.15-.03-1.17-.21-2.35-.31-3.5-.31-3.57,0-6.99.99-10.18,2.95-4.01,2.49-7.03,6-9,10.46,0,.03-.02.05-.03.07-1.61,3.76-4.37,7.95-8.21,12.46-3.8,4.43-7.99,7.99-12.45,10.57-8.42,4.85-16.99,7.35-25.49,7.41h-.38c-8.43,0-16.04-2-23.26-6.13-2.61-1.5-5.07-3.27-7.36-5.29l87.41-50.47c4.82-2.78,8-6.71,9.43-11.7,1.45-5.01.79-10.13-1.91-14.79-8.03-13.91-17.92-24.88-29.39-32.63-11.67-7.88-24.59-12.08-38.4-12.47-.64-.02-1.27-.03-1.9-.03-13.16,0-26.57,3.89-39.85,11.57-14.05,8.12-24.87,18.67-32.14,31.35-7.28,12.72-10.84,26.68-10.55,41.49.28,14.71,4.68,29.54,13.05,44.05,8.31,14.41,19.12,25.46,32.11,32.87,12.5,7.13,26.2,10.75,40.71,10.75.63,0,1.25,0,1.88-.02,15.14-.3,30.26-4.75,44.94-13.23,8.21-4.73,16.01-11.27,23.21-19.43,7.19-8.15,12.53-16.55,15.86-24.95,3.01-7.3,1.09-12.76-1.06-16.06ZM265.48,108.87c6.53-3.77,12.94-5.68,19.07-5.68.58,0,1.17.02,1.74.05,6.85.41,13.11,2.59,19.11,6.68,2.38,1.63,4.65,3.51,6.79,5.63l-68.69,39.67c-.44-2.14-.73-4.28-.89-6.4-.6-8.02.94-15.32,4.7-22.28,3.71-6.9,9.83-12.85,18.17-17.66Z"/>
      <g>
        <path class="cls-1" d="M629.35,29.24c0,6.95-2.52,13-7.52,17.99-4.98,4.98-11.04,7.52-17.98,7.52s-13.01-2.53-17.99-7.52c-4.99-4.99-7.52-11.04-7.52-17.99s2.52-13,7.52-17.98c4.98-4.99,11.04-7.53,17.99-7.53s13,2.53,17.98,7.53c4.99,4.98,7.52,11.03,7.52,17.98Z"/>
        <path class="cls-1" d="M625.04,88.43v127.85c0,5.96-1.96,11.02-5.85,15.04-3.96,4.09-9.12,6.16-15.34,6.16s-11.15-2.1-15.11-6.08c-3.98-3.97-6.09-9.2-6.09-15.12v-127.85c0-6.13,2.13-11.44,6.16-15.34,4.02-3.89,9.08-5.86,15.04-5.86s11.31,2,15.26,5.95c3.94,3.95,5.93,9.08,5.93,15.25Z"/>
      </g>
      <path class="cls-1" d="M823.5,95.54l-60.88,128.38c-5,10.96-13.18,13.26-19.15,13.26s-14.07-2.26-19.61-13.03c-.04-.06-.07-.12-.09-.19l-60.91-128.43c-2.31-4.87-2.52-10.01-.6-14.82,1.84-4.7,5.37-8.33,10.47-10.79,2.86-1.49,5.84-2.24,8.85-2.24,2.05,0,4.11.36,6.13,1.05,4.9,1.68,8.8,5.05,11.28,9.74.06.1.1.21.15.31l43.99,94.87,43.54-94.85c.05-.11.1-.22.16-.33,2.51-4.73,6.54-8.12,11.66-9.78,2.07-.66,4.18-1.01,6.29-1.01,3.1,0,6.2.73,9.25,2.15,5.03,2.27,8.6,6.06,10.32,10.96,1.71,4.84,1.43,9.94-.84,14.75Z"/>
      <path class="cls-1" d="M1004.69,108.42c-7.53-12.99-17.84-23.41-30.64-30.94-12.84-7.57-27.49-11.4-43.54-11.4s-30.75,3.83-43.67,11.39c-12.91,7.55-23.28,17.95-30.81,30.95-7.54,13.01-11.36,27.84-11.36,44.08s3.5,30.87,10.4,43.75c6.93,12.92,16.54,23.31,28.57,30.89,12.11,7.63,25.95,11.49,41.13,11.49s29.02-3.86,41.13-11.49c2.88-1.81,5.63-3.8,8.24-5.93.81,4.02,2.72,7.58,5.63,10.48,4.01,4.03,9.11,6.08,15.11,6.08s11.15-2.1,15.12-6.1c3.97-3.96,6.08-9.18,6.08-15.1v-64.07c0-16.23-3.82-31.06-11.37-44.08ZM930.5,199.68c-8.43,0-15.83-1.99-22.62-6.1-6.73-4.07-12.13-9.73-16.04-16.8-3.99-7.22-5.94-15.16-5.94-24.28s1.99-17.44,5.93-24.56c3.92-7.09,9.31-12.75,16.06-16.82,6.78-4.1,14.18-6.09,22.61-6.09s16.14,2.04,22.72,6.07c6.72,4.12,11.89,9.61,15.76,16.79,3.86,7.14,5.83,15.43,5.83,24.61s-1.96,17.18-5.83,24.32c-3.82,7.07-9.13,12.72-15.76,16.78-6.68,4.09-14.11,6.08-22.72,6.08Z"/>
      <path class="cls-1" d="M1156.25,216.57c0,6.12-2.44,11.42-7.05,15.34-4.36,3.69-9.89,5.57-16.44,5.57h-5.17c-10.81,0-20.69-2.81-29.39-8.35-8.6-5.5-15.46-13.05-20.37-22.45-4.88-9.32-7.36-19.91-7.36-31.48V38.15c0-5.98,1.99-11.03,5.95-14.99,3.89-3.88,9.06-5.93,14.96-5.93s11.02,1.99,14.98,5.95c3.94,3.96,5.94,8.99,5.94,14.97v34.82h17.87c5.69,0,10.47,1.74,14.2,5.18,3.82,3.53,5.84,8.37,5.84,14.01,0,5.26-2.02,9.9-5.84,13.43-3.73,3.44-8.51,5.18-14.2,5.18h-17.87v64.42c0,6.16,1.58,11.11,4.83,15.11,2.98,3.65,6.3,5.35,10.45,5.35h9.76c5.3,0,10.02,2.15,13.64,6.21,3.49,3.91,5.26,8.86,5.26,14.7Z"/>
      <path class="cls-1" d="M1288.69,216.57c0,6.12-2.43,11.42-7.04,15.34-4.36,3.69-9.89,5.57-16.45,5.57h-5.17c-10.8,0-20.68-2.81-29.37-8.35-8.61-5.49-15.48-13.04-20.39-22.46-4.88-9.33-7.36-19.92-7.36-31.47V38.15c0-5.99,2-11.03,5.95-14.98,3.88-3.88,9.06-5.94,14.97-5.94s11.07,2.05,14.99,5.96c3.93,3.96,5.92,8.99,5.92,14.96v34.82h17.87c5.69,0,10.47,1.74,14.2,5.18,3.82,3.53,5.84,8.37,5.84,14.01,0,5.26-2.02,9.9-5.84,13.43-3.73,3.44-8.51,5.18-14.2,5.18h-17.87v64.42c0,6.16,1.59,11.11,4.85,15.11,2.96,3.65,6.28,5.35,10.44,5.35h9.76c5.3,0,10.02,2.15,13.64,6.21,3.49,3.91,5.26,8.86,5.26,14.7Z"/>
      <path class="cls-1" d="M1475.31,107.74c-7.36-12.94-17.6-23.24-30.45-30.6-12.84-7.34-27.65-11.07-44.05-11.07s-31.51,3.73-44.33,11.07c-12.86,7.36-23.1,17.66-30.46,30.6-7.33,12.91-11.05,27.97-11.05,44.75s3.72,31.55,11.05,44.46c7.36,12.95,17.6,23.25,30.46,30.61,12.81,7.34,27.74,11.06,44.33,11.06s31.51-3.72,44.33-11.06c12.86-7.36,23.07-17.67,30.33-30.63,7.23-12.9,10.89-27.86,10.89-44.43s-3.72-31.83-11.05-44.75ZM1423.86,193.71c-6.59,3.96-14.35,5.97-23.06,5.97s-16.48-2.01-23.06-5.97c-6.71-4.02-11.86-9.42-15.73-16.49-3.85-7.03-5.81-15.35-5.81-24.72s1.96-17.77,5.82-24.9c3.88-7.15,9.01-12.59,15.72-16.61,6.58-3.96,14.34-5.96,23.06-5.96s16.47,2,23.06,5.96c6.69,4.01,11.76,9.43,15.54,16.56,3.79,7.14,5.7,15.54,5.7,24.95s-1.92,17.73-5.69,24.77c-3.78,7.05-8.86,12.43-15.56,16.44Z"/>
      <path class="cls-1" d="M545,92.52c-.89,4.01-2.69,7.24-5.34,9.57-2.52,2.23-5.47,3.67-8.77,4.27-1.23.22-2.5.34-3.79.34-1.82,0-3.72-.22-5.66-.67-5.72-1.15-11.4-1.73-16.89-1.73-4.57,0-9.15.4-13.61,1.21-17.4,3.12-26.22,15.67-26.22,37.3v73.76c0,6.33-1.82,11.44-5.42,15.17-3.66,3.82-8.87,5.74-15.49,5.74s-11.44-1.82-15.17-5.42c-3.82-3.67-5.74-8.87-5.74-15.49v-73.76c0-5.9.42-11.55,1.23-16.79,0-.05.02-.09.02-.14,3.33-21.12,13.19-37.02,29.31-47.29,13.62-8.68,31.46-13.07,52.98-13.07,12.91,0,22.51,2.19,29.32,6.69,10.67,7.05,10.39,15.71,9.23,20.33Z"/>
    </g>
  </g>
</svg>