<?xml version="1.0" encoding="UTF-8"?>
<svg id="Layer_2" data-name="Layer 2" xmlns="http://www.w3.org/2000/svg" xmlns:xlink="http://www.w3.org/1999/xlink" viewBox="0 0 1486.36 1505.58">
  <defs>
    <style>
      .cls-1 {
        fill: #ff981c;
      }

      .cls-2 {
        fill: #ff694e;
      }

      .cls-3 {
        fill: #fff;
      }

      .cls-4 {
        fill: #5f2641;
      }

      .cls-5, .cls-6 {
        stroke-miterlimit: 10;
      }

      .cls-5, .cls-6, .cls-7 {
        fill: none;
        stroke-linecap: round;
        stroke-width: 20px;
      }

      .cls-5, .cls-7 {
        stroke: #5f2641;
      }

      .cls-6 {
        stroke: #2f222e;
      }

      .cls-8 {
        fill: #ffeee9;
      }

      .cls-7 {
        stroke-linejoin: round;
      }

      .cls-9 {
        fill: url(#linear-gradient);
      }

      .cls-10 {
        fill: #d2ff4f;
      }

      .cls-11 {
        fill: #fff3e5;
      }

      .cls-12 {
        fill: #2f222e;
      }
    </style>
    <linearGradient id="linear-gradient" x1="806.99" y1="1005.57" x2="1024.71" y2="664.59" gradientTransform="translate(260.11 -134.51) rotate(9.68)" gradientUnits="userSpaceOnUse">
      <stop offset="0" stop-color="#ef7d00"/>
      <stop offset=".63" stop-color="#ff981c"/>
    </linearGradient>
  </defs>
  <g id="deri_hello">
    <g id="Deri">
      <g id="Tail">
        <path class="cls-9" d="M1272.02,611.39c-45.93,47.55-72.13,111.98-97.02,176.22-13.3,34.34-26.23,68.64-41.58,100.27-27.04,55.71-67.04,106.01-128.15,126.83-47.66,16.23-102.79,15.62-148.56,4.2-5.43-1.36-26.18-9.13-17.36-18.28,70.29-72.96,95-184.38,138.59-276.5,17.28-34.7,38.89-67.11,67.39-91.69,17.47-15.08,37.53-27.21,60.76-35.13,47.66-16.24,102.79-15.63,148.56-4.2,5.8,1.44,26.07,9.26,17.36,18.28Z"/>
        <path class="cls-11" d="M1272.02,611.39c-45.93,47.55-72.13,111.98-97.02,176.22-69.63-23.26-119.32-84.11-129.67-155.18,17.47-15.08,37.53-27.21,60.76-35.13,47.66-16.24,102.79-15.63,148.56-4.2,5.8,1.44,26.07,9.26,17.36,18.28Z"/>
      </g>
      <g id="Left_Arm" data-name="Left Arm">
        <path class="cls-1" d="M581.92,776.38c-8.55-1.76-16.76-5.7-23.72-11.88l-127.93-113.6-13.26-11.78c-21.2-18.82-23.14-51.56-4.32-72.76,18.82-21.2,51.57-23.13,72.75-4.32l13.03,11.57,128.18,113.81c21.2,18.82,23.14,51.56,4.32,72.75-12.64,14.24-31.55,19.79-49.03,16.2Z"/>
        <path class="cls-12" d="M430.26,650.9l-13.26-11.78c-21.2-18.82-23.14-51.56-4.32-72.76,18.82-21.2,51.57-23.13,72.75-4.32l13.03,11.57c-39.32,3.77-69.35,37.75-68.2,77.28Z"/>
      </g>
      <g id="Right_Arm" data-name="Right Arm">
        <path class="cls-1" d="M803.02,766.93c0,8.73,2.21,17.56,6.87,25.63l85.55,148.17,8.87,15.36c14.17,24.55,45.85,33.04,70.4,18.87,24.55-14.17,33.03-45.86,18.86-70.4l-8.71-15.09-85.7-148.45c-14.17-24.55-45.85-33.03-70.4-18.86-16.49,9.52-25.73,26.93-25.73,44.77Z"/>
        <path class="cls-12" d="M895.43,940.73l8.87,15.36c14.17,24.55,45.85,33.04,70.4,18.87,24.55-14.17,33.03-45.86,18.86-70.4l-8.71-15.09c-11.6,37.75-50.93,60.34-89.42,51.26Z"/>
      </g>
      <path id="Right_Foot" data-name="Right Foot" class="cls-12" d="M592.59,1061.71h24.85c29.78,0,53.96,24.18,53.96,53.96v3.43c0,18.54-15.05,33.58-33.58,33.58h-65.61c-18.54,0-33.58-15.05-33.58-33.58v-3.43c0-29.78,24.18-53.96,53.96-53.96Z" transform="translate(-179.13 118.74) rotate(-9.77)"/>
      <path id="Left_Foot" data-name="Left Foot" class="cls-12" d="M800.87,1071.12h24.85c29.78,0,53.96,24.18,53.96,53.96v3.43c0,18.54-15.05,33.58-33.58,33.58h-65.61c-18.54,0-33.58-15.05-33.58-33.58v-3.43c0-29.78,24.18-53.96,53.96-53.96Z"/>
      <g id="Body">
        <path class="cls-1" d="M723.16,672.07h13.29c93.72,0,169.81,76.09,169.81,169.81v83.6c0,74.28-60.3,134.58-134.58,134.58h-83.76c-74.28,0-134.58-60.3-134.58-134.58v-83.6c0-93.72,76.09-169.81,169.81-169.81Z" transform="translate(91.05 -69.18) rotate(5.79)"/>
        <ellipse class="cls-11" cx="732.66" cy="837.87" rx="155.78" ry="91.77" transform="translate(-174.81 1482.31) rotate(-84.21)"/>
      </g>
      <g id="Head">
        <g>
          <path class="cls-1" d="M1093.08,397.69c-55.7,63.9-151.58,71.48-214.16,16.94-62.58-54.55-68.16-150.56-12.47-214.47,25.57-29.33,90.85-56.04,154.01-76.36,30.92-9.95,61.33-18.37,86.32-24.8,29.63-7.63,57.21,16.4,53.7,46.79-3.01,26.02-7.28,57.84-13.03,90.32-11.51,64.91-28.99,132.46-54.36,161.58Z"/>
          <path class="cls-12" d="M1147.44,236.11c-13.82,3.24-28.54,3.69-43.38.83-53.47-10.32-89.39-59.94-83.6-113.14,30.92-9.95,61.33-18.37,86.32-24.8,29.63-7.63,57.21,16.4,53.7,46.79-3.01,26.02-7.28,57.84-13.03,90.32Z"/>
          <path class="cls-8" d="M1060.17,367.48c-39.15,44.92-106.55,50.25-150.54,11.91-43.99-38.34-47.91-105.83-8.76-150.75,29.23-33.54,132.36-62.21,182.74-74.59,13.9-3.41,26.97,7.98,25.49,22.22-5.38,51.59-19.7,157.68-48.93,191.21Z"/>
        </g>
        <g>
          <path class="cls-1" d="M539.7,290.87c27.91,80.03,114.08,122.76,192.47,95.43,78.39-27.33,119.3-114.38,91.4-194.42-12.81-36.74-63.47-85.83-114.52-128.2-25-20.74-50.08-39.87-70.88-55.15-24.66-18.11-59.21-6.07-67.25,23.45-6.89,25.27-14.77,56.39-21.52,88.68-13.47,64.53-22.4,133.73-9.68,170.2Z"/>
          <path class="cls-12" d="M549.38,120.67c11.62,8.15,25.11,14.05,39.95,16.91,53.47,10.32,105.28-22.37,119.7-73.89-25-20.74-50.08-39.87-70.88-55.15-24.66-18.11-59.21-6.07-67.25,23.45-6.89,25.27-14.77,56.39-21.52,88.68Z"/>
          <path class="cls-8" d="M581.48,275.07c19.62,56.26,80.19,86.29,135.29,67.08,55.1-19.21,83.86-80.4,64.24-136.66-14.65-42.01-99.7-107.01-141.85-137.24-11.63-8.34-28.01-2.63-31.93,11.13-14.21,49.89-40.4,153.68-25.76,195.69Z"/>
        </g>
        <rect class="cls-1" x="544.12" y="159.88" width="505.7" height="591.15" rx="243.33" ry="243.33" transform="translate(100.77 -142.8) rotate(10.93)"/>
        <g>
          <rect class="cls-10" x="799.86" y="396.23" width="178.2" height="123.77" rx="59.55" ry="59.55" transform="translate(270.66 1244.13) rotate(-79.07)"/>
          <rect class="cls-12" x="840.03" y="408.91" width="76.46" height="99.81" rx="36.79" ry="36.79" transform="translate(102.88 -158.14) rotate(10.93)"/>
          <circle class="cls-3" cx="905.23" cy="435.69" r="22.09"/>
          <rect class="cls-10" x="619.56" y="361.43" width="178.2" height="123.77" rx="59.55" ry="59.55" transform="translate(158.7 1038.89) rotate(-79.07)"/>
          <rect class="cls-12" x="680.09" y="378.03" width="76.46" height="99.81" rx="36.79" ry="36.79" transform="translate(1342.51 984.27) rotate(-169.07)"/>
          <circle class="cls-3" cx="701.9" cy="396.44" r="22.09"/>
        </g>
        <ellipse class="cls-1" cx="661.71" cy="531.4" rx="103.43" ry="130.1" transform="translate(14.52 1080.4) rotate(-79.07)"/>
        <ellipse class="cls-1" cx="894.83" cy="576.4" rx="103.43" ry="130.1" transform="translate(159.28 1345.77) rotate(-79.07)"/>
        <path class="cls-11" d="M1062.22,495.83c22.35,1.18,37.44,23.31,30.31,44.53-48.61,144.71-199.03,235.51-352.82,205.83h0c-153.75-29.68-259.55-169.88-250.87-322.25,1.28-22.38,23.6-37.35,44.79-30.02,85.9,29.73,199.89,99.31,235.34,121.57,7.09,4.45,15.56,6.12,23.81,4.67,41.8-7.32,176.81-29.22,269.44-24.33Z"/>
        <path class="cls-4" d="M817.73,624.99c-3.4,17.59-15.21,31.43-30.46,38.14-9.43,4.16-20.17,5.58-31.06,3.48-10.97-2.12-20.48-7.51-27.7-14.96-11.55-11.89-17.29-29.05-13.91-46.56,5.5-28.49,33.04-47.11,61.52-41.61,28.48,5.5,47.11,33.04,41.61,61.52Z"/>
        <ellipse class="cls-11" cx="719.8" cy="539.9" rx="64.98" ry="58.65" transform="translate(53.26 1144.32) rotate(-79.07)"/>
        <ellipse class="cls-11" cx="834.98" cy="562.13" rx="64.98" ry="58.65" transform="translate(124.78 1275.43) rotate(-79.07)"/>
        <path class="cls-6" d="M776.19,557.23c-6.14,31.8-36.9,52.61-68.7,46.47-31.8-6.14-52.61-36.9-46.47-68.7"/>
        <path class="cls-6" d="M891.36,579.46c-6.14,31.8-36.9,52.61-68.7,46.47-31.8-6.14-52.61-36.9-46.47-68.7"/>
        <path class="cls-12" d="M798.47,550.81l9.51-8.11c16.87-14.38,9.62-41.89-12.15-46.09l-15.33-2.96c-21.77-4.2-38.73,18.63-28.43,38.26l5.81,11.07c7.88,15.02,27.67,18.84,40.58,7.83Z"/>
        <circle class="cls-4" cx="703.56" cy="516.69" r="4.05"/>
        <circle class="cls-4" cx="725.39" cy="536.33" r="4.05"/>
        <circle class="cls-4" cx="704.54" cy="557.01" r="4.05"/>
        <circle class="cls-4" cx="850.97" cy="545.65" r="4.05"/>
        <circle class="cls-4" cx="823.39" cy="555.76" r="4.05"/>
        <circle class="cls-4" cx="835.05" cy="582.72" r="4.05"/>
        <ellipse class="cls-1" cx="868.83" cy="190.61" rx="30.7" ry="69.62" transform="translate(517.01 1007.56) rotate(-79.07)"/>
        <path class="cls-1" d="M800.48,177.41c12.47-11.49,36.42-24.24,74.18-16.95"/>
        <path class="cls-5" d="M874.65,160.46c37.75,7.29,65.75,26.69,62.54,43.34-3.21,16.65-36.42,24.24-74.18,16.95-2.45-.47-4.86-1-7.22-1.57"/>
        <ellipse class="cls-1" cx="867.4" cy="159.06" rx="69.62" ry="30.7" transform="translate(-4.36 292.19) rotate(-19.07)"/>
        <path class="cls-7" d="M672.16,312.18c1.33-2.55,9.57-17.7,30.88-26.42,25.37-10.38,47-2.56,49.03-1.78"/>
        <path class="cls-7" d="M964.2,368.55c-.29-2.86-2.3-19.99-18.83-36.01-19.68-19.08-42.67-19.86-44.85-19.9"/>
        <path class="cls-2" d="M787.27,663.13c-9.43,4.16-20.17,5.58-31.06,3.48-10.97-2.12-20.48-7.51-27.7-14.96,6.32-11.75,19.75-18.57,33.54-15.91,13.84,2.67,23.79,14.07,25.22,27.39Z"/>
      </g>
    </g>
  </g>
  <g id="logo">
    <g id="logo-2" data-name="logo">
      <path class="cls-1" d="M165.46,1272.9c-3.96-3.94-9.09-5.94-15.26-5.94s-11.02,1.97-15.04,5.86c-4.03,3.89-6.16,9.19-6.16,15.34v61.89c-4.48-3.58-9.39-6.7-14.71-9.3-10.45-5.12-21.95-7.71-34.2-7.71-15.17,0-29.01,3.87-41.12,11.49-12.04,7.57-21.65,17.97-28.58,30.9-6.9,12.87-10.4,27.59-10.4,43.74s3.82,31.06,11.37,44.08c7.53,13,17.9,23.42,30.8,30.95,12.92,7.56,27.61,11.38,43.67,11.38s30.7-3.83,43.54-11.39c12.8-7.54,23.11-17.95,30.64-30.94,7.55-13.03,11.37-27.86,11.37-44.08v-131.01c0-6.18-2-11.32-5.94-15.26ZM108.57,1460.56c-6.68,4.09-14.11,6.08-22.72,6.08s-15.84-1.99-22.61-6.1c-6.83-4.12-12.06-9.66-16.04-16.93-3.95-7.22-5.95-15.45-5.95-24.44s1.99-17.37,5.92-24.39c3.96-7.1,9.22-12.56,16.07-16.7,6.78-4.1,14.18-6.09,22.61-6.09s16.05,1.98,22.72,6.07c6.73,4.13,11.89,9.59,15.78,16.67,3.85,7.03,5.81,15.25,5.81,24.43s-1.96,17.25-5.84,24.49c-3.89,7.27-9.03,12.79-15.75,16.9Z"/>
      <path class="cls-1" d="M374.6,1429.92c-2.89-4.4-7.4-7.25-13.4-8.46-.05,0-.1-.02-.15-.03-1.17-.21-2.35-.31-3.5-.31-3.57,0-6.99.99-10.18,2.95-4.01,2.49-7.03,6-9,10.46,0,.03-.02.05-.03.07-1.61,3.76-4.37,7.95-8.21,12.46-3.8,4.43-7.99,7.99-12.45,10.57-8.42,4.85-16.99,7.35-25.49,7.41h-.38c-8.43,0-16.04-2-23.26-6.13-2.61-1.5-5.07-3.27-7.36-5.29l87.41-50.47c4.82-2.78,8-6.71,9.43-11.7,1.45-5.01.79-10.13-1.91-14.79-8.03-13.91-17.92-24.88-29.39-32.63-11.67-7.88-24.59-12.08-38.4-12.47-.64-.02-1.27-.03-1.9-.03-13.16,0-26.57,3.89-39.85,11.57-14.05,8.12-24.87,18.67-32.14,31.35-7.28,12.72-10.84,26.68-10.55,41.49.28,14.71,4.68,29.54,13.05,44.05,8.31,14.41,19.12,25.46,32.11,32.87,12.5,7.13,26.2,10.75,40.71,10.75.63,0,1.25,0,1.88-.02,15.14-.3,30.26-4.75,44.94-13.23,8.21-4.73,16.01-11.27,23.21-19.43,7.19-8.15,12.53-16.55,15.86-24.95,3.01-7.3,1.09-12.76-1.06-16.06ZM265.48,1375.83c6.53-3.77,12.94-5.68,19.07-5.68.58,0,1.17.02,1.74.05,6.85.41,13.11,2.59,19.11,6.68,2.38,1.63,4.65,3.51,6.79,5.63l-68.69,39.67c-.44-2.14-.73-4.28-.89-6.4-.6-8.02.94-15.32,4.7-22.28,3.71-6.9,9.83-12.85,18.17-17.66Z"/>
      <g>
        <path class="cls-1" d="M629.35,1296.2c0,6.95-2.52,13-7.52,17.99-4.98,4.98-11.04,7.52-17.98,7.52s-13.01-2.53-17.99-7.52c-4.99-4.99-7.52-11.04-7.52-17.99s2.52-13,7.52-17.98c4.98-4.99,11.04-7.53,17.99-7.53s13,2.53,17.98,7.53c4.99,4.98,7.52,11.03,7.52,17.98Z"/>
        <path class="cls-1" d="M625.04,1355.38v127.85c0,5.96-1.96,11.02-5.85,15.04-3.96,4.09-9.12,6.16-15.34,6.16s-11.15-2.1-15.11-6.08c-3.98-3.97-6.09-9.2-6.09-15.12v-127.85c0-6.13,2.13-11.44,6.16-15.34,4.02-3.89,9.08-5.86,15.04-5.86s11.31,2,15.26,5.95c3.94,3.95,5.93,9.08,5.93,15.25Z"/>
      </g>
      <path class="cls-1" d="M823.5,1362.5l-60.88,128.38c-5,10.96-13.18,13.26-19.15,13.26s-14.07-2.26-19.61-13.03c-.04-.06-.07-.12-.09-.19l-60.91-128.43c-2.31-4.87-2.52-10.01-.6-14.82,1.84-4.7,5.37-8.33,10.47-10.79,2.86-1.49,5.84-2.24,8.85-2.24,2.05,0,4.11.36,6.13,1.05,4.9,1.68,8.8,5.05,11.28,9.74.06.1.1.21.15.31l43.99,94.87,43.54-94.85c.05-.11.1-.22.16-.33,2.51-4.73,6.54-8.12,11.66-9.78,2.07-.66,4.18-1.01,6.29-1.01,3.1,0,6.2.73,9.25,2.15,5.03,2.27,8.6,6.06,10.32,10.96,1.71,4.84,1.43,9.94-.84,14.75Z"/>
      <path class="cls-1" d="M1004.69,1375.38c-7.53-12.99-17.84-23.41-30.64-30.94-12.84-7.57-27.49-11.4-43.54-11.4s-30.75,3.83-43.67,11.39c-12.91,7.55-23.28,17.95-30.81,30.95-7.54,13.01-11.36,27.84-11.36,44.08s3.5,30.87,10.4,43.75c6.93,12.92,16.54,23.31,28.57,30.89,12.11,7.63,25.95,11.49,41.13,11.49s29.02-3.86,41.13-11.49c2.88-1.81,5.63-3.8,8.24-5.93.81,4.02,2.72,7.58,5.63,10.48,4.01,4.03,9.11,6.08,15.11,6.08s11.15-2.1,15.12-6.1c3.97-3.96,6.08-9.18,6.08-15.1v-64.07c0-16.23-3.82-31.06-11.37-44.08ZM930.5,1466.64c-8.43,0-15.83-1.99-22.62-6.1-6.73-4.07-12.13-9.73-16.04-16.8-3.99-7.22-5.94-15.16-5.94-24.28s1.99-17.44,5.93-24.56c3.92-7.09,9.31-12.75,16.06-16.82,6.78-4.1,14.18-6.09,22.61-6.09s16.14,2.04,22.72,6.07c6.72,4.12,11.89,9.61,15.76,16.79,3.86,7.14,5.83,15.43,5.83,24.61s-1.96,17.18-5.83,24.32c-3.82,7.07-9.13,12.72-15.76,16.78-6.68,4.09-14.11,6.08-22.72,6.08Z"/>
      <path class="cls-1" d="M1156.25,1483.52c0,6.12-2.44,11.42-7.05,15.34-4.36,3.69-9.89,5.57-16.44,5.57h-5.17c-10.81,0-20.69-2.81-29.39-8.35-8.6-5.5-15.46-13.05-20.37-22.45-4.88-9.32-7.36-19.91-7.36-31.48v-137.04c0-5.98,1.99-11.03,5.95-14.99,3.89-3.88,9.06-5.93,14.96-5.93s11.02,1.99,14.98,5.95c3.94,3.96,5.94,8.99,5.94,14.97v34.82h17.87c5.69,0,10.47,1.74,14.2,5.18,3.82,3.53,5.84,8.37,5.84,14.01,0,5.26-2.02,9.9-5.84,13.43-3.73,3.44-8.51,5.18-14.2,5.18h-17.87v64.42c0,6.16,1.58,11.11,4.83,15.11,2.98,3.65,6.3,5.35,10.45,5.35h9.76c5.3,0,10.02,2.15,13.64,6.21,3.49,3.91,5.26,8.86,5.26,14.7Z"/>
      <path class="cls-1" d="M1288.69,1483.52c0,6.12-2.43,11.42-7.04,15.34-4.36,3.69-9.89,5.57-16.45,5.57h-5.17c-10.8,0-20.68-2.81-29.37-8.35-8.61-5.49-15.48-13.04-20.39-22.46-4.88-9.33-7.36-19.92-7.36-31.47v-137.04c0-5.99,2-11.03,5.95-14.98,3.88-3.88,9.06-5.94,14.97-5.94s11.07,2.05,14.99,5.96c3.93,3.96,5.92,8.99,5.92,14.96v34.82h17.87c5.69,0,10.47,1.74,14.2,5.18,3.82,3.53,5.84,8.37,5.84,14.01,0,5.26-2.02,9.9-5.84,13.43-3.73,3.44-8.51,5.18-14.2,5.18h-17.87v64.42c0,6.16,1.59,11.11,4.85,15.11,2.96,3.65,6.28,5.35,10.44,5.35h9.76c5.3,0,10.02,2.15,13.64,6.21,3.49,3.91,5.26,8.86,5.26,14.7Z"/>
      <path class="cls-1" d="M1475.31,1374.7c-7.36-12.94-17.6-23.24-30.45-30.6-12.84-7.34-27.65-11.07-44.05-11.07s-31.51,3.73-44.33,11.07c-12.86,7.36-23.1,17.66-30.46,30.6-7.33,12.91-11.05,27.97-11.05,44.75s3.72,31.55,11.05,44.46c7.36,12.95,17.6,23.25,30.46,30.61,12.81,7.34,27.74,11.06,44.33,11.06s31.51-3.72,44.33-11.06c12.86-7.36,23.07-17.67,30.33-30.63,7.23-12.9,10.89-27.86,10.89-44.43s-3.72-31.83-11.05-44.75ZM1423.86,1460.67c-6.59,3.96-14.35,5.97-23.06,5.97s-16.48-2.01-23.06-5.97c-6.71-4.02-11.86-9.42-15.73-16.49-3.85-7.03-5.81-15.35-5.81-24.72s1.96-17.77,5.82-24.9c3.88-7.15,9.01-12.59,15.72-16.61,6.58-3.96,14.34-5.96,23.06-5.96s16.47,2,23.06,5.96c6.69,4.01,11.76,9.43,15.54,16.56,3.79,7.14,5.7,15.54,5.7,24.95s-1.92,17.73-5.69,24.77c-3.78,7.05-8.86,12.43-15.56,16.44Z"/>
      <path class="cls-1" d="M545,1359.48c-.89,4.01-2.69,7.24-5.34,9.57-2.52,2.23-5.47,3.67-8.77,4.27-1.23.22-2.5.34-3.79.34-1.82,0-3.72-.22-5.66-.67-5.72-1.15-11.4-1.73-16.89-1.73-4.57,0-9.15.4-13.61,1.21-17.4,3.12-26.22,15.67-26.22,37.3v73.76c0,6.33-1.82,11.44-5.42,15.17-3.66,3.82-8.87,5.74-15.49,5.74s-11.44-1.82-15.17-5.42c-3.82-3.67-5.74-8.87-5.74-15.49v-73.76c0-5.9.42-11.55,1.23-16.79,0-.05.02-.09.02-.14,3.33-21.12,13.19-37.02,29.31-47.29,13.62-8.68,31.46-13.07,52.98-13.07,12.91,0,22.51,2.19,29.32,6.69,10.67,7.05,10.39,15.71,9.23,20.33Z"/>
    </g>
  </g>
</svg>